<svg width="143" height="541" viewBox="0 0 143 541" fill="none" xmlns="http://www.w3.org/2000/svg">
<g clip-path="url(#clip0_17_1656)">
<g clip-path="url(#clip1_17_1656)">
<g clip-path="url(#clip2_17_1656)">
<path d="M190.84 29.3068C175.689 11.0912 137.377 -16.9154 105.342 16.7836C73.3075 50.4825 116.525 113.554 142.139 140.878C154.765 148.468 181.1 161.37 185.429 152.263C190.84 140.878 194.087 116.97 149.715 96.4771C121.215 84.3333 59.6711 71.4306 41.4893 116.97C33.192 136.703 31.749 182.546 92.3552 208.048L168.113 241.064M168.113 241.064C196.973 242.211 238.459 228.561 173.524 164.786C152.961 154.919 103.178 134.958 68.5455 134.047C48.7042 138.221 10.5367 158.866 16.5973 208.048C15.8758 217.915 29.3679 242.43 89.1083 261.557C102.817 264.592 133.481 270.892 146.468 271.803L193.005 278.634L168.113 241.064ZM168.113 241.064C149.176 235.751 104.482 226.719 77.2035 233.095C43.1058 241.064 29.5844 234.233 2.52803 278.634C-2.16173 301.403 1.22933 348.081 52.3117 352.635C103.394 357.189 136.367 348.46 146.468 343.527V301.403M146.468 301.403C109.31 304.819 29.5844 302.314 7.9393 264.972C-2.52248 238.407 -3.31614 184.14 77.2035 179.586C96.6841 180.345 138.243 182.774 148.632 186.417L146.468 267.249C108.589 270.664 28.935 286.831 13.3506 324.173C5.05329 345.804 2.31158 391.343 57.7229 400.451C78.2857 401.21 124.823 398.402 146.468 381.097M146.468 301.403V381.097M146.468 301.403C123.019 307.096 71.3593 322.807 52.3117 340.112C29.2236 359.086 -4.61484 406.143 44.7359 442.575C60.2483 448.267 101.446 452.821 142.139 425.497M146.468 381.097L142.139 425.497M146.468 381.097C120.494 399.312 67.4632 443.485 63.1342 474.452C61.3304 493.427 66.1644 532.97 99.9308 539.345C108.589 540.863 130.017 540.712 146.468 527.961L142.139 425.497" stroke="#9FDCF7"/>
</g>
</g>
</g>
<defs>
<clipPath id="clip0_17_1656">
<rect width="143" height="541" fill="white"/>
</clipPath>
<clipPath id="clip1_17_1656">
<rect width="143" height="541" fill="white"/>
</clipPath>
<clipPath id="clip2_17_1656">
<rect width="143" height="541" fill="white"/>
</clipPath>
</defs>
</svg>
