<svg width="342" height="462" viewBox="0 0 342 462" fill="none" xmlns="http://www.w3.org/2000/svg">
<g clip-path="url(#clip0_17_1660)">
<g clip-path="url(#clip1_17_1660)">
<g clip-path="url(#clip2_17_1660)">
<g opacity="0.3">
<path d="M60.511 455.621C-19.8061 455.621 -84.916 390.511 -84.916 310.194C-84.916 229.877 -19.8061 164.767 60.511 164.767C140.828 164.767 205.938 229.877 205.938 310.194C205.938 390.511 140.828 455.621 60.511 455.621Z" stroke="#9FDCF7" stroke-width="2"/>
<path d="M72.0699 457.548C-17.8238 457.548 -90.6971 384.675 -90.6971 294.781C-90.6971 204.887 -17.8238 132.014 72.0699 132.014C161.964 132.014 234.837 204.887 234.837 294.781C234.837 384.675 161.964 457.548 72.0699 457.548Z" stroke="#9FDCF7" stroke-width="2"/>
<path d="M81.705 460.437C-16.7011 460.437 -96.475 380.663 -96.475 282.257C-96.475 183.851 -16.7011 104.077 81.705 104.077C180.111 104.077 259.885 183.851 259.885 282.257C259.885 380.663 180.111 460.437 81.705 460.437Z" stroke="#9FDCF7" stroke-width="2"/>
<path d="M91.3379 455.621C-14.5169 455.621 -100.329 369.808 -100.329 263.954C-100.329 158.099 -14.5169 72.2866 91.3379 72.2866C197.193 72.2866 283.005 158.099 283.005 263.954C283.005 369.808 197.193 455.621 91.3379 455.621Z" stroke="#9FDCF7" stroke-width="2"/>
<path d="M100.489 450.804C-12.5483 450.804 -104.183 359.169 -104.183 246.132C-104.183 133.095 -12.5483 41.4601 100.489 41.4601C213.526 41.4601 305.161 133.095 305.161 246.132C305.161 359.169 213.526 450.804 100.489 450.804Z" stroke="#9FDCF7" stroke-width="2"/>
<path d="M115.903 450.804C-8.30701 450.804 -108.999 350.112 -108.999 225.902C-108.999 101.692 -8.30701 1 115.903 1C240.113 1 340.805 101.692 340.805 225.902C340.805 350.112 240.113 450.804 115.903 450.804Z" stroke="#9FDCF7" stroke-width="2"/>
</g>
</g>
</g>
</g>
<defs>
<clipPath id="clip0_17_1660">
<rect width="342" height="462" fill="white"/>
</clipPath>
<clipPath id="clip1_17_1660">
<rect width="342" height="462" fill="white"/>
</clipPath>
<clipPath id="clip2_17_1660">
<rect width="342" height="462" fill="white"/>
</clipPath>
</defs>
</svg>
