<svg width="23" height="28" viewBox="0 0 23 28" fill="none" xmlns="http://www.w3.org/2000/svg">
<path d="M14.2636 17.3742C13.9353 17.7025 13.4033 17.7025 13.0757 17.3742L11.22 15.2532L9.36427 17.3735C9.03597 17.7018 8.50397 17.7018 8.17637 17.3735C7.84807 17.0452 7.84807 16.5132 8.17637 16.1856L10.107 13.9806L8.17567 11.7742C7.84737 11.4459 7.84737 10.9146 8.17567 10.5863C8.50397 10.258 9.03527 10.258 9.36357 10.5863L11.22 12.708L13.0757 10.5863C13.404 10.258 13.9353 10.258 14.2636 10.5863C14.5919 10.9146 14.5919 11.4466 14.2636 11.7742L12.333 13.9806L14.2636 16.1856C14.5919 16.5139 14.5919 17.0459 14.2636 17.3742Z" fill="#212529"/>
</svg>
