<svg width="31" height="30" viewBox="0 0 31 30" fill="none" xmlns="http://www.w3.org/2000/svg">
<g clip-path="url(#clip0_17_1732)">
<g clip-path="url(#clip1_17_1732)">
<path d="M29.4456 10.4376C29.5963 11.0247 29.2426 11.6228 28.6554 11.7736L19.0876 14.23C18.5005 14.3807 17.9024 14.0269 17.7517 13.4398C17.6009 12.8527 17.9547 12.2545 18.5418 12.1038L27.0465 9.92038L24.8631 1.41568C24.7123 0.828548 25.0661 0.230397 25.6532 0.0796624C26.2404 -0.0710718 26.8385 0.282693 26.9893 0.869816L29.4456 10.4376ZM3.72707 29.8123C0.839676 24.3183 2.05992 16.335 6.48814 11.2258C8.73231 8.63652 11.8273 6.74892 15.6675 6.2931C19.5006 5.83812 23.964 6.82217 28.9412 9.76584L27.8238 11.6552C23.1539 8.89335 19.1708 8.08782 15.9262 8.47291C12.6886 8.85721 10.0746 10.4394 8.14693 12.6635C4.2315 17.1811 3.25677 24.1989 5.67017 28.7911L3.72707 29.8123Z" fill="#14183E"/>
</g>
</g>
<defs>
<clipPath id="clip0_17_1732">
<rect width="30" height="30" fill="white" transform="translate(0.889893)"/>
</clipPath>
<clipPath id="clip1_17_1732">
<rect width="30" height="30" fill="white" transform="translate(0.889893)"/>
</clipPath>
</defs>
</svg>
