<svg width="31" height="30" viewBox="0 0 31 30" fill="none" xmlns="http://www.w3.org/2000/svg">
<g clip-path="url(#clip0_17_3921)">
<g clip-path="url(#clip1_17_3921)">
<path d="M29.4458 10.4376C29.5966 11.0247 29.2428 11.6228 28.6557 11.7735L19.0879 14.23C18.5008 14.3807 17.9027 14.0269 17.7519 13.4398C17.6012 12.8527 17.9549 12.2545 18.542 12.1038L27.0467 9.92035L24.8633 1.41565C24.7126 0.828518 25.0664 0.230367 25.6535 0.0796319C26.2406 -0.0711023 26.8387 0.282662 26.9895 0.869786L29.4458 10.4376ZM3.72731 29.8123C0.839921 24.3182 2.06016 16.335 6.48839 11.2258C8.73255 8.63649 11.8275 6.74889 15.6677 6.29307C19.5008 5.83809 23.9643 6.82214 28.9415 9.76581L27.824 11.6552C23.1542 8.89332 19.1711 8.08779 15.9265 8.47288C12.6889 8.85718 10.0748 10.4393 8.14717 12.6635C4.23174 17.1811 3.25701 24.1989 5.67042 28.7911L3.72731 29.8123Z" fill="#14183E"/>
</g>
</g>
<defs>
<clipPath id="clip0_17_3921">
<rect width="30" height="30" fill="white" transform="translate(0.890137)"/>
</clipPath>
<clipPath id="clip1_17_3921">
<rect width="30" height="30" fill="white" transform="translate(0.890137)"/>
</clipPath>
</defs>
</svg>
