<svg width="31" height="30" viewBox="0 0 31 30" fill="none" xmlns="http://www.w3.org/2000/svg">
<g clip-path="url(#clip0_2_772)">
<path d="M29.4463 10.4376C29.5971 11.0247 29.2433 11.6228 28.6562 11.7736L19.0884 14.23C18.5012 14.3807 17.9031 14.0269 17.7524 13.4398C17.6017 12.8527 17.9554 12.2545 18.5425 12.1038L27.0472 9.92038L24.8638 1.41568C24.7131 0.828548 25.0668 0.230397 25.654 0.0796624C26.2411 -0.0710718 26.8392 0.282693 26.99 0.869816L29.4463 10.4376ZM3.7278 29.8123C0.840409 24.3183 2.06065 16.335 6.48887 11.2258C8.73304 8.63652 11.828 6.74892 15.6682 6.2931C19.5013 5.83812 23.9648 6.82217 28.942 9.76584L27.8245 11.6552C23.1547 8.89335 19.1716 8.08782 15.9269 8.47291C12.6894 8.85721 10.0753 10.4394 8.14766 12.6635C4.23223 17.1811 3.2575 24.1989 5.67091 28.7911L3.7278 29.8123Z" fill="#14183E"/>
</g>
<defs>
<clipPath id="clip0_2_772">
<rect width="30" height="30" fill="white" transform="translate(0.890137)"/>
</clipPath>
</defs>
</svg>
