<svg width="31" height="30" viewBox="0 0 31 30" fill="none" xmlns="http://www.w3.org/2000/svg">
<g clip-path="url(#clip0_17_1918)">
<g clip-path="url(#clip1_17_1918)">
<path d="M29.3057 10.4376C29.4565 11.0247 29.1027 11.6228 28.5156 11.7736L18.9478 14.23C18.3606 14.3807 17.7625 14.0269 17.6118 13.4398C17.4611 12.8527 17.8148 12.2545 18.4019 12.1038L26.9066 9.92038L24.7232 1.41568C24.5725 0.828548 24.9262 0.230397 25.5134 0.0796624C26.1005 -0.0710718 26.6986 0.282693 26.8494 0.869816L29.3057 10.4376ZM3.58719 29.8123C0.699799 24.3183 1.92004 16.335 6.34826 11.2258C8.59243 8.63652 11.6874 6.74892 15.5276 6.2931C19.3607 5.83812 23.8241 6.82217 28.8014 9.76584L27.6839 11.6552C23.0141 8.89335 19.0309 8.08782 15.7863 8.47291C12.5488 8.85721 9.93473 10.4394 8.00705 12.6635C4.09162 17.1811 3.11689 24.1989 5.5303 28.7911L3.58719 29.8123Z" fill="#14183E"/>
</g>
</g>
<defs>
<clipPath id="clip0_17_1918">
<rect width="30" height="30" fill="white" transform="translate(0.749969)"/>
</clipPath>
<clipPath id="clip1_17_1918">
<rect width="30" height="30" fill="white" transform="translate(0.749969)"/>
</clipPath>
</defs>
</svg>
