<svg width="40" height="41" viewBox="0 0 40 41" fill="none" xmlns="http://www.w3.org/2000/svg">
<g clip-path="url(#clip0_17_1672)">
<g clip-path="url(#clip1_17_1672)">
<path d="M38.9362 14.2647C39.1422 15.0671 38.6587 15.8845 37.8563 16.0905L24.7803 19.4476C23.9779 19.6536 23.1605 19.1701 22.9545 18.3677C22.7485 17.5653 23.2319 16.7478 24.0343 16.5418L35.6574 13.5578L32.6734 1.93471C32.4674 1.1323 32.9509 0.314823 33.7533 0.108819C34.5557 -0.0971844 35.3731 0.386294 35.5792 1.1887L38.9362 14.2647ZM3.7875 40.7434C-0.158603 33.2349 1.50906 22.3245 7.56097 15.3419C10.628 11.8032 14.8578 9.22347 20.1061 8.60052C25.3447 7.97872 31.4447 9.32358 38.2469 13.3466L36.7197 15.9287C30.3376 12.1542 24.894 11.0533 20.4597 11.5796C16.035 12.1048 12.4625 14.2671 9.82798 17.3068C4.47689 23.4808 3.14476 33.0718 6.44308 39.3478L3.7875 40.7434Z" fill="#14183E"/>
</g>
</g>
<defs>
<clipPath id="clip0_17_1672">
<rect width="39" height="41" fill="white" transform="translate(0.909912)"/>
</clipPath>
<clipPath id="clip1_17_1672">
<rect width="39" height="41" fill="white" transform="translate(0.909912)"/>
</clipPath>
</defs>
</svg>
