<svg width="24" height="23" viewBox="0 0 24 23" fill="none" xmlns="http://www.w3.org/2000/svg">
<g clip-path="url(#clip0_17_3938)">
<g clip-path="url(#clip1_17_3938)">
<g clip-path="url(#clip2_17_3938)">
<path d="M1.55722 8.00216C1.44166 8.45229 1.71289 8.91083 2.16302 9.02639L9.49834 10.9096C9.94846 11.0252 10.407 10.754 10.5226 10.3038C10.6381 9.85372 10.367 9.39512 9.91682 9.27956L3.39655 7.60561L5.0705 1.08534C5.18606 0.635204 4.91483 0.176621 4.4647 0.0610582C4.01458 -0.0545047 3.55603 0.216715 3.44042 0.666843L1.55722 8.00216ZM21.2748 22.8561C23.4884 18.644 22.5529 12.5235 19.1579 8.60644C17.4374 6.62132 15.0646 5.17415 12.1204 4.82469C9.18172 4.47588 5.75977 5.23031 1.9439 7.48713L2.80062 8.93562C6.38083 6.81822 9.43455 6.20064 11.9221 6.49588C14.4042 6.79051 16.4083 8.00351 17.8862 9.7087C20.888 13.1722 21.6353 18.5525 19.7851 22.0732L21.2748 22.8561Z" fill="#14183E"/>
</g>
</g>
</g>
<defs>
<clipPath id="clip0_17_3938">
<rect width="23" height="23" fill="white" transform="matrix(-1 0 0 1 23.4502 0)"/>
</clipPath>
<clipPath id="clip1_17_3938">
<rect width="23" height="23" fill="white" transform="matrix(-1 0 0 1 23.4502 0)"/>
</clipPath>
<clipPath id="clip2_17_3938">
<rect width="21.878" height="23" fill="white" transform="matrix(-1 0 0 1 22.8892 0)"/>
</clipPath>
</defs>
</svg>
