<svg width="31" height="30" viewBox="0 0 31 30" fill="none" xmlns="http://www.w3.org/2000/svg">
<g clip-path="url(#clip0_17_1868)">
<g clip-path="url(#clip1_17_1868)">
<path d="M28.7157 10.4376C28.8665 11.0247 28.5127 11.6228 27.9256 11.7735L18.3578 14.23C17.7706 14.3807 17.1725 14.0269 17.0218 13.4398C16.8711 12.8527 17.2248 12.2545 17.8119 12.1038L26.3166 9.92035L24.1332 1.41565C23.9825 0.828518 24.3362 0.230367 24.9234 0.0796319C25.5105 -0.0711023 26.1086 0.282662 26.2594 0.869786L28.7157 10.4376ZM2.99719 29.8123C0.109803 24.3182 1.33005 16.335 5.75827 11.2258C8.00244 8.63649 11.0974 6.74889 14.9376 6.29307C18.7707 5.83809 23.2341 6.82214 28.2114 9.76581L27.0939 11.6552C22.4241 8.89332 18.441 8.08779 15.1963 8.47288C11.9588 8.85718 9.34473 10.4393 7.41706 12.6635C3.50162 17.1811 2.5269 24.1989 4.9403 28.7911L2.99719 29.8123Z" fill="#14183E"/>
</g>
</g>
<defs>
<clipPath id="clip0_17_1868">
<rect width="30" height="30" fill="white" transform="translate(0.159973)"/>
</clipPath>
<clipPath id="clip1_17_1868">
<rect width="30" height="30" fill="white" transform="translate(0.159973)"/>
</clipPath>
</defs>
</svg>
