<svg width="31" height="30" viewBox="0 0 31 30" fill="none" xmlns="http://www.w3.org/2000/svg">
<g clip-path="url(#clip0_17_2094)">
<g clip-path="url(#clip1_17_2094)">
<path d="M28.7156 10.4376C28.8664 11.0247 28.5126 11.6228 27.9255 11.7735L18.3576 14.23C17.7705 14.3807 17.1724 14.0269 17.0217 13.4398C16.871 12.8527 17.2247 12.2545 17.8118 12.1038L26.3165 9.92035L24.1331 1.41565C23.9824 0.828518 24.3361 0.230367 24.9233 0.0796319C25.5104 -0.0711023 26.1085 0.282662 26.2593 0.869786L28.7156 10.4376ZM2.99709 29.8123C0.109696 24.3182 1.32994 16.335 5.75816 11.2258C8.00233 8.63649 11.0973 6.74889 14.9375 6.29307C18.7706 5.83809 23.234 6.82214 28.2113 9.76581L27.0938 11.6552C22.424 8.89332 18.4408 8.08779 15.1962 8.47288C11.9586 8.85718 9.34462 10.4393 7.41695 12.6635C3.50152 17.1811 2.52679 24.1989 4.94019 28.7911L2.99709 29.8123Z" fill="#14183E"/>
</g>
</g>
<defs>
<clipPath id="clip0_17_2094">
<rect width="30" height="30" fill="white" transform="translate(0.159912)"/>
</clipPath>
<clipPath id="clip1_17_2094">
<rect width="30" height="30" fill="white" transform="translate(0.159912)"/>
</clipPath>
</defs>
</svg>
