<svg width="56" height="55" viewBox="0 0 56 55" fill="none" xmlns="http://www.w3.org/2000/svg">
<g clip-path="url(#clip0_17_4951)">
<g clip-path="url(#clip1_17_4951)">
<g clip-path="url(#clip2_17_4951)">
<path d="M-13.4199 0H69.0801V55H-13.4199V0Z" fill="white"/>
<path d="M29.031 46.4513C29.0189 46.4462 29.0081 46.4385 28.9992 46.4289L28.9877 46.4181C28.9368 46.3705 28.8884 46.3202 28.8427 46.2675C28.7206 46.1288 28.5568 45.9258 28.4128 45.7464C28.1273 45.3905 27.8913 45.0838 27.8469 45.0261L27.7742 44.9315L27.0622 44.7119L26.5424 44.4696L26.8201 44.1574L27.7742 44.5658L28.4861 44.7119L29.8028 45.6803L29.8017 45.6811C29.7991 45.6833 29.6103 45.8404 29.4226 46.0111C29.3389 46.0872 29.2334 46.1853 29.1589 46.2662C29.1282 46.2991 29.0997 46.3341 29.0736 46.3707C29.058 46.3968 29.0437 46.4237 29.031 46.4514M24.1415 44.9829C23.4992 44.977 22.8699 44.8009 22.3178 44.4726H22.3172V44.4719C22.3844 44.3598 22.4742 44.263 22.581 44.1877C22.7589 44.0571 23.0798 43.901 23.5985 43.8989H23.6092C24.2234 43.8989 24.975 44.1078 25.8434 44.5196C25.3286 44.8255 24.7403 44.9856 24.1415 44.9829ZM21.4493 44.3862C21.395 44.3872 21.3411 44.3769 21.291 44.3558C21.241 44.3348 21.1959 44.3035 21.1587 44.264C21.0937 44.1884 21.0489 44.0976 21.0285 44.0001C20.9991 43.8734 20.9883 43.7432 20.9963 43.6135C21.0416 43.5939 21.0902 43.5829 21.1395 43.581H21.1498C21.38 43.581 21.5614 43.7807 21.6391 43.9786C21.6815 44.0661 21.6904 44.1661 21.6642 44.2597C21.6451 44.2997 21.6145 44.3331 21.5762 44.3554C21.538 44.3778 21.4939 44.3882 21.4497 44.3853L21.4493 44.3862ZM26.1866 43.8371C24.5954 43.6098 23.9209 43.0345 23.6352 42.592C23.4544 42.3234 23.3693 42.0018 23.3938 41.679V41.6777H23.395C23.4749 41.6593 23.5567 41.6503 23.6386 41.6508C24.0619 41.6508 25.1447 41.8638 26.187 43.8363L26.1876 43.8376L26.1858 43.8367L26.1866 43.8371ZM22.9251 43.5217C22.2453 43.5217 21.7277 43.4044 21.3867 43.1734C21.2418 43.0805 21.1249 42.9498 21.0489 42.7953C21.0211 42.7367 21.0027 42.6741 20.9944 42.6098C21.221 42.518 21.4619 42.4668 21.7062 42.4586C21.7413 42.4569 21.7767 42.4559 21.8138 42.4558C22.3393 42.4558 23.1382 42.6273 23.9814 43.444L23.9822 43.4448H23.9812C23.6309 43.4931 23.2779 43.5188 22.9243 43.5218L22.9251 43.5217ZM19.6333 43.3952C18.9165 43.3952 17.9317 43.1763 17.3176 42.5623L17.3169 42.5615H17.3188C17.7856 42.4512 18.2623 42.3879 18.7417 42.3725C18.7864 42.3714 18.8315 42.3709 18.8769 42.3708C19.549 42.3708 20.0634 42.5011 20.4061 42.7581C20.5018 42.8156 20.5729 42.9064 20.6057 43.0132C20.6095 43.0518 20.6024 43.0906 20.5853 43.1254C20.5682 43.1603 20.5418 43.1896 20.5089 43.2103C20.3547 43.3268 20.0788 43.3889 19.689 43.3951L19.634 43.397L19.6333 43.3952ZM17.3105 42.2036C17.2671 42.2036 17.2242 42.1941 17.1849 42.1756C17.1456 42.1571 17.1109 42.1301 17.0833 42.0966C17.0316 42.0287 16.9967 41.9494 16.9817 41.8654C16.9583 41.7548 16.9494 41.6416 16.955 41.5286V41.527C16.99 41.5108 17.0281 41.5022 17.0666 41.5018C17.1565 41.505 17.2416 41.5431 17.3039 41.6079C17.3733 41.6759 17.4262 41.7588 17.4586 41.8504C17.4911 41.9268 17.4969 42.0118 17.4751 42.0919C17.4621 42.1249 17.4393 42.1532 17.4099 42.173C17.3804 42.1928 17.3456 42.2032 17.3101 42.2028L17.3105 42.2036ZM22.6758 42.0826C22.6215 42.0836 22.5676 42.0733 22.5175 42.0522C22.4675 42.0312 22.4224 41.9999 22.3852 41.9604C22.3202 41.8848 22.2754 41.7941 22.2548 41.6966C22.2255 41.5699 22.2146 41.4397 22.2227 41.31C22.268 41.2904 22.3165 41.2794 22.3658 41.2776H22.3761C22.6063 41.2776 22.7877 41.4772 22.8654 41.6751C22.9078 41.7626 22.9167 41.8626 22.8905 41.9563C22.8715 41.9963 22.8408 42.0296 22.8026 42.052C22.7643 42.0744 22.7203 42.0848 22.676 42.0818L22.6758 42.0826ZM20.0623 41.9744C18.6198 41.9236 17.8715 41.5136 17.4971 41.1785C17.3371 41.0382 17.2052 40.8687 17.1085 40.6792C17.0725 40.608 17.0446 40.533 17.0252 40.4557L17.0272 40.4548C17.1426 40.4198 17.2626 40.402 17.3833 40.4018H17.417C17.9035 40.4018 18.8939 40.6061 20.0618 41.9741V41.975L20.0623 41.9744ZM21.6289 41.8287C20.4683 41.6519 19.8108 41.1537 19.4636 40.7667C19.2493 40.5366 19.0864 40.2636 18.9857 39.9657C19.103 39.9388 19.2229 39.9244 19.3432 39.9227C19.3587 39.9227 19.3748 39.9221 19.3913 39.9221C19.4077 39.9221 19.4247 39.9221 19.4419 39.9227C20.0257 39.9355 21.0859 40.1998 21.6287 41.828H21.6296L21.6289 41.8287ZM15.6706 41.2713C15.3012 41.2725 14.933 41.2284 14.5743 41.1401C13.9666 40.9881 13.7059 40.7561 13.5943 40.5881C13.5462 40.5185 13.5139 40.4392 13.4997 40.3558C13.4947 40.3233 13.4937 40.2903 13.4969 40.2575L13.4997 40.2565C13.8136 40.1786 14.1356 40.1378 14.4589 40.1347C14.4809 40.1347 14.5029 40.1342 14.5254 40.1342C14.7889 40.1337 15.0519 40.1592 15.3104 40.2103C15.8968 40.3329 16.4193 40.6629 16.782 41.1398V41.1406H16.7808C16.4172 41.2295 16.044 41.2732 15.6698 41.2708L15.6706 41.2713ZM18.3647 40.2923C18.3106 40.2938 18.2568 40.2839 18.2067 40.2634C18.1567 40.2429 18.1114 40.2121 18.0739 40.1732C18.0087 40.0967 17.9639 40.005 17.9437 39.9066C17.9143 39.781 17.9035 39.6517 17.9116 39.523C17.9569 39.5033 18.0054 39.4923 18.0548 39.4905H18.065C18.2947 39.4905 18.4764 39.6903 18.5544 39.8882C18.5959 39.9749 18.6039 40.074 18.5767 40.1663C18.5585 40.2065 18.5285 40.2401 18.4907 40.2627C18.4528 40.2853 18.4089 40.2958 18.365 40.2928L18.3647 40.2923ZM16.3388 40.0146C15.9532 39.9054 15.5841 39.7443 15.2419 39.5356C14.7337 39.2228 14.112 38.6694 14.0362 37.8095H14.0375C14.076 37.8013 14.1152 37.7966 14.1546 37.7954C14.1638 37.7954 14.1745 37.7949 14.1852 37.7949C14.337 37.7949 14.6478 37.8376 15.0237 38.1234C15.5022 38.4882 15.944 39.1244 16.3391 40.0163L16.3388 40.0146ZM17.6616 39.966C17.3468 39.823 17.0545 39.6351 16.7936 39.4083C16.1194 38.828 15.594 38.0947 15.2613 37.2697C15.3659 37.2207 15.481 37.1981 15.5963 37.2039C15.8174 37.2101 16.154 37.302 16.5271 37.7047C16.9558 38.1673 17.3384 38.9275 17.6638 39.9643L17.6647 39.9673L17.662 39.9664L17.6616 39.966ZM14.2342 39.8661C13.7923 39.8661 13.641 39.6264 13.5965 39.5232C13.5521 39.4158 13.5347 39.2991 13.5457 39.1834V39.1816C13.6177 39.1636 13.6915 39.154 13.7657 39.1528H13.7808C13.9233 39.1493 14.0646 39.1794 14.1933 39.2405C14.322 39.3017 14.4346 39.3922 14.5218 39.5049C14.5452 39.5396 14.6169 39.6602 14.5576 39.7543C14.5099 39.8286 14.4017 39.8662 14.234 39.8662L14.2342 39.8661ZM13.2552 38.6312C12.9129 38.632 12.5711 38.6028 12.2339 38.544C11.8403 38.4724 11.6172 38.1377 11.4994 37.8697C11.4202 37.6864 11.3647 37.4937 11.3344 37.2964H11.3355C12.553 37.3321 13.128 37.6879 13.396 37.9799C13.562 38.1527 13.6655 38.3761 13.6899 38.6145H13.689C13.6872 38.6145 13.5158 38.631 13.2545 38.631L13.2552 38.6312ZM14.5229 37.3644C14.4241 37.2398 14.3313 37.1104 14.2449 36.9768C14.1007 36.7527 13.9673 36.5185 13.9673 36.3275C13.9673 36.1427 13.9239 35.7531 13.8979 35.5374C13.8651 35.2638 13.8319 35.0296 13.8292 35.0097H13.8304C13.8613 35.0209 14.592 35.2951 14.592 35.9805C14.592 36.6659 14.5243 37.3568 14.5237 37.3637V37.3647H14.5227L14.5229 37.3644ZM13.576 37.2993C13.5683 37.2993 13.5607 37.2986 13.5531 37.2974C13.3371 37.2614 12.9573 37.0963 12.5381 36.8557C12.0722 36.5886 11.6939 36.3024 11.4729 36.0499C11.2712 35.8196 11.1521 35.458 11.1172 34.975C11.1019 34.7563 11.1045 34.5367 11.1252 34.3184C11.1641 34.3058 11.2048 34.2996 11.2458 34.3001C11.4075 34.3027 11.5801 34.3755 11.8131 34.536C12.0255 34.6872 12.2245 34.8563 12.408 35.0415C12.641 35.273 12.8613 35.5169 13.068 35.7721L13.0709 35.7758C13.0952 35.8194 13.3035 36.1948 13.4657 36.5603C13.5469 36.7285 13.6091 36.9051 13.6513 37.087C13.6672 37.1403 13.6672 37.197 13.6513 37.2503C13.6445 37.2675 13.632 37.282 13.616 37.2913C13.6032 37.2968 13.5895 37.2997 13.5756 37.2996L13.576 37.2993Z" fill="#4E5B31"/>
<path d="M26.6291 46.4513C26.6412 46.4462 26.6521 46.4385 26.661 46.4289L26.6724 46.4181C26.7234 46.3705 26.7718 46.3202 26.8174 46.2675C26.9395 46.1288 27.1033 45.9258 27.2473 45.7464C27.5329 45.3905 27.7688 45.0838 27.8133 45.0261L27.886 44.9315L28.598 44.7119L29.1178 44.4696L28.8401 44.1574L27.886 44.5658L27.174 44.7119L25.8574 45.6803L25.8584 45.6811C25.8611 45.6833 26.0499 45.8404 26.2375 46.0111C26.3212 46.0872 26.4267 46.1853 26.5013 46.2662C26.532 46.2991 26.5605 46.3341 26.5865 46.3707C26.6022 46.3968 26.6164 46.4237 26.6291 46.4514M31.5186 44.9829C32.161 44.977 32.7903 44.8009 33.3424 44.4726H33.343V44.4719C33.2758 44.3598 33.1859 44.263 33.0792 44.1877C32.9013 44.0571 32.5803 43.901 32.0617 43.8989H32.051C31.4368 43.8989 30.6851 44.1078 29.8168 44.5196C30.3316 44.8255 30.9198 44.9856 31.5186 44.9829ZM34.2109 44.3862C34.2652 44.3872 34.3191 44.3769 34.3691 44.3558C34.4192 44.3348 34.4643 44.3035 34.5015 44.264C34.5664 44.1884 34.6112 44.0976 34.6316 44.0001C34.661 43.8734 34.6718 43.7432 34.6638 43.6135C34.6185 43.5939 34.57 43.5829 34.5206 43.581H34.5104C34.2802 43.581 34.0988 43.7807 34.0211 43.9786C33.9787 44.0661 33.9698 44.1661 33.9959 44.2597C34.015 44.2997 34.0457 44.3331 34.0839 44.3554C34.1222 44.3778 34.1662 44.3882 34.2104 44.3853L34.2109 44.3862ZM29.4736 43.8371C31.0648 43.6098 31.7393 43.0345 32.0249 42.592C32.2058 42.3234 32.2908 42.0018 32.2664 41.679V41.6777H32.2652C32.1852 41.6593 32.1035 41.6503 32.0215 41.6508C31.5982 41.6508 30.5154 41.8638 29.4732 43.8363L29.4726 43.8376L29.4744 43.8367L29.4736 43.8371ZM32.7351 43.5217C33.4149 43.5217 33.9324 43.4044 34.2734 43.1734C34.4184 43.0805 34.5352 42.9498 34.6113 42.7953C34.639 42.7367 34.6574 42.6741 34.6657 42.6098C34.4392 42.518 34.1983 42.4668 33.954 42.4586C33.9188 42.4569 33.8835 42.4559 33.8463 42.4558C33.3209 42.4558 32.5219 42.6273 31.6788 43.444L31.678 43.4448H31.679C32.0293 43.4931 32.3823 43.5188 32.7359 43.5218L32.7351 43.5217ZM36.0268 43.3952C36.7436 43.3952 37.7284 43.1763 38.3426 42.5623L38.3432 42.5615H38.3414C37.8746 42.4512 37.3979 42.3879 36.9185 42.3725C36.8737 42.3714 36.8286 42.3709 36.7832 42.3708C36.1111 42.3708 35.5967 42.5011 35.2541 42.7581C35.1583 42.8156 35.0872 42.9064 35.0544 43.0132C35.0507 43.0518 35.0577 43.0906 35.0748 43.1254C35.0919 43.1603 35.1184 43.1896 35.1512 43.2103C35.3055 43.3268 35.5813 43.3889 35.9712 43.3951L36.0262 43.397L36.0268 43.3952ZM38.3496 42.2036C38.3931 42.2036 38.436 42.1941 38.4753 42.1756C38.5146 42.1571 38.5493 42.1301 38.5769 42.0966C38.6286 42.0287 38.6634 41.9494 38.6785 41.8654C38.7018 41.7548 38.7108 41.6416 38.7051 41.5286V41.527C38.6701 41.5108 38.6321 41.5022 38.5936 41.5018C38.5037 41.505 38.4186 41.5431 38.3562 41.6079C38.2869 41.6759 38.2339 41.7588 38.2015 41.8504C38.169 41.9268 38.1632 42.0118 38.185 42.0919C38.1981 42.1249 38.2208 42.1532 38.2503 42.173C38.2797 42.1928 38.3145 42.2032 38.35 42.2028L38.3496 42.2036ZM32.9844 42.0826C33.0387 42.0836 33.0926 42.0733 33.1426 42.0522C33.1927 42.0312 33.2378 41.9999 33.275 41.9604C33.34 41.8848 33.3848 41.7941 33.4053 41.6966C33.4347 41.5699 33.4455 41.4397 33.4375 41.31C33.3922 41.2904 33.3436 41.2794 33.2943 41.2776H33.2841C33.0539 41.2776 32.8725 41.4772 32.7947 41.6751C32.7524 41.7626 32.7434 41.8626 32.7696 41.9563C32.7887 41.9963 32.8193 42.0296 32.8576 42.052C32.8958 42.0744 32.9399 42.0848 32.9841 42.0818L32.9844 42.0826ZM35.5978 41.9744C37.0404 41.9236 37.7886 41.5136 38.163 41.1785C38.3231 41.0382 38.455 40.8687 38.5517 40.6792C38.5877 40.608 38.6156 40.533 38.6349 40.4557L38.633 40.4548C38.5175 40.4198 38.3975 40.402 38.2769 40.4018H38.2431C37.7567 40.4018 36.7663 40.6061 35.5984 41.9741V41.975L35.5978 41.9744ZM34.0312 41.8287C35.1918 41.6519 35.8493 41.1537 36.1966 40.7667C36.4109 40.5366 36.5738 40.2636 36.6744 39.9657C36.5571 39.9388 36.4373 39.9244 36.3169 39.9227C36.3014 39.9227 36.2853 39.9221 36.2689 39.9221C36.2525 39.9221 36.2354 39.9221 36.2182 39.9227C35.6345 39.9355 34.5743 40.1998 34.0315 41.828H34.0306L34.0312 41.8287ZM39.9896 41.2713C40.359 41.2725 40.7272 41.2284 41.0859 41.1401C41.6936 40.9881 41.9543 40.7561 42.0659 40.5881C42.114 40.5185 42.1462 40.4392 42.1604 40.3558C42.1655 40.3233 42.1664 40.2903 42.1633 40.2575L42.1604 40.2565C41.8465 40.1786 41.5246 40.1378 41.2012 40.1347C41.1793 40.1347 41.1572 40.1342 41.1348 40.1342C40.8712 40.1337 40.6083 40.1592 40.3497 40.2103C39.7633 40.3329 39.2408 40.6629 38.8782 41.1398V41.1406H38.8794C39.243 41.2295 39.6161 41.2732 39.9904 41.2708L39.9896 41.2713ZM37.2955 40.2923C37.3496 40.2938 37.4034 40.2839 37.4534 40.2634C37.5035 40.2429 37.5487 40.2121 37.5862 40.1732C37.6514 40.0967 37.6962 40.005 37.7164 39.9066C37.7458 39.781 37.7567 39.6517 37.7486 39.523C37.7033 39.5033 37.6547 39.4923 37.6054 39.4905H37.5951C37.3654 39.4905 37.1837 39.6903 37.1057 39.8882C37.0642 39.9749 37.0563 40.074 37.0835 40.1663C37.1016 40.2065 37.1316 40.2401 37.1695 40.2627C37.2073 40.2853 37.2512 40.2958 37.2952 40.2928L37.2955 40.2923ZM39.3213 40.0146C39.707 39.9054 40.076 39.7443 40.4183 39.5356C40.9265 39.2228 41.5482 38.6694 41.624 37.8095H41.6227C41.5841 37.8013 41.5449 37.7966 41.5055 37.7954C41.4964 37.7954 41.4857 37.7949 41.4749 37.7949C41.3231 37.7949 41.0124 37.8376 40.6365 38.1234C40.158 38.4882 39.7161 39.1244 39.321 40.0163L39.3213 40.0146ZM37.9986 39.966C38.3133 39.823 38.6057 39.6351 38.8666 39.4083C39.5408 38.828 40.0662 38.0947 40.3989 37.2697C40.2942 37.2207 40.1792 37.1981 40.0638 37.2039C39.8428 37.2101 39.5062 37.302 39.133 37.7047C38.7044 38.1673 38.3218 38.9275 37.9964 39.9643L37.9954 39.9673L37.9982 39.9664L37.9986 39.966ZM41.426 39.8661C41.8679 39.8661 42.0192 39.6264 42.0637 39.5232C42.1081 39.4158 42.1255 39.2991 42.1145 39.1834V39.1816C42.0425 39.1636 41.9687 39.154 41.8945 39.1528H41.8794C41.7369 39.1493 41.5956 39.1794 41.4669 39.2405C41.3381 39.3017 41.2256 39.3922 41.1383 39.5049C41.115 39.5396 41.0433 39.6602 41.1026 39.7543C41.1502 39.8286 41.2584 39.8662 41.4262 39.8662L41.426 39.8661ZM42.405 38.6312C42.7473 38.632 43.089 38.6028 43.4262 38.544C43.8199 38.4724 44.043 38.1377 44.1608 37.8697C44.24 37.6864 44.2954 37.4937 44.3258 37.2964H44.3247C43.1071 37.3321 42.5321 37.6879 42.2642 37.9799C42.0982 38.1527 41.9947 38.3761 41.9703 38.6145H41.9711C41.973 38.6145 42.1444 38.631 42.4056 38.631L42.405 38.6312ZM41.1372 37.3644C41.2361 37.2398 41.3289 37.1104 41.4153 36.9768C41.5594 36.7527 41.6928 36.5185 41.6928 36.3275C41.6928 36.1427 41.7363 35.7531 41.7622 35.5374C41.795 35.2638 41.8282 35.0296 41.831 35.0097H41.8298C41.7989 35.0209 41.0682 35.2951 41.0682 35.9805C41.0682 36.6659 41.1359 37.3568 41.1365 37.3637V37.3647H41.1374L41.1372 37.3644ZM42.0841 37.2993C42.0918 37.2993 42.0995 37.2986 42.1071 37.2974C42.323 37.2614 42.7029 37.0963 43.1221 36.8557C43.5879 36.5886 43.9662 36.3024 44.1873 36.0499C44.3889 35.8196 44.5081 35.458 44.5429 34.975C44.5583 34.7563 44.5556 34.5367 44.5349 34.3184C44.496 34.3058 44.4553 34.2996 44.4144 34.3001C44.2527 34.3027 44.0801 34.3755 43.8471 34.536C43.6347 34.6872 43.4357 34.8563 43.2522 35.0415C43.0191 35.273 42.7988 35.5169 42.5922 35.7721L42.5892 35.7758C42.5649 35.8194 42.3567 36.1948 42.1944 36.5603C42.1133 36.7285 42.0511 36.9051 42.0089 37.087C41.9929 37.1403 41.9929 37.197 42.0089 37.2503C42.0157 37.2675 42.0281 37.282 42.0442 37.2913C42.0569 37.2968 42.0707 37.2997 42.0845 37.2996L42.0841 37.2993Z" fill="#4E5B31"/>
<path d="M53.2338 9.53043L53.0179 9.61641L52.9333 9.65015L52.6717 9.63575L52.4267 9.75336L51.9921 10.0503L51.973 10.064L51.811 10.1063L51.6606 10.0414L51.5752 10.0802L51.5457 10.2562L51.4644 10.3827L51.3643 10.453L51.0176 10.4884L50.7251 10.6392L50.3447 10.5374L50.168 10.6066L49.7921 10.945L49.6001 11.036L49.533 11.0321L49.2784 11.019L49.1708 11.0542L49.0102 11.2094L48.7064 11.233L48.6117 11.2986L48.4633 11.5974L48.3027 11.7632L48.211 11.7826L48.1113 11.7459L48.0365 11.7591L48.0025 11.9503L47.9298 12.0305L47.7264 12.1005L47.5639 12.2359L47.4213 12.3092L47.2302 12.3044H47.1863L46.996 12.4095L46.6385 12.4408L46.4897 12.5828L46.4569 12.6132L46.3874 12.6552L46.2737 12.723L46.2462 12.7399L46.1087 12.7154L45.9483 12.7789L45.8834 12.6791L45.7724 12.7457L45.6257 12.7521L45.4424 12.6706L45.3029 12.6084L45.2008 12.6232L45.1654 12.801L45.1618 12.8199L45.0545 12.9626L44.8543 13.0839L44.8268 13.1194L44.599 13.4134L44.1662 13.8686L43.8002 14.0545L43.4208 14.17L43.1549 14.3881L42.4583 14.7334L41.3587 15.281L41.1339 15.353L40.8112 15.4045L40.2357 15.6165L39.728 15.7696L39.6997 15.7782L39.5989 15.8087L38.883 16.0253L38.5498 15.9901L38.3524 16.0618L37.8386 16.0048L37.4811 16.0118L37.255 16.0588L36.8299 16.2627L36.1125 16.6076L35.8754 16.8244L35.5063 17.0169L35.0741 17.1538L35.0751 16.9722L35.0725 16.9645L34.9225 17.0119L34.8143 17.0461L34.4636 17.1002H34.2686L34.1475 17.065L34.1292 17.0713L33.4125 17.3068L32.6133 17.384L32.2133 17.5123L31.9145 17.5075L31.7277 17.5631L31.361 17.6079L31.2301 17.573L31.2006 17.5649L30.1235 17.6117L29.6311 17.556L29.396 17.6095L29.0019 17.4769L28.4272 17.4103L28.2929 17.37L27.9904 17.2804L27.8537 17.3591L27.7514 17.37L27.507 17.2814L27.419 17.2792L27.2173 17.3525L27.1012 17.3227L26.9933 17.2368L26.7402 17.1991L26.586 17.0695L25.7243 17.1837L25.4905 17.1149L24.7064 16.8865L24.5816 16.8928L24.4258 17.0093L24.1922 17.0945L23.9894 17.1472L23.7133 17.1564L23.3925 17.0722L23.062 16.912L22.9398 16.8829L22.6672 16.9104L22.5837 16.9179L22.0827 16.6492L21.4372 16.2458L20.9992 16.035L20.8347 16.0083L20.8126 16.0865L20.8942 16.3432L20.9217 16.5975L20.9134 16.8324L20.9089 16.9779L20.9498 17.1085L21.1079 17.2838L21.1738 17.4598L21.222 17.9441L21.2215 18.4357L21.1446 19.2195L21.1186 19.3387L21.027 19.7448L20.9432 20.1177L20.6181 21.1108L20.5288 21.2339L20.3097 21.3834L19.8129 21.7215L19.4472 21.9323L19.3314 21.9802L19.0345 22.0027L18.8495 21.9935L18.6192 21.8688L18.393 21.8106L18.0967 21.5975L17.7667 21.5293L17.4055 21.3205L17.3114 21.2075L17.1147 21.1891L16.8419 21.1073V21.1068L16.7417 21.0769L16.6725 21.0567L16.3242 21.0475L15.9997 20.8977L15.8288 20.8565L15.5953 20.8447L15.351 20.9582L15.2271 21.0159L15.0706 20.9537L14.9574 20.9608L14.8291 21.1547L14.8133 21.1843L14.725 21.231L14.615 21.2295L14.5289 21.2272L14.4358 21.2679L14.3104 21.3222L14.1996 21.3706L14.1455 21.3939L14.1446 21.393L14.1114 21.3997L14.0522 21.41L13.9789 21.424L13.8496 21.3485L13.7809 21.3079L13.6657 21.2845L13.6036 21.3293L13.5914 21.5401L13.5348 21.6665L13.355 21.8254L13.1723 21.9863L13.045 22.1739L12.708 22.943L12.4972 23.2533L12.4317 23.3256L12.21 23.5695L12.0142 23.7213L11.563 24.0711L11.1359 24.2306L10.7681 24.3058L10.5892 24.3065L10.2501 24.2614L9.94547 24.1679L9.61089 23.9588L9.24422 23.6639L8.71311 23.1392L8.63794 23.094L8.62226 23.0835L8.45497 22.9766L8.33086 22.9798L8.28227 23.0599L8.25569 23.1757L8.23323 23.2783L8.17236 23.862L8.17686 23.8958L8.20885 24.1361L8.61218 24.6999L8.73666 24.9994L8.75711 25.0336L8.84034 25.1733L8.90368 25.28L8.91001 25.2908L9.04751 25.7022L8.95061 25.9345L8.99956 26.0903L8.8771 26.1853L8.85464 26.3196L9.21681 26.7737L9.29583 26.974L9.20755 27.2516L9.06676 27.4048L9.02743 27.4467L9.04723 27.564L9.21388 27.7139L9.49704 27.966L9.64801 28.3405L9.76287 28.4414L9.89634 28.4129L9.97059 28.4696L10.0832 28.4677L10.1939 28.5784L10.2656 28.6131L10.3789 28.6696L10.4684 28.7862L10.4882 29.1447L10.6552 29.5902L10.6578 29.8318L10.6587 29.866L10.7627 30.0446L10.7953 30.1856L10.7403 30.5586L10.8728 30.6783L11.0164 30.649L11.1092 30.6636L11.2582 30.7877L11.4387 31.0627L11.6153 31.0369L11.7273 31.0909L12.2681 31.5798L12.3909 31.6418L12.3976 31.6457L12.4859 31.6899L12.5959 31.8007L12.7661 31.6877L12.7849 31.6858L12.9699 31.6695L13.0511 31.7245L13.207 31.8298L13.4118 31.8272L13.8558 31.9633L14.05 32.0131L14.4406 32.2558L14.6066 32.3585L14.7049 32.4383L14.8354 32.5447L15.0962 32.6569L15.3199 32.7105L15.4411 32.7392L15.5327 32.7744L15.535 32.7688H15.5363L15.5341 32.7745L16.0185 32.96L16.2808 33.0212L16.5236 33.1106L16.7002 33.1747L16.8298 33.1769L17.0132 33.0227L17.1907 33.0124L17.3382 33.0491L17.4821 33.025L17.7099 32.8846L17.7544 32.8187L17.9159 32.7418L18.4608 32.6742L18.62 32.7259L19.0288 32.548L19.3027 32.6242L19.5452 32.5382L20.0749 32.6559L20.2157 32.755L20.3731 32.9351L20.3924 32.936L20.5676 32.9393L20.4943 33.0614L20.7256 33.304L20.9345 33.6198L20.9486 33.6615L21.1005 34.1074L21.2134 34.2653L21.2924 34.4858L21.2963 34.6295L21.1734 34.7232L21.1533 34.7766L21.1463 34.7964L21.1712 34.8565L21.2176 34.8312L21.3059 34.7823L21.4133 34.7656L21.6027 34.7858L21.7278 34.7989L21.9252 34.7009L22.056 34.6358L22.2662 34.7263L22.4972 34.7237L22.5942 34.7669L22.8692 34.8914L23.0093 34.9046L23.0611 34.8706L23.0941 34.7921L23.0772 34.7004L22.9717 34.5795L22.7397 34.3102L22.6447 34.1718L22.5724 33.9714L22.55 33.7151L22.5341 33.5423L22.5628 33.3153L22.6252 33.2342L22.671 33.0538H22.6718L22.6837 33.0066L22.8125 32.8356L23.1539 32.6162L23.5206 32.2879L23.8104 32.0967L24.1093 31.9673L24.1172 31.9306L24.1505 31.944L24.9106 31.6856L24.9232 31.6842L25.2616 31.6252L27.5459 31.7861L27.6306 31.7605V31.76L27.7067 31.5464L27.7477 31.5068L27.7752 31.4809L28.0264 31.3704L28.1438 31.3536L28.4697 31.4341L28.6032 31.467L28.817 31.3472L28.9686 31.3498L29.2818 31.1787L29.4753 31.1836L29.5487 31.1541L29.9256 30.8833L30.2887 30.7792L30.3831 30.729L30.4164 30.7107L30.7885 30.5141L31.025 30.3325L31.229 30.2241L31.4525 30.1664L32.0373 30.1253L32.1549 29.9293L32.4065 29.8957L32.5584 29.7243L32.7325 29.6536L32.8571 29.4742L32.9615 29.3237L33.1073 29.2393L33.5749 29.21L34.129 29.2786L34.2023 29.2342L34.3275 28.7873L34.4586 28.7034L34.8116 28.189L34.8128 28.0015V27.845L34.8708 27.622L34.8314 27.2195L34.8782 26.812L35.0976 26.2941L35.2909 26.0852L35.6026 25.8743L35.7611 25.8053L35.9856 25.7675V25.7676L36.0186 25.762L36.0758 25.7522L36.8488 25.7416C36.8595 25.7336 37.13 25.7377 37.13 25.7377L37.3877 25.7343L38.04 25.8501L38.0864 25.8582L38.3064 25.9296L38.5607 26.1273L38.83 26.3903L38.8805 26.4394L39.0547 26.5127L39.1074 26.5357L39.2514 26.5127L39.4565 26.4059L39.6112 26.2751L39.822 26.1599L39.8272 26.1525L39.9459 25.974L39.9494 25.9703L39.952 25.9709V25.9699H39.95L39.9968 25.8989L40.4045 25.74L40.8839 25.7125L40.9378 25.6834L40.9678 25.6673L41.0944 25.5186L41.2132 25.5176L41.5005 25.6216L41.7022 25.5814L41.8626 25.6456L41.9873 25.6309L42.2224 25.6034L42.4749 25.7809L42.622 25.7992L43.1406 26.1027L43.1676 26.1071L43.1815 26.1096L43.2112 26.1146L43.2727 26.0962L43.3644 26.0698L43.3765 26.0662L43.388 26.0822L43.447 26.1654L43.5278 26.1769L43.6235 26.0492L43.5855 25.9913L43.5711 25.9702L43.3858 25.9325L43.2195 25.6484L43.3779 25.4778L43.1294 25.1729L43.0881 25.1224L43.0741 25.1009L42.9882 24.9705L42.5531 24.3073L41.9865 23.8549L41.788 23.6961L41.7867 23.6952L41.7172 23.6402L41.4147 23.3324L41.1986 23.0455L41.1703 22.9837L41.1256 22.8864L40.9961 22.6042L40.7704 22.43L40.5865 22.2292L40.5774 22.2174L40.1979 21.7017L40.1355 21.6152L40.0459 21.5634L39.8565 21.5621L39.8382 21.5438L39.8275 21.5327L39.8339 21.5259L39.9248 21.4356L40.0261 21.4102L40.0697 21.3103L39.8765 20.7512L39.8752 20.7316L39.8608 20.5529L40.0183 19.7412L40.0384 19.6423L40.3069 19.0961L40.4731 18.9599L40.6546 18.6031L40.8105 18.3751L40.9594 18.2301L40.9855 18.2147L41.2544 18.0519L41.4804 18.02L41.6956 17.9897L42.0714 18.1056L42.4289 18.0986L42.4987 18.0912L42.6609 18.0728L42.9278 17.9888L43.0537 17.9111L43.1191 17.8109L43.2554 17.3537L43.2992 17.2082L43.3833 17.0502L43.8697 16.4903L44.2373 16.1502L45.0641 15.544L45.4688 15.3021L45.6754 15.1787L47.5203 14.3586L47.9997 13.8728L48.2495 13.62L48.6914 13.3234L49.2085 13.1116L49.6535 12.7594L49.7506 12.6371L49.8731 12.2429L49.9751 12.2183L50.0668 12.019L50.093 11.9623L50.4561 11.7064L50.4972 11.686L51.9077 10.9792L52.1127 11.0074L52.2227 10.843L52.6331 10.7742L52.7086 10.7613L52.8094 10.7108L52.8955 10.5642V10.5352L52.9073 10.1435L52.995 10.0376L53.0427 9.77949L53.0877 9.7199L53.1348 9.65794L53.251 9.57626L53.2308 9.52759L53.2338 9.53043Z" fill="#D57800"/>
</g>
</g>
</g>
<rect x="0.830078" y="0.5" width="54" height="54" rx="27" stroke="#EBEBEB"/>
<defs>
<clipPath id="clip0_17_4951">
<rect x="0.330078" width="55" height="55" rx="27.5" fill="white"/>
</clipPath>
<clipPath id="clip1_17_4951">
<rect width="55" height="55" fill="white" transform="translate(0.330078)"/>
</clipPath>
<clipPath id="clip2_17_4951">
<rect width="82.5" height="55" fill="white" transform="translate(-13.4199)"/>
</clipPath>
</defs>
</svg>
