<svg width="201" height="25" viewBox="0 0 201 25" fill="none" xmlns="http://www.w3.org/2000/svg">
<g clip-path="url(#clip0_17_5191)">
<g clip-path="url(#clip1_17_5191)">
<g clip-path="url(#clip2_17_5191)">
<path d="M140.31 0.610107H176.31V24.6101H140.31V0.610107Z" fill="#E30A17"/>
<path d="M157.01 12.6101L162.437 10.8469L159.083 15.4633V9.75691L162.437 14.3733L157.01 12.6101ZM157.38 15.8185C156.685 16.917 155.652 17.76 154.436 18.2207C153.221 18.6814 151.888 18.7348 150.64 18.373C149.391 18.0111 148.294 17.2535 147.513 16.2142C146.732 15.1749 146.31 13.9101 146.31 12.6101C146.31 11.3101 146.732 10.0453 147.513 9.00603C148.294 7.96673 149.391 7.20913 150.64 6.84726C151.888 6.48539 153.221 6.53882 154.436 6.99951C155.652 7.46019 156.685 8.30321 157.38 9.40171C156.731 8.67937 155.878 8.17093 154.934 7.94354C153.99 7.71615 152.999 7.7805 152.092 8.1281C151.185 8.47569 150.405 9.09018 149.855 9.89041C149.305 10.6906 149.01 11.6389 149.01 12.6101C149.01 13.5813 149.305 14.5296 149.855 15.3298C150.405 16.13 151.185 16.7445 152.092 17.0921C152.999 17.4397 153.99 17.5041 154.934 17.2767C155.878 17.0493 156.731 16.5408 157.38 15.8185Z" fill="white"/>
</g>
</g>
</g>
<defs>
<clipPath id="clip0_17_5191">
<rect x="146.31" y="0.610107" width="24" height="24" rx="12" fill="white"/>
</clipPath>
<clipPath id="clip1_17_5191">
<rect width="24" height="24" fill="white" transform="translate(146.31 0.610107)"/>
</clipPath>
<clipPath id="clip2_17_5191">
<rect width="36" height="24" fill="white" transform="translate(140.31 0.610107)"/>
</clipPath>
</defs>
</svg>
