<svg width="200" height="25" viewBox="0 0 200 25" fill="none" xmlns="http://www.w3.org/2000/svg">
<g clip-path="url(#clip0_17_5155)">
<g clip-path="url(#clip1_17_5155)">
<g clip-path="url(#clip2_17_5155)">
<path d="M139.64 0.610107H175.64V24.6101H139.64V0.610107Z" fill="#E30A17"/>
<path d="M156.34 12.6101L161.767 10.8469L158.413 15.4633V9.75691L161.767 14.3733L156.34 12.6101ZM156.71 15.8185C156.015 16.917 154.982 17.76 153.766 18.2207C152.55 18.6814 151.218 18.7348 149.969 18.373C148.721 18.0111 147.624 17.2535 146.843 16.2142C146.062 15.1749 145.64 13.9101 145.64 12.6101C145.64 11.3101 146.062 10.0453 146.843 9.00603C147.624 7.96673 148.721 7.20913 149.969 6.84726C151.218 6.48539 152.55 6.53882 153.766 6.99951C154.982 7.46019 156.015 8.30321 156.71 9.40171C156.061 8.67937 155.208 8.17093 154.263 7.94354C153.319 7.71615 152.328 7.7805 151.422 8.1281C150.515 8.47569 149.735 9.09018 149.184 9.89041C148.634 10.6906 148.34 11.6389 148.34 12.6101C148.34 13.5813 148.634 14.5296 149.184 15.3298C149.735 16.13 150.515 16.7445 151.422 17.0921C152.328 17.4397 153.319 17.5041 154.263 17.2767C155.208 17.0493 156.061 16.5408 156.71 15.8185Z" fill="white"/>
</g>
</g>
</g>
<defs>
<clipPath id="clip0_17_5155">
<rect x="145.64" y="0.610107" width="24" height="24" rx="12" fill="white"/>
</clipPath>
<clipPath id="clip1_17_5155">
<rect width="24" height="24" fill="white" transform="translate(145.64 0.610107)"/>
</clipPath>
<clipPath id="clip2_17_5155">
<rect width="36" height="24" fill="white" transform="translate(139.64 0.610107)"/>
</clipPath>
</defs>
</svg>
