<svg width="73" height="54" viewBox="0 0 73 54" fill="none" xmlns="http://www.w3.org/2000/svg">
<path d="M22.3481 31.849C21.8791 32.318 21.1191 32.318 20.6511 31.849L18.0001 28.819L15.3491 31.848C14.8801 32.317 14.1201 32.317 13.6521 31.848C13.1831 31.379 13.1831 30.619 13.6521 30.151L16.4101 27.001L13.6511 23.849C13.1821 23.38 13.1821 22.621 13.6511 22.152C14.1201 21.683 14.8791 21.683 15.3481 22.152L18.0001 25.183L20.6511 22.152C21.1201 21.683 21.8791 21.683 22.3481 22.152C22.8171 22.621 22.8171 23.381 22.3481 23.849L19.5901 27.001L22.3481 30.151C22.8171 30.62 22.8171 31.38 22.3481 31.849Z" fill="#CCCCCC"/>
<path d="M49.5158 24.5479C49.9518 24.1019 50.5588 24.0669 51.0918 24.5479L54.9998 28.2949L58.9078 24.5479C59.4408 24.0669 60.0488 24.1019 60.4818 24.5479C60.9178 24.9929 60.8898 25.7449 60.4818 26.1629C60.0758 26.5809 55.7868 30.6649 55.7868 30.6649C55.5698 30.8879 55.2848 30.9999 54.9998 30.9999C54.7148 30.9999 54.4298 30.8879 54.2108 30.6649C54.2108 30.6649 49.9238 26.5809 49.5158 26.1629C49.1078 25.7449 49.0798 24.9929 49.5158 24.5479Z" fill="#CCCCCC"/>
</svg>
