<svg width="200" height="25" viewBox="0 0 200 25" fill="none" xmlns="http://www.w3.org/2000/svg">
<g clip-path="url(#clip0_17_5477)">
<g clip-path="url(#clip1_17_5477)">
<g clip-path="url(#clip2_17_5477)">
<path d="M139.98 0.82959H175.98V24.8296H139.98V0.82959Z" fill="#E30A17"/>
<path d="M156.681 12.8296L162.108 11.0664L158.753 15.6828V9.97639L162.108 14.5928L156.681 12.8296ZM157.051 16.038C156.355 17.1365 155.322 17.9795 154.107 18.4402C152.891 18.9009 151.559 18.9543 150.31 18.5924C149.062 18.2306 147.964 17.473 147.184 16.4337C146.403 15.3944 145.98 14.1296 145.98 12.8296C145.98 11.5296 146.403 10.2648 147.184 9.22552C147.964 8.18621 149.062 7.42862 150.31 7.06675C151.559 6.70488 152.891 6.7583 154.107 7.21899C155.322 7.67967 156.355 8.52269 157.051 9.62119C156.401 8.89886 155.548 8.39042 154.604 8.16302C153.66 7.93563 152.669 7.99998 151.762 8.34758C150.856 8.69518 150.076 9.30967 149.525 10.1099C148.975 10.9101 148.68 11.8584 148.68 12.8296C148.68 13.8007 148.975 14.7491 149.525 15.5493C150.076 16.3495 150.856 16.964 151.762 17.3116C152.669 17.6592 153.66 17.7236 154.604 17.4962C155.548 17.2688 156.401 16.7603 157.051 16.038Z" fill="white"/>
</g>
</g>
</g>
<defs>
<clipPath id="clip0_17_5477">
<rect x="145.98" y="0.82959" width="24" height="24" rx="12" fill="white"/>
</clipPath>
<clipPath id="clip1_17_5477">
<rect width="24" height="24" fill="white" transform="translate(145.98 0.82959)"/>
</clipPath>
<clipPath id="clip2_17_5477">
<rect width="36" height="24" fill="white" transform="translate(139.98 0.82959)"/>
</clipPath>
</defs>
</svg>
