<svg width="200" height="25" viewBox="0 0 200 25" fill="none" xmlns="http://www.w3.org/2000/svg">
<g clip-path="url(#clip0_17_5227)">
<g clip-path="url(#clip1_17_5227)">
<g clip-path="url(#clip2_17_5227)">
<path d="M139.98 0.610107H175.98V24.6101H139.98V0.610107Z" fill="#E30A17"/>
<path d="M156.681 12.6101L162.108 10.8469L158.753 15.4633V9.75691L162.108 14.3733L156.681 12.6101ZM157.051 15.8185C156.355 16.917 155.322 17.76 154.107 18.2207C152.891 18.6814 151.559 18.7348 150.31 18.373C149.062 18.0111 147.964 17.2535 147.184 16.2142C146.403 15.1749 145.98 13.9101 145.98 12.6101C145.98 11.3101 146.403 10.0453 147.184 9.00603C147.964 7.96673 149.062 7.20913 150.31 6.84726C151.559 6.48539 152.891 6.53882 154.107 6.99951C155.322 7.46019 156.355 8.30321 157.051 9.40171C156.401 8.67937 155.548 8.17093 154.604 7.94354C153.66 7.71615 152.669 7.7805 151.762 8.1281C150.856 8.47569 150.076 9.09018 149.525 9.89041C148.975 10.6906 148.68 11.6389 148.68 12.6101C148.68 13.5813 148.975 14.5296 149.525 15.3298C150.076 16.13 150.856 16.7445 151.762 17.0921C152.669 17.4397 153.66 17.5041 154.604 17.2767C155.548 17.0493 156.401 16.5408 157.051 15.8185Z" fill="white"/>
</g>
</g>
</g>
<defs>
<clipPath id="clip0_17_5227">
<rect x="145.98" y="0.610107" width="24" height="24" rx="12" fill="white"/>
</clipPath>
<clipPath id="clip1_17_5227">
<rect width="24" height="24" fill="white" transform="translate(145.98 0.610107)"/>
</clipPath>
<clipPath id="clip2_17_5227">
<rect width="36" height="24" fill="white" transform="translate(139.98 0.610107)"/>
</clipPath>
</defs>
</svg>
