<svg width="201" height="26" viewBox="0 0 201 26" fill="none" xmlns="http://www.w3.org/2000/svg">
<g clip-path="url(#clip0_17_5316)">
<g clip-path="url(#clip1_17_5316)">
<g clip-path="url(#clip2_17_5316)">
<path d="M140.31 1.21973H176.31V25.2197H140.31V1.21973Z" fill="#E30A17"/>
<path d="M157.01 13.2197L162.437 11.4565L159.083 16.0729V10.3665L162.437 14.9829L157.01 13.2197ZM157.38 16.4281C156.685 17.5266 155.652 18.3696 154.436 18.8303C153.221 19.291 151.888 19.3444 150.64 18.9826C149.391 18.6207 148.294 17.8631 147.513 16.8238C146.732 15.7845 146.31 14.5197 146.31 13.2197C146.31 11.9198 146.732 10.655 147.513 9.61565C148.294 8.57634 149.391 7.81875 150.64 7.45688C151.888 7.09501 153.221 7.14844 154.436 7.60913C155.652 8.06981 156.685 8.91283 157.38 10.0113C156.731 9.28899 155.878 8.78055 154.934 8.55316C153.99 8.32577 152.999 8.39012 152.092 8.73772C151.185 9.08531 150.405 9.6998 149.855 10.5C149.305 11.3003 149.01 12.2486 149.01 13.2197C149.01 14.1909 149.305 15.1392 149.855 15.9394C150.405 16.7397 151.185 17.3541 152.092 17.7017C152.999 18.0493 153.99 18.1137 154.934 17.8863C155.878 17.6589 156.731 17.1505 157.38 16.4281Z" fill="white"/>
</g>
</g>
</g>
<defs>
<clipPath id="clip0_17_5316">
<rect x="146.31" y="1.21973" width="24" height="24" rx="12" fill="white"/>
</clipPath>
<clipPath id="clip1_17_5316">
<rect width="24" height="24" fill="white" transform="translate(146.31 1.21973)"/>
</clipPath>
<clipPath id="clip2_17_5316">
<rect width="36" height="24" fill="white" transform="translate(140.31 1.21973)"/>
</clipPath>
</defs>
</svg>
