<svg width="200" height="26" viewBox="0 0 200 26" fill="none" xmlns="http://www.w3.org/2000/svg">
<g clip-path="url(#clip0_17_5352)">
<g clip-path="url(#clip1_17_5352)">
<g clip-path="url(#clip2_17_5352)">
<path d="M139.98 1.21973H175.98V25.2197H139.98V1.21973Z" fill="#E30A17"/>
<path d="M156.681 13.2197L162.108 11.4565L158.753 16.0729V10.3665L162.108 14.9829L156.681 13.2197ZM157.051 16.4281C156.355 17.5266 155.322 18.3696 154.107 18.8303C152.891 19.291 151.559 19.3444 150.31 18.9826C149.062 18.6207 147.964 17.8631 147.184 16.8238C146.403 15.7845 145.98 14.5197 145.98 13.2197C145.98 11.9198 146.403 10.655 147.184 9.61565C147.964 8.57634 149.062 7.81875 150.31 7.45688C151.559 7.09501 152.891 7.14844 154.107 7.60913C155.322 8.06981 156.355 8.91283 157.051 10.0113C156.401 9.28899 155.548 8.78055 154.604 8.55316C153.66 8.32577 152.669 8.39012 151.762 8.73772C150.856 9.08531 150.076 9.6998 149.525 10.5C148.975 11.3003 148.68 12.2486 148.68 13.2197C148.68 14.1909 148.975 15.1392 149.525 15.9394C150.076 16.7397 150.856 17.3541 151.762 17.7017C152.669 18.0493 153.66 18.1137 154.604 17.8863C155.548 17.6589 156.401 17.1505 157.051 16.4281Z" fill="white"/>
</g>
</g>
</g>
<defs>
<clipPath id="clip0_17_5352">
<rect x="145.98" y="1.21973" width="24" height="24" rx="12" fill="white"/>
</clipPath>
<clipPath id="clip1_17_5352">
<rect width="24" height="24" fill="white" transform="translate(145.98 1.21973)"/>
</clipPath>
<clipPath id="clip2_17_5352">
<rect width="36" height="24" fill="white" transform="translate(139.98 1.21973)"/>
</clipPath>
</defs>
</svg>
