<svg width="200" height="26" viewBox="0 0 200 26" fill="none" xmlns="http://www.w3.org/2000/svg">
<g clip-path="url(#clip0_17_5267)">
<g clip-path="url(#clip1_17_5267)">
<g clip-path="url(#clip2_17_5267)">
<path d="M101.64 1.21973H137.64V25.2197H101.64V1.21973Z" fill="white"/>
<path d="M120.164 21.4894C120.159 21.4871 120.154 21.4838 120.15 21.4796L120.145 21.4749C120.123 21.4541 120.102 21.4322 120.082 21.4092C120.029 21.3487 119.957 21.2601 119.894 21.1818C119.77 21.0265 119.667 20.8927 119.647 20.8675L119.616 20.8262L119.305 20.7304L119.078 20.6246L119.199 20.4884L119.616 20.6666L119.926 20.7304L120.501 21.1529L120.5 21.1533C120.499 21.1543 120.417 21.2228 120.335 21.2973C120.298 21.3305 120.252 21.3733 120.22 21.4086C120.206 21.423 120.194 21.4382 120.183 21.4542C120.176 21.4656 120.17 21.4774 120.164 21.4894M118.03 20.8486C117.75 20.8461 117.475 20.7692 117.235 20.6259H117.234V20.6256C117.264 20.5767 117.303 20.5345 117.349 20.5016C117.427 20.4446 117.567 20.3765 117.793 20.3756H117.798C118.066 20.3756 118.394 20.4667 118.773 20.6465C118.548 20.7799 118.292 20.8498 118.03 20.8486ZM116.856 20.5882C116.832 20.5887 116.808 20.5842 116.787 20.575C116.765 20.5658 116.745 20.5521 116.729 20.5349C116.7 20.5019 116.681 20.4623 116.672 20.4197C116.659 20.3645 116.654 20.3077 116.658 20.2511C116.678 20.2425 116.699 20.2377 116.72 20.2369H116.725C116.825 20.2369 116.904 20.324 116.938 20.4104C116.957 20.4486 116.961 20.4922 116.949 20.5331C116.941 20.5505 116.928 20.5651 116.911 20.5748C116.894 20.5846 116.875 20.5891 116.856 20.5879L116.856 20.5882ZM118.923 20.3486C118.228 20.2495 117.934 19.9984 117.809 19.8053C117.731 19.6881 117.693 19.5478 117.704 19.4069V19.4063H117.705C117.739 19.3983 117.775 19.3944 117.811 19.3946C117.996 19.3946 118.468 19.4875 118.923 20.3483L118.923 20.3489L118.922 20.3485L118.923 20.3486ZM117.5 20.211C117.203 20.211 116.977 20.1598 116.828 20.059C116.765 20.0185 116.714 19.9614 116.681 19.894C116.669 19.8685 116.661 19.8412 116.657 19.8131C116.756 19.773 116.861 19.7507 116.968 19.7471C116.983 19.7464 116.998 19.7459 117.015 19.7459C117.244 19.7459 117.593 19.8207 117.96 20.1771L117.961 20.1775H117.96C117.808 20.1985 117.654 20.2098 117.499 20.2111L117.5 20.211ZM116.063 20.1558C115.75 20.1558 115.321 20.0603 115.053 19.7923L115.052 19.792H115.053C115.257 19.7439 115.465 19.7163 115.674 19.7095C115.694 19.7091 115.713 19.7088 115.733 19.7088C116.026 19.7088 116.251 19.7657 116.4 19.8778C116.442 19.9029 116.473 19.9425 116.487 19.9891C116.489 20.0059 116.486 20.0229 116.479 20.0381C116.471 20.0533 116.46 20.0661 116.445 20.0751C116.378 20.1259 116.258 20.1531 116.087 20.1558L116.063 20.1566L116.063 20.1558ZM115.05 19.6358C115.031 19.6359 115.012 19.6317 114.995 19.6236C114.978 19.6155 114.962 19.6038 114.95 19.5891C114.928 19.5595 114.913 19.5249 114.906 19.4883C114.896 19.44 114.892 19.3906 114.894 19.3413V19.3406C114.91 19.3335 114.926 19.3298 114.943 19.3296C114.982 19.331 115.019 19.3476 115.047 19.3759C115.077 19.4056 115.1 19.4418 115.114 19.4817C115.128 19.515 115.131 19.5522 115.121 19.5871C115.116 19.6015 115.106 19.6138 115.093 19.6225C115.08 19.6311 115.065 19.6357 115.049 19.6355L115.05 19.6358ZM117.391 19.583C117.367 19.5835 117.344 19.579 117.322 19.5698C117.3 19.5606 117.28 19.5469 117.264 19.5297C117.236 19.4967 117.216 19.4571 117.207 19.4146C117.194 19.3593 117.19 19.3025 117.193 19.2459C117.213 19.2373 117.234 19.2325 117.256 19.2317H117.26C117.36 19.2317 117.44 19.3189 117.474 19.4052C117.492 19.4434 117.496 19.487 117.484 19.5279C117.476 19.5454 117.463 19.5599 117.446 19.5697C117.429 19.5795 117.41 19.584 117.391 19.5827L117.391 19.583ZM116.25 19.5358C115.621 19.5137 115.294 19.3347 115.131 19.1885C115.061 19.1273 115.004 19.0533 114.961 18.9706C114.946 18.9396 114.934 18.9069 114.925 18.8731L114.926 18.8727C114.976 18.8575 115.029 18.8497 115.081 18.8496H115.096C115.308 18.8496 115.74 18.9387 116.25 19.5357V19.5361L116.25 19.5358ZM116.934 19.4722C116.428 19.3951 116.141 19.1777 115.989 19.0088C115.896 18.9084 115.825 18.7893 115.781 18.6593C115.832 18.6476 115.884 18.6413 115.937 18.6405C115.943 18.6405 115.95 18.6403 115.958 18.6403C115.965 18.6403 115.972 18.6403 115.98 18.6405C116.234 18.6461 116.697 18.7615 116.934 19.4719H116.934L116.934 19.4722ZM114.334 19.229C114.173 19.2295 114.012 19.2103 113.856 19.1717C113.59 19.1054 113.477 19.0042 113.428 18.9309C113.407 18.9005 113.393 18.8659 113.387 18.8295C113.384 18.8153 113.384 18.8009 113.385 18.7866L113.387 18.7862C113.524 18.7522 113.664 18.7344 113.805 18.7331C113.815 18.7331 113.824 18.7328 113.834 18.7328C113.949 18.7326 114.064 18.7437 114.177 18.766C114.433 18.8195 114.661 18.9635 114.819 19.1716V19.172H114.818C114.66 19.2108 114.497 19.2299 114.334 19.2288L114.334 19.229ZM115.51 18.8018C115.486 18.8025 115.463 18.7982 115.441 18.7892C115.419 18.7802 115.399 18.7668 115.383 18.7498C115.354 18.7165 115.335 18.6764 115.326 18.6335C115.313 18.5787 115.308 18.5223 115.312 18.4661C115.332 18.4575 115.353 18.4527 115.374 18.4519H115.379C115.479 18.4519 115.558 18.5391 115.592 18.6255C115.61 18.6633 115.614 18.7066 115.602 18.7468C115.594 18.7644 115.581 18.779 115.565 18.7889C115.548 18.7988 115.529 18.8034 115.51 18.802L115.51 18.8018ZM114.626 18.6806C114.457 18.633 114.296 18.5627 114.147 18.4716C113.925 18.3351 113.654 18.0936 113.621 17.7184H113.621C113.638 17.7148 113.655 17.7128 113.672 17.7123C113.676 17.7123 113.681 17.712 113.686 17.712C113.752 17.712 113.888 17.7307 114.052 17.8554C114.26 18.0146 114.453 18.2922 114.626 18.6814L114.626 18.6806ZM115.203 18.6594C115.065 18.597 114.938 18.5151 114.824 18.4161C114.53 18.1629 114.301 17.8429 114.155 17.4829C114.201 17.4615 114.251 17.4516 114.302 17.4541C114.398 17.4569 114.545 17.4969 114.708 17.6727C114.895 17.8745 115.062 18.2063 115.204 18.6587L115.204 18.66L115.203 18.6596L115.203 18.6594ZM113.707 18.6158C113.514 18.6158 113.448 18.5112 113.429 18.4662C113.41 18.4193 113.402 18.3684 113.407 18.3179V18.3171C113.438 18.3093 113.47 18.3051 113.503 18.3046H113.509C113.572 18.3031 113.633 18.3162 113.689 18.3429C113.746 18.3695 113.795 18.4091 113.833 18.4582C113.843 18.4734 113.874 18.526 113.848 18.5671C113.827 18.5995 113.78 18.6159 113.707 18.6159L113.707 18.6158ZM113.28 18.077C113.131 18.0773 112.981 18.0646 112.834 18.0389C112.663 18.0077 112.565 17.8616 112.514 17.7447C112.479 17.6647 112.455 17.5806 112.442 17.4945H112.442C112.974 17.5101 113.224 17.6653 113.341 17.7928C113.414 17.8682 113.459 17.9656 113.47 18.0697H113.469C113.468 18.0697 113.394 18.0769 113.28 18.0769L113.28 18.077ZM113.833 17.5242C113.79 17.4698 113.75 17.4134 113.712 17.3551C113.649 17.2573 113.591 17.1551 113.591 17.0717C113.591 16.9911 113.572 16.8211 113.56 16.7269C113.546 16.6075 113.532 16.5053 113.53 16.4967H113.531C113.544 16.5016 113.863 16.6212 113.863 16.9203C113.863 17.2194 113.834 17.5209 113.833 17.5239V17.5243H113.833L113.833 17.5242ZM113.42 17.4958C113.417 17.4958 113.413 17.4955 113.41 17.4949C113.316 17.4792 113.15 17.4072 112.967 17.3022C112.764 17.1857 112.599 17.0608 112.502 16.9506C112.414 16.8501 112.362 16.6923 112.347 16.4815C112.34 16.3861 112.342 16.2903 112.351 16.195C112.368 16.1895 112.385 16.1868 112.403 16.187C112.474 16.1882 112.549 16.2199 112.651 16.29C112.743 16.3559 112.83 16.4297 112.91 16.5105C113.012 16.6116 113.108 16.718 113.198 16.8294L113.2 16.831C113.21 16.85 113.301 17.0138 113.372 17.1733C113.407 17.2467 113.434 17.3238 113.453 17.4031C113.46 17.4264 113.46 17.4511 113.453 17.4744C113.45 17.4819 113.444 17.4882 113.437 17.4923C113.432 17.4947 113.426 17.4959 113.42 17.4959L113.42 17.4958Z" fill="#4E5B31"/>
<path d="M119.116 21.4894C119.121 21.4871 119.126 21.4838 119.13 21.4796L119.135 21.4749C119.157 21.4541 119.178 21.4322 119.198 21.4092C119.251 21.3487 119.323 21.2601 119.386 21.1818C119.51 21.0265 119.613 20.8927 119.633 20.8675L119.664 20.8262L119.975 20.7304L120.202 20.6246L120.081 20.4884L119.664 20.6666L119.354 20.7304L118.779 21.1529L118.779 21.1533C118.781 21.1543 118.863 21.2228 118.945 21.2973C118.981 21.3305 119.027 21.3733 119.06 21.4086C119.073 21.423 119.086 21.4382 119.097 21.4542C119.104 21.4656 119.11 21.4774 119.116 21.4894M121.249 20.8486C121.53 20.8461 121.804 20.7692 122.045 20.6259H122.045V20.6256C122.016 20.5767 121.977 20.5345 121.93 20.5016C121.853 20.4446 121.713 20.3765 121.486 20.3756H121.482C121.214 20.3756 120.886 20.4667 120.507 20.6465C120.731 20.7799 120.988 20.8498 121.249 20.8486ZM122.424 20.5882C122.448 20.5887 122.471 20.5842 122.493 20.575C122.515 20.5658 122.535 20.5521 122.551 20.5349C122.579 20.5019 122.599 20.4623 122.608 20.4197C122.621 20.3645 122.625 20.3077 122.622 20.2511C122.602 20.2425 122.581 20.2377 122.559 20.2369H122.555C122.454 20.2369 122.375 20.324 122.341 20.4104C122.323 20.4486 122.319 20.4922 122.33 20.5331C122.339 20.5505 122.352 20.5651 122.369 20.5748C122.385 20.5846 122.405 20.5891 122.424 20.5879L122.424 20.5882ZM120.357 20.3486C121.051 20.2495 121.346 19.9984 121.47 19.8053C121.549 19.6881 121.586 19.5478 121.576 19.4069V19.4063H121.575C121.54 19.3983 121.505 19.3944 121.469 19.3946C121.284 19.3946 120.812 19.4875 120.357 20.3483L120.357 20.3489L120.357 20.3485L120.357 20.3486ZM121.78 20.211C122.077 20.211 122.303 20.1598 122.451 20.059C122.515 20.0185 122.566 19.9614 122.599 19.894C122.611 19.8685 122.619 19.8412 122.623 19.8131C122.524 19.773 122.419 19.7507 122.312 19.7471C122.297 19.7464 122.281 19.7459 122.265 19.7459C122.036 19.7459 121.687 19.8207 121.319 20.1771L121.319 20.1775H121.319C121.472 20.1985 121.626 20.2098 121.781 20.2111L121.78 20.211ZM123.217 20.1558C123.529 20.1558 123.959 20.0603 124.227 19.7923L124.227 19.792H124.227C124.023 19.7439 123.815 19.7163 123.606 19.7095C123.586 19.7091 123.566 19.7088 123.547 19.7088C123.253 19.7088 123.029 19.7657 122.879 19.8778C122.838 19.9029 122.807 19.9425 122.792 19.9891C122.791 20.0059 122.794 20.0229 122.801 20.0381C122.809 20.0533 122.82 20.0661 122.835 20.0751C122.902 20.1259 123.022 20.1531 123.192 20.1558L123.216 20.1566L123.217 20.1558ZM124.23 19.6358C124.249 19.6359 124.268 19.6317 124.285 19.6236C124.302 19.6155 124.317 19.6038 124.329 19.5891C124.352 19.5595 124.367 19.5249 124.374 19.4883C124.384 19.44 124.388 19.3906 124.385 19.3413V19.3406C124.37 19.3335 124.353 19.3298 124.337 19.3296C124.297 19.331 124.26 19.3476 124.233 19.3759C124.203 19.4056 124.18 19.4418 124.166 19.4817C124.151 19.515 124.149 19.5522 124.158 19.5871C124.164 19.6015 124.174 19.6138 124.187 19.6225C124.2 19.6311 124.215 19.6357 124.23 19.6355L124.23 19.6358ZM121.889 19.583C121.913 19.5835 121.936 19.579 121.958 19.5698C121.98 19.5606 122 19.5469 122.016 19.5297C122.044 19.4967 122.064 19.4571 122.073 19.4146C122.086 19.3593 122.09 19.3025 122.087 19.2459C122.067 19.2373 122.046 19.2325 122.024 19.2317H122.02C121.919 19.2317 121.84 19.3189 121.806 19.4052C121.788 19.4434 121.784 19.487 121.795 19.5279C121.804 19.5454 121.817 19.5599 121.834 19.5697C121.85 19.5795 121.87 19.584 121.889 19.5827L121.889 19.583ZM123.029 19.5358C123.659 19.5137 123.985 19.3347 124.149 19.1885C124.219 19.1273 124.276 19.0533 124.318 18.9706C124.334 18.9396 124.346 18.9069 124.355 18.8731L124.354 18.8727C124.303 18.8575 124.251 18.8497 124.198 18.8496H124.184C123.971 18.8496 123.539 18.9387 123.03 19.5357V19.5361L123.029 19.5358ZM122.346 19.4722C122.852 19.3951 123.139 19.1777 123.291 19.0088C123.384 18.9084 123.455 18.7893 123.499 18.6593C123.448 18.6476 123.396 18.6413 123.343 18.6405C123.336 18.6405 123.329 18.6403 123.322 18.6403C123.315 18.6403 123.308 18.6403 123.3 18.6405C123.045 18.6461 122.583 18.7615 122.346 19.4719H122.346L122.346 19.4722ZM124.946 19.229C125.107 19.2295 125.268 19.2103 125.424 19.1717C125.689 19.1054 125.803 19.0042 125.852 18.9309C125.873 18.9005 125.887 18.8659 125.893 18.8295C125.895 18.8153 125.896 18.8009 125.894 18.7866L125.893 18.7862C125.756 18.7522 125.616 18.7344 125.475 18.7331C125.465 18.7331 125.455 18.7328 125.446 18.7328C125.331 18.7326 125.216 18.7437 125.103 18.766C124.847 18.8195 124.619 18.9635 124.461 19.1716V19.172H124.461C124.62 19.2108 124.783 19.2299 124.946 19.2288L124.946 19.229ZM123.77 18.8018C123.794 18.8025 123.817 18.7982 123.839 18.7892C123.861 18.7802 123.881 18.7668 123.897 18.7498C123.926 18.7165 123.945 18.6764 123.954 18.6335C123.967 18.5787 123.971 18.5223 123.968 18.4661C123.948 18.4575 123.927 18.4527 123.905 18.4519H123.901C123.801 18.4519 123.721 18.5391 123.687 18.6255C123.669 18.6633 123.666 18.7066 123.678 18.7468C123.686 18.7644 123.699 18.779 123.715 18.7889C123.732 18.7988 123.751 18.8034 123.77 18.802L123.77 18.8018ZM124.654 18.6806C124.823 18.633 124.984 18.5627 125.133 18.4716C125.355 18.3351 125.626 18.0936 125.659 17.7184H125.658C125.642 17.7148 125.625 17.7128 125.607 17.7123C125.603 17.7123 125.599 17.712 125.594 17.712C125.528 17.712 125.392 17.7307 125.228 17.8554C125.019 18.0146 124.826 18.2922 124.654 18.6814L124.654 18.6806ZM124.077 18.6594C124.214 18.597 124.342 18.5151 124.456 18.4161C124.75 18.1629 124.979 17.8429 125.124 17.4829C125.079 17.4615 125.029 17.4516 124.978 17.4541C124.882 17.4569 124.735 17.4969 124.572 17.6727C124.385 17.8745 124.218 18.2063 124.076 18.6587L124.076 18.66L124.077 18.6596L124.077 18.6594ZM125.573 18.6158C125.765 18.6158 125.831 18.5112 125.851 18.4662C125.87 18.4193 125.878 18.3684 125.873 18.3179V18.3171C125.842 18.3093 125.809 18.3051 125.777 18.3046H125.77C125.708 18.3031 125.647 18.3162 125.59 18.3429C125.534 18.3695 125.485 18.4091 125.447 18.4582C125.437 18.4734 125.406 18.526 125.431 18.5671C125.452 18.5995 125.499 18.6159 125.573 18.6159L125.573 18.6158ZM126 18.077C126.149 18.0773 126.298 18.0646 126.445 18.0389C126.617 18.0077 126.715 17.8616 126.766 17.7447C126.801 17.6647 126.825 17.5806 126.838 17.4945H126.837C126.306 17.5101 126.055 17.6653 125.938 17.7928C125.866 17.8682 125.821 17.9656 125.81 18.0697H125.81C125.811 18.0697 125.886 18.0769 126 18.0769L126 18.077ZM125.447 17.5242C125.49 17.4698 125.53 17.4134 125.568 17.3551C125.631 17.2573 125.689 17.1551 125.689 17.0717C125.689 16.9911 125.708 16.8211 125.719 16.7269C125.734 16.6075 125.748 16.5053 125.749 16.4967H125.749C125.735 16.5016 125.416 16.6212 125.416 16.9203C125.416 17.2194 125.446 17.5209 125.446 17.5239V17.5243H125.447L125.447 17.5242ZM125.86 17.4958C125.863 17.4958 125.866 17.4955 125.87 17.4949C125.964 17.4792 126.13 17.4072 126.313 17.3022C126.516 17.1857 126.681 17.0608 126.778 16.9506C126.866 16.8501 126.918 16.6923 126.933 16.4815C126.939 16.3861 126.938 16.2903 126.929 16.195C126.912 16.1895 126.894 16.1868 126.877 16.187C126.806 16.1882 126.731 16.2199 126.629 16.29C126.536 16.3559 126.45 16.4297 126.369 16.5105C126.268 16.6116 126.172 16.718 126.081 16.8294L126.08 16.831C126.07 16.85 125.979 17.0138 125.908 17.1733C125.873 17.2467 125.845 17.3238 125.827 17.4031C125.82 17.4264 125.82 17.4511 125.827 17.4744C125.83 17.4819 125.835 17.4882 125.842 17.4923C125.848 17.4947 125.854 17.4959 125.86 17.4959L125.86 17.4958Z" fill="#4E5B31"/>
<path d="M130.725 5.37819L130.631 5.41571L130.594 5.43043L130.48 5.42415L130.373 5.47547L130.183 5.60503L130.175 5.61103L130.104 5.62947L130.039 5.60115L130.001 5.61811L129.989 5.69491L129.953 5.75007L129.909 5.78075L129.758 5.79623L129.63 5.86203L129.464 5.81759L129.387 5.84779L129.223 5.99547L129.14 6.03515L129.11 6.03347L128.999 6.02775L128.952 6.04311L128.882 6.11083L128.75 6.12115L128.708 6.14975L128.644 6.28015L128.573 6.35247L128.533 6.36095L128.49 6.34495L128.457 6.35071L128.442 6.43415L128.411 6.46911L128.322 6.49967L128.251 6.55875L128.189 6.59075L128.105 6.58867H128.086L128.003 6.63451L127.847 6.64819L127.782 6.71015L127.768 6.72339L127.738 6.74171L127.688 6.77131L127.676 6.77867L127.616 6.76799L127.546 6.79571L127.518 6.75215L127.469 6.78123L127.405 6.78399L127.325 6.74843L127.264 6.72131L127.22 6.72775L127.204 6.80535L127.203 6.81359L127.156 6.87587L127.069 6.92879L127.057 6.94427L126.957 7.07259L126.768 7.27123L126.609 7.35235L126.443 7.40271L126.327 7.49791L126.023 7.64859L125.543 7.88751L125.445 7.91895L125.304 7.94143L125.053 8.03391L124.832 8.10075L124.819 8.10451L124.775 8.11779L124.463 8.21231L124.318 8.19695L124.231 8.22823L124.007 8.20335L123.851 8.20643L123.753 8.22695L123.567 8.31591L123.254 8.46639L123.151 8.56103L122.99 8.64503L122.801 8.70475L122.801 8.62551L122.8 8.62215L122.735 8.64283L122.688 8.65775L122.535 8.68135H122.449L122.397 8.66599L122.389 8.66875L122.076 8.77151L121.727 8.80519L121.553 8.86119L121.422 8.85911L121.341 8.88335L121.181 8.90291L121.124 8.88767L121.111 8.88415L120.641 8.90455L120.426 8.88027L120.323 8.90359L120.151 8.84575L119.9 8.81667L119.842 8.79911L119.71 8.75999L119.65 8.79435L119.606 8.79911L119.499 8.76043L119.461 8.75947L119.373 8.79147L119.322 8.77847L119.275 8.74095L119.164 8.72451L119.097 8.66795L118.721 8.71779L118.619 8.68779L118.277 8.58811L118.222 8.59087L118.154 8.64171L118.052 8.67887L117.964 8.70187L117.844 8.70587L117.704 8.66915L117.559 8.59923L117.506 8.58655L117.387 8.59855L117.351 8.60183L117.132 8.48455L116.85 8.30855L116.659 8.21655L116.587 8.20491L116.578 8.23903L116.613 8.35103L116.625 8.46199L116.622 8.56451L116.62 8.62799L116.638 8.68499L116.707 8.76147L116.735 8.83827L116.756 9.04963L116.756 9.26411L116.723 9.60615L116.711 9.65815L116.671 9.83535L116.635 9.99811L116.493 10.4314L116.454 10.4852L116.358 10.5504L116.142 10.6979L115.982 10.7899L115.931 10.8108L115.802 10.8206L115.721 10.8166L115.621 10.7622L115.522 10.7368L115.393 10.6438L115.249 10.6141L115.091 10.523L115.05 10.4736L114.964 10.4656L114.845 10.4299V10.4297L114.801 10.4166L114.771 10.4078L114.619 10.4038L114.478 10.3385L114.403 10.3205L114.301 10.3153L114.194 10.3649L114.14 10.39L114.072 10.3629L114.023 10.366L113.967 10.4506L113.96 10.4635L113.921 10.4839L113.873 10.4832L113.836 10.4822L113.795 10.5L113.74 10.5237L113.692 10.5448L113.668 10.555L113.668 10.5546L113.654 10.5575L113.628 10.562L113.596 10.5681L113.539 10.5352L113.509 10.5175L113.459 10.5072L113.432 10.5268L113.427 10.6188L113.402 10.6739L113.324 10.7433L113.244 10.8135L113.188 10.8954L113.041 11.231L112.949 11.3664L112.921 11.3979L112.824 11.5043L112.738 11.5706L112.542 11.7232L112.355 11.7928L112.195 11.8256L112.117 11.826L111.969 11.8063L111.836 11.7655L111.69 11.6742L111.53 11.5455L111.298 11.3166L111.265 11.2968L111.258 11.2923L111.185 11.2456L111.131 11.247L111.11 11.282L111.098 11.3325L111.089 11.3773L111.062 11.632L111.064 11.6467L111.078 11.7516L111.254 11.9976L111.308 12.1283L111.317 12.1432L111.353 12.2042L111.381 12.2507L111.384 12.2554L111.444 12.435L111.402 12.5363L111.423 12.6043L111.37 12.6458L111.36 12.7044L111.518 12.9025L111.552 12.9899L111.514 13.1111L111.452 13.1779L111.435 13.1962L111.444 13.2474L111.516 13.3128L111.64 13.4228L111.706 13.5862L111.756 13.6302L111.814 13.6178L111.847 13.6426L111.896 13.6417L111.944 13.69L111.975 13.7052L112.025 13.7298L112.064 13.7807L112.073 13.9372L112.145 14.1316L112.147 14.237L112.147 14.2519L112.192 14.3298L112.207 14.3914L112.183 14.5541L112.24 14.6064L112.303 14.5936L112.344 14.6L112.409 14.6541L112.487 14.7741L112.564 14.7628L112.613 14.7864L112.849 14.9998L112.903 15.0268L112.906 15.0285L112.944 15.0478L112.992 15.0961L113.067 15.0468L113.075 15.046L113.155 15.0389L113.191 15.0629L113.259 15.1088L113.348 15.1077L113.542 15.1671L113.627 15.1888L113.797 15.2947L113.87 15.3395L113.913 15.3744L113.97 15.4208L114.083 15.4698L114.181 15.4931L114.234 15.5057L114.274 15.521L114.275 15.5186H114.275L114.274 15.5211L114.486 15.602L114.6 15.6287L114.706 15.6677L114.783 15.6957L114.84 15.6966L114.92 15.6294L114.997 15.6249L115.062 15.6409L115.124 15.6304L115.224 15.5691L115.243 15.5404L115.314 15.5068L115.551 15.4773L115.621 15.4998L115.799 15.4222L115.919 15.4555L116.025 15.418L116.256 15.4693L116.317 15.5126L116.386 15.5912L116.394 15.5915L116.471 15.593L116.439 15.6462L116.54 15.7521L116.631 15.8899L116.637 15.9081L116.703 16.1027L116.753 16.1716L116.787 16.2678L116.789 16.3305L116.735 16.3714L116.726 16.3947L116.723 16.4034L116.734 16.4296L116.754 16.4185L116.793 16.3972L116.84 16.3899L116.923 16.3987L116.977 16.4044L117.063 16.3617L117.12 16.3333L117.212 16.3728L117.313 16.3716L117.355 16.3905L117.475 16.4448L117.536 16.4506L117.559 16.4357L117.573 16.4015L117.566 16.3615L117.52 16.3087L117.419 16.1912L117.377 16.1308L117.346 16.0434L117.336 15.9315L117.329 15.8561L117.341 15.757L117.369 15.7217L117.389 15.643H117.389L117.394 15.6224L117.45 15.5477L117.599 15.452L117.759 15.3087L117.886 15.2253L118.016 15.1688L118.02 15.1528L118.034 15.1587L118.366 15.0459L118.371 15.0453L118.519 15.0196L119.516 15.0898L119.553 15.0786V15.0784L119.586 14.9852L119.604 14.9679L119.616 14.9566L119.726 14.9084L119.777 14.901L119.919 14.9362L119.977 14.9505L120.071 14.8982L120.137 14.8994L120.273 14.8247L120.358 14.8268L120.39 14.814L120.554 14.6958L120.713 14.6504L120.754 14.6285L120.768 14.6205L120.931 14.5347L121.034 14.4555L121.123 14.4082L121.221 14.383L121.476 14.365L121.527 14.2795L121.637 14.2649L121.703 14.1901L121.779 14.1592L121.834 14.0809L121.879 14.0153L121.943 13.9784L122.147 13.9656L122.389 13.9956L122.421 13.9762L122.475 13.7812L122.532 13.7446L122.686 13.5201L122.687 13.4383V13.37L122.712 13.2727L122.695 13.0971L122.715 12.9192L122.811 12.6932L122.896 12.6021L123.032 12.5101L123.101 12.48L123.199 12.4635V12.4635L123.213 12.4611L123.238 12.4568L123.575 12.4522C123.58 12.4487 123.698 12.4505 123.698 12.4505L123.811 12.449L124.095 12.4995L124.115 12.503L124.211 12.5342L124.322 12.6205L124.44 12.7352L124.462 12.7566L124.538 12.7886L124.561 12.7987L124.624 12.7886L124.713 12.742L124.781 12.685L124.873 12.6347L124.875 12.6315L124.927 12.5536L124.928 12.552L124.929 12.5522V12.5518H124.929L124.949 12.5208L125.127 12.4515L125.336 12.4395L125.36 12.4268L125.373 12.4198L125.428 12.3548L125.48 12.3544L125.605 12.3998L125.693 12.3823L125.763 12.4103L125.818 12.4038L125.92 12.3918L126.03 12.4693L126.095 12.4773L126.321 12.6097L126.333 12.6116L126.339 12.6128L126.352 12.6149L126.379 12.6069L126.419 12.5954L126.424 12.5938L126.429 12.6008L126.455 12.6371L126.49 12.6421L126.532 12.5864L126.515 12.5611L126.509 12.5519L126.428 12.5355L126.355 12.4115L126.424 12.337L126.316 12.204L126.298 12.182L126.292 12.1726L126.254 12.1157L126.065 11.8263L125.817 11.6289L125.731 11.5596L125.73 11.5592L125.7 11.5352L125.568 11.4009L125.473 11.2757L125.461 11.2487L125.442 11.2062L125.385 11.0831L125.287 11.0071L125.206 10.9195L125.202 10.9143L125.037 10.6893L125.01 10.6516L124.97 10.629L124.888 10.6284L124.88 10.6204L124.875 10.6156L124.878 10.6126L124.918 10.5732L124.962 10.5621L124.981 10.5185L124.897 10.2745L124.896 10.266L124.89 10.188L124.958 9.83379L124.967 9.79063L125.084 9.55231L125.157 9.49287L125.236 9.33719L125.304 9.23767L125.369 9.17439L125.38 9.16767L125.498 9.09663L125.596 9.08275L125.69 9.06951L125.854 9.12007L126.01 9.11703L126.041 9.11379L126.112 9.10579L126.228 9.06911L126.283 9.03519L126.311 8.99147L126.371 8.79199L126.39 8.72851L126.427 8.65955L126.639 8.41523L126.799 8.26683L127.16 8.00231L127.337 7.89675L127.427 7.84287L128.232 7.48503L128.441 7.27303L128.55 7.16271L128.743 7.03331L128.969 6.94087L129.163 6.78719L129.205 6.73383L129.259 6.56183L129.303 6.55107L129.343 6.46411L129.355 6.43939L129.513 6.32771L129.531 6.31879L130.147 6.01039L130.236 6.02267L130.284 5.95095L130.463 5.92091L130.496 5.91531L130.54 5.89327L130.578 5.82927V5.81663L130.583 5.64571L130.621 5.59951L130.642 5.48687L130.661 5.46087L130.682 5.43383L130.733 5.39819L130.724 5.37695L130.725 5.37819Z" fill="#D57800"/>
</g>
</g>
</g>
<g clip-path="url(#clip3_17_5267)">
<g clip-path="url(#clip4_17_5267)">
<g clip-path="url(#clip5_17_5267)">
<path d="M120.64 1.21973H156.64V25.2197H120.64V1.21973Z" fill="#ED2939"/>
<path d="M120.64 1.21973H144.64V25.2197H120.64V1.21973Z" fill="white"/>
<path d="M120.64 1.21973H132.64V25.2197H120.64V1.21973Z" fill="#002395"/>
</g>
</g>
</g>
<g clip-path="url(#clip6_17_5267)">
<g clip-path="url(#clip7_17_5267)">
<g clip-path="url(#clip8_17_5267)">
<path d="M139.64 1.21973H175.64V25.2197H139.64V1.21973Z" fill="#E30A17"/>
<path d="M156.34 13.2197L161.767 11.4565L158.413 16.0729V10.3665L161.767 14.9829L156.34 13.2197ZM156.71 16.4281C156.015 17.5266 154.982 18.3696 153.766 18.8303C152.55 19.291 151.218 19.3444 149.969 18.9826C148.721 18.6207 147.624 17.8631 146.843 16.8238C146.062 15.7845 145.64 14.5197 145.64 13.2197C145.64 11.9198 146.062 10.655 146.843 9.61565C147.624 8.57634 148.721 7.81875 149.969 7.45688C151.218 7.09501 152.55 7.14844 153.766 7.60913C154.982 8.06981 156.015 8.91283 156.71 10.0113C156.061 9.28899 155.208 8.78055 154.263 8.55316C153.319 8.32577 152.328 8.39012 151.422 8.73772C150.515 9.08531 149.735 9.6998 149.184 10.5C148.634 11.3003 148.34 12.2486 148.34 13.2197C148.34 14.1909 148.634 15.1392 149.184 15.9394C149.735 16.7397 150.515 17.3541 151.422 17.7017C152.328 18.0493 153.319 18.1137 154.263 17.8863C155.208 17.6589 156.061 17.1505 156.71 16.4281Z" fill="white"/>
</g>
</g>
</g>
<defs>
<clipPath id="clip0_17_5267">
<rect x="107.64" y="1.21973" width="24" height="24" rx="12" fill="white"/>
</clipPath>
<clipPath id="clip1_17_5267">
<rect width="24" height="24" fill="white" transform="translate(107.64 1.21973)"/>
</clipPath>
<clipPath id="clip2_17_5267">
<rect width="36" height="24" fill="white" transform="translate(101.64 1.21973)"/>
</clipPath>
<clipPath id="clip3_17_5267">
<rect x="126.64" y="1.21973" width="24" height="24" rx="12" fill="white"/>
</clipPath>
<clipPath id="clip4_17_5267">
<rect width="24" height="24" fill="white" transform="translate(126.64 1.21973)"/>
</clipPath>
<clipPath id="clip5_17_5267">
<rect width="36" height="24" fill="white" transform="translate(120.64 1.21973)"/>
</clipPath>
<clipPath id="clip6_17_5267">
<rect x="145.64" y="1.21973" width="24" height="24" rx="12" fill="white"/>
</clipPath>
<clipPath id="clip7_17_5267">
<rect width="24" height="24" fill="white" transform="translate(145.64 1.21973)"/>
</clipPath>
<clipPath id="clip8_17_5267">
<rect width="36" height="24" fill="white" transform="translate(139.64 1.21973)"/>
</clipPath>
</defs>
</svg>
