<svg width="201" height="25" viewBox="0 0 201 25" fill="none" xmlns="http://www.w3.org/2000/svg">
<g clip-path="url(#clip0_17_5441)">
<g clip-path="url(#clip1_17_5441)">
<g clip-path="url(#clip2_17_5441)">
<path d="M140.31 0.82959H176.31V24.8296H140.31V0.82959Z" fill="#E30A17"/>
<path d="M157.01 12.8296L162.437 11.0664L159.083 15.6828V9.97639L162.437 14.5928L157.01 12.8296ZM157.38 16.038C156.685 17.1365 155.652 17.9795 154.436 18.4402C153.221 18.9009 151.888 18.9543 150.64 18.5924C149.391 18.2306 148.294 17.473 147.513 16.4337C146.732 15.3944 146.31 14.1296 146.31 12.8296C146.31 11.5296 146.732 10.2648 147.513 9.22552C148.294 8.18621 149.391 7.42862 150.64 7.06675C151.888 6.70488 153.221 6.7583 154.436 7.21899C155.652 7.67967 156.685 8.52269 157.38 9.62119C156.731 8.89886 155.878 8.39042 154.934 8.16302C153.99 7.93563 152.999 7.99998 152.092 8.34758C151.185 8.69518 150.405 9.30967 149.855 10.1099C149.305 10.9101 149.01 11.8584 149.01 12.8296C149.01 13.8007 149.305 14.7491 149.855 15.5493C150.405 16.3495 151.185 16.964 152.092 17.3116C152.999 17.6592 153.99 17.7236 154.934 17.4962C155.878 17.2688 156.731 16.7603 157.38 16.038Z" fill="white"/>
</g>
</g>
</g>
<defs>
<clipPath id="clip0_17_5441">
<rect x="146.31" y="0.82959" width="24" height="24" rx="12" fill="white"/>
</clipPath>
<clipPath id="clip1_17_5441">
<rect width="24" height="24" fill="white" transform="translate(146.31 0.82959)"/>
</clipPath>
<clipPath id="clip2_17_5441">
<rect width="36" height="24" fill="white" transform="translate(140.31 0.82959)"/>
</clipPath>
</defs>
</svg>
