<svg width="200" height="25" viewBox="0 0 200 25" fill="none" xmlns="http://www.w3.org/2000/svg">
<g clip-path="url(#clip0_17_5392)">
<g clip-path="url(#clip1_17_5392)">
<g clip-path="url(#clip2_17_5392)">
<path d="M101.64 0.82959H137.64V24.8296H101.64V0.82959Z" fill="white"/>
<path d="M120.164 21.0992C120.159 21.097 120.154 21.0937 120.15 21.0894L120.145 21.0848C120.123 21.064 120.102 21.0421 120.082 21.019C120.029 20.9585 119.957 20.8699 119.894 20.7916C119.77 20.6363 119.667 20.5025 119.647 20.4773L119.616 20.436L119.305 20.3402L119.078 20.2345L119.199 20.0982L119.616 20.2765L119.926 20.3402L120.501 20.7628L120.5 20.7632C120.499 20.7641 120.417 20.8327 120.335 20.9072C120.298 20.9404 120.252 20.9832 120.22 21.0185C120.206 21.0328 120.194 21.0481 120.183 21.0641C120.176 21.0755 120.17 21.0872 120.164 21.0993M118.03 20.4585C117.75 20.4559 117.475 20.3791 117.235 20.2358H117.234V20.2355C117.264 20.1866 117.303 20.1444 117.349 20.1115C117.427 20.0545 117.567 19.9864 117.793 19.9855H117.798C118.066 19.9855 118.394 20.0766 118.773 20.2563C118.548 20.3898 118.292 20.4597 118.03 20.4585ZM116.856 20.1981C116.832 20.1985 116.808 20.194 116.787 20.1849C116.765 20.1757 116.745 20.162 116.729 20.1448C116.7 20.1118 116.681 20.0722 116.672 20.0296C116.659 19.9744 116.654 19.9175 116.658 19.8609C116.678 19.8524 116.699 19.8476 116.72 19.8468H116.725C116.825 19.8468 116.904 19.9339 116.938 20.0202C116.957 20.0584 116.961 20.1021 116.949 20.1429C116.941 20.1604 116.928 20.1749 116.911 20.1847C116.894 20.1945 116.875 20.199 116.856 20.1977L116.856 20.1981ZM118.923 19.9585C118.228 19.8593 117.934 19.6083 117.809 19.4152C117.731 19.298 117.693 19.1576 117.704 19.0168V19.0162H117.705C117.739 19.0082 117.775 19.0042 117.811 19.0045C117.996 19.0045 118.468 19.0974 118.923 19.9582L118.923 19.9587L118.922 19.9583L118.923 19.9585ZM117.5 19.8209C117.203 19.8209 116.977 19.7697 116.828 19.6689C116.765 19.6284 116.714 19.5713 116.681 19.5039C116.669 19.4783 116.661 19.451 116.657 19.423C116.756 19.3829 116.861 19.3606 116.968 19.357C116.983 19.3562 116.998 19.3558 117.015 19.3558C117.244 19.3558 117.593 19.4306 117.96 19.787L117.961 19.7873H117.96C117.808 19.8084 117.654 19.8196 117.499 19.8209L117.5 19.8209ZM116.063 19.7657C115.75 19.7657 115.321 19.6702 115.053 19.4022L115.052 19.4019H115.053C115.257 19.3538 115.465 19.3261 115.674 19.3194C115.694 19.3189 115.713 19.3187 115.733 19.3186C116.026 19.3186 116.251 19.3755 116.4 19.4876C116.442 19.5127 116.473 19.5524 116.487 19.599C116.489 19.6158 116.486 19.6328 116.479 19.648C116.471 19.6631 116.46 19.676 116.445 19.685C116.378 19.7358 116.258 19.7629 116.087 19.7656L116.063 19.7664L116.063 19.7657ZM115.05 19.2457C115.031 19.2457 115.012 19.2415 114.995 19.2335C114.978 19.2254 114.962 19.2136 114.95 19.199C114.928 19.1694 114.913 19.1348 114.906 19.0981C114.896 19.0498 114.892 19.0004 114.894 18.9512V18.9504C114.91 18.9434 114.926 18.9396 114.943 18.9394C114.982 18.9409 115.019 18.9575 115.047 18.9858C115.077 19.0154 115.1 19.0516 115.114 19.0916C115.128 19.1249 115.131 19.162 115.121 19.197C115.116 19.2114 115.106 19.2237 115.093 19.2323C115.08 19.241 115.065 19.2455 115.049 19.2454L115.05 19.2457ZM117.391 19.1929C117.367 19.1933 117.344 19.1888 117.322 19.1797C117.3 19.1705 117.28 19.1568 117.264 19.1396C117.236 19.1066 117.216 19.067 117.207 19.0244C117.194 18.9692 117.19 18.9124 117.193 18.8558C117.213 18.8472 117.234 18.8424 117.256 18.8416H117.26C117.36 18.8416 117.44 18.9287 117.474 19.0151C117.492 19.0533 117.496 19.0969 117.484 19.1378C117.476 19.1552 117.463 19.1698 117.446 19.1796C117.429 19.1893 117.41 19.1939 117.391 19.1926L117.391 19.1929ZM116.25 19.1457C115.621 19.1235 115.294 18.9446 115.131 18.7984C115.061 18.7372 115.004 18.6632 114.961 18.5805C114.946 18.5494 114.934 18.5167 114.925 18.483L114.926 18.4826C114.976 18.4673 115.029 18.4595 115.081 18.4594H115.096C115.308 18.4594 115.74 18.5486 116.25 19.1456V19.146L116.25 19.1457ZM116.934 19.0821C116.428 19.005 116.141 18.7876 115.989 18.6187C115.896 18.5183 115.825 18.3991 115.781 18.2692C115.832 18.2574 115.884 18.2511 115.937 18.2504C115.943 18.2504 115.95 18.2501 115.958 18.2501C115.965 18.2501 115.972 18.2501 115.98 18.2504C116.234 18.256 116.697 18.3713 116.934 19.0818H116.934L116.934 19.0821ZM114.334 18.8389C114.173 18.8394 114.012 18.8202 113.856 18.7816C113.59 18.7153 113.477 18.614 113.428 18.5408C113.407 18.5104 113.393 18.4758 113.387 18.4394C113.384 18.4252 113.384 18.4108 113.385 18.3965L113.387 18.396C113.524 18.3621 113.664 18.3442 113.805 18.3429C113.815 18.3429 113.824 18.3427 113.834 18.3427C113.949 18.3425 114.064 18.3536 114.177 18.3759C114.433 18.4294 114.661 18.5734 114.819 18.7815V18.7818H114.818C114.66 18.8206 114.497 18.8397 114.334 18.8386L114.334 18.8389ZM115.51 18.4117C115.486 18.4123 115.463 18.408 115.441 18.3991C115.419 18.3901 115.399 18.3767 115.383 18.3597C115.354 18.3263 115.335 18.2863 115.326 18.2434C115.313 18.1885 115.308 18.1322 115.312 18.076C115.332 18.0674 115.353 18.0626 115.374 18.0618H115.379C115.479 18.0618 115.558 18.149 115.592 18.2353C115.61 18.2732 115.614 18.3164 115.602 18.3567C115.594 18.3742 115.581 18.3889 115.565 18.3988C115.548 18.4086 115.529 18.4132 115.51 18.4119L115.51 18.4117ZM114.626 18.2905C114.457 18.2428 114.296 18.1725 114.147 18.0815C113.925 17.945 113.654 17.7035 113.621 17.3283H113.621C113.638 17.3247 113.655 17.3226 113.672 17.3221C113.676 17.3221 113.681 17.3219 113.686 17.3219C113.752 17.3219 113.888 17.3405 114.052 17.4652C114.26 17.6244 114.453 17.902 114.626 18.2912L114.626 18.2905ZM115.203 18.2693C115.065 18.2069 114.938 18.1249 114.824 18.0259C114.53 17.7727 114.301 17.4527 114.155 17.0927C114.201 17.0713 114.251 17.0615 114.302 17.064C114.398 17.0667 114.545 17.1068 114.708 17.2825C114.895 17.4844 115.062 17.8161 115.204 18.2686L115.204 18.2698L115.203 18.2694L115.203 18.2693ZM113.707 18.2257C113.514 18.2257 113.448 18.1211 113.429 18.0761C113.41 18.0292 113.402 17.9783 113.407 17.9278V17.927C113.438 17.9192 113.47 17.915 113.503 17.9144H113.509C113.572 17.9129 113.633 17.926 113.689 17.9527C113.746 17.9794 113.795 18.0189 113.833 18.0681C113.843 18.0832 113.874 18.1358 113.848 18.1769C113.827 18.2093 113.78 18.2257 113.707 18.2257L113.707 18.2257ZM113.28 17.6868C113.131 17.6872 112.981 17.6745 112.834 17.6488C112.663 17.6175 112.565 17.4715 112.514 17.3545C112.479 17.2745 112.455 17.1905 112.442 17.1044H112.442C112.974 17.12 113.224 17.2752 113.341 17.4026C113.414 17.478 113.459 17.5755 113.47 17.6795H113.469C113.468 17.6795 113.394 17.6867 113.28 17.6867L113.28 17.6868ZM113.833 17.134C113.79 17.0797 113.75 17.0232 113.712 16.9649C113.649 16.8671 113.591 16.7649 113.591 16.6816C113.591 16.6009 113.572 16.4309 113.56 16.3368C113.546 16.2174 113.532 16.1152 113.53 16.1065H113.531C113.544 16.1114 113.863 16.2311 113.863 16.5302C113.863 16.8292 113.834 17.1307 113.833 17.1337V17.1342H113.833L113.833 17.134ZM113.42 17.1056C113.417 17.1056 113.413 17.1053 113.41 17.1048C113.316 17.0891 113.15 17.017 112.967 16.9121C112.764 16.7955 112.599 16.6706 112.502 16.5604C112.414 16.46 112.362 16.3022 112.347 16.0914C112.34 15.996 112.342 15.9001 112.351 15.8049C112.368 15.7994 112.385 15.7967 112.403 15.7969C112.474 15.798 112.549 15.8298 112.651 15.8998C112.743 15.9658 112.83 16.0396 112.91 16.1204C113.012 16.2214 113.108 16.3279 113.198 16.4392L113.2 16.4408C113.21 16.4598 113.301 16.6237 113.372 16.7832C113.407 16.8565 113.434 16.9336 113.453 17.013C113.46 17.0362 113.46 17.061 113.453 17.0842C113.45 17.0918 113.444 17.0981 113.437 17.1022C113.432 17.1046 113.426 17.1058 113.42 17.1058L113.42 17.1056Z" fill="#4E5B31"/>
<path d="M119.116 21.0992C119.121 21.097 119.126 21.0937 119.13 21.0894L119.135 21.0848C119.157 21.064 119.178 21.0421 119.198 21.019C119.251 20.9585 119.323 20.8699 119.386 20.7916C119.51 20.6363 119.613 20.5025 119.633 20.4773L119.664 20.436L119.975 20.3402L120.202 20.2345L120.081 20.0982L119.664 20.2765L119.354 20.3402L118.779 20.7628L118.779 20.7632C118.781 20.7641 118.863 20.8327 118.945 20.9072C118.981 20.9404 119.027 20.9832 119.06 21.0185C119.073 21.0328 119.086 21.0481 119.097 21.0641C119.104 21.0755 119.11 21.0872 119.116 21.0993M121.249 20.4585C121.53 20.4559 121.804 20.3791 122.045 20.2358H122.045V20.2355C122.016 20.1866 121.977 20.1444 121.93 20.1115C121.853 20.0545 121.713 19.9864 121.486 19.9855H121.482C121.214 19.9855 120.886 20.0766 120.507 20.2563C120.731 20.3898 120.988 20.4597 121.249 20.4585ZM122.424 20.1981C122.448 20.1985 122.471 20.194 122.493 20.1849C122.515 20.1757 122.535 20.162 122.551 20.1448C122.579 20.1118 122.599 20.0722 122.608 20.0296C122.621 19.9744 122.625 19.9175 122.622 19.8609C122.602 19.8524 122.581 19.8476 122.559 19.8468H122.555C122.454 19.8468 122.375 19.9339 122.341 20.0202C122.323 20.0584 122.319 20.1021 122.33 20.1429C122.339 20.1604 122.352 20.1749 122.369 20.1847C122.385 20.1945 122.405 20.199 122.424 20.1977L122.424 20.1981ZM120.357 19.9585C121.051 19.8593 121.346 19.6083 121.47 19.4152C121.549 19.298 121.586 19.1576 121.576 19.0168V19.0162H121.575C121.54 19.0082 121.505 19.0042 121.469 19.0045C121.284 19.0045 120.812 19.0974 120.357 19.9582L120.357 19.9587L120.357 19.9583L120.357 19.9585ZM121.78 19.8209C122.077 19.8209 122.303 19.7697 122.451 19.6689C122.515 19.6284 122.566 19.5713 122.599 19.5039C122.611 19.4783 122.619 19.451 122.623 19.423C122.524 19.3829 122.419 19.3606 122.312 19.357C122.297 19.3562 122.281 19.3558 122.265 19.3558C122.036 19.3558 121.687 19.4306 121.319 19.787L121.319 19.7873H121.319C121.472 19.8084 121.626 19.8196 121.781 19.8209L121.78 19.8209ZM123.217 19.7657C123.529 19.7657 123.959 19.6702 124.227 19.4022L124.227 19.4019H124.227C124.023 19.3538 123.815 19.3261 123.606 19.3194C123.586 19.3189 123.566 19.3187 123.547 19.3186C123.253 19.3186 123.029 19.3755 122.879 19.4876C122.838 19.5127 122.807 19.5524 122.792 19.599C122.791 19.6158 122.794 19.6328 122.801 19.648C122.809 19.6631 122.82 19.676 122.835 19.685C122.902 19.7358 123.022 19.7629 123.192 19.7656L123.216 19.7664L123.217 19.7657ZM124.23 19.2457C124.249 19.2457 124.268 19.2415 124.285 19.2335C124.302 19.2254 124.317 19.2136 124.329 19.199C124.352 19.1694 124.367 19.1348 124.374 19.0981C124.384 19.0498 124.388 19.0004 124.385 18.9512V18.9504C124.37 18.9434 124.353 18.9396 124.337 18.9394C124.297 18.9409 124.26 18.9575 124.233 18.9858C124.203 19.0154 124.18 19.0516 124.166 19.0916C124.151 19.1249 124.149 19.162 124.158 19.197C124.164 19.2114 124.174 19.2237 124.187 19.2323C124.2 19.241 124.215 19.2455 124.23 19.2454L124.23 19.2457ZM121.889 19.1929C121.913 19.1933 121.936 19.1888 121.958 19.1797C121.98 19.1705 122 19.1568 122.016 19.1396C122.044 19.1066 122.064 19.067 122.073 19.0244C122.086 18.9692 122.09 18.9124 122.087 18.8558C122.067 18.8472 122.046 18.8424 122.024 18.8416H122.02C121.919 18.8416 121.84 18.9287 121.806 19.0151C121.788 19.0533 121.784 19.0969 121.795 19.1378C121.804 19.1552 121.817 19.1698 121.834 19.1796C121.85 19.1893 121.87 19.1939 121.889 19.1926L121.889 19.1929ZM123.029 19.1457C123.659 19.1235 123.985 18.9446 124.149 18.7984C124.219 18.7372 124.276 18.6632 124.318 18.5805C124.334 18.5494 124.346 18.5167 124.355 18.483L124.354 18.4826C124.303 18.4673 124.251 18.4595 124.198 18.4594H124.184C123.971 18.4594 123.539 18.5486 123.03 19.1456V19.146L123.029 19.1457ZM122.346 19.0821C122.852 19.005 123.139 18.7876 123.291 18.6187C123.384 18.5183 123.455 18.3991 123.499 18.2692C123.448 18.2574 123.396 18.2511 123.343 18.2504C123.336 18.2504 123.329 18.2501 123.322 18.2501C123.315 18.2501 123.308 18.2501 123.3 18.2504C123.045 18.256 122.583 18.3713 122.346 19.0818H122.346L122.346 19.0821ZM124.946 18.8389C125.107 18.8394 125.268 18.8202 125.424 18.7816C125.689 18.7153 125.803 18.614 125.852 18.5408C125.873 18.5104 125.887 18.4758 125.893 18.4394C125.895 18.4252 125.896 18.4108 125.894 18.3965L125.893 18.396C125.756 18.3621 125.616 18.3442 125.475 18.3429C125.465 18.3429 125.455 18.3427 125.446 18.3427C125.331 18.3425 125.216 18.3536 125.103 18.3759C124.847 18.4294 124.619 18.5734 124.461 18.7815V18.7818H124.461C124.62 18.8206 124.783 18.8397 124.946 18.8386L124.946 18.8389ZM123.77 18.4117C123.794 18.4123 123.817 18.408 123.839 18.3991C123.861 18.3901 123.881 18.3767 123.897 18.3597C123.926 18.3263 123.945 18.2863 123.954 18.2434C123.967 18.1885 123.971 18.1322 123.968 18.076C123.948 18.0674 123.927 18.0626 123.905 18.0618H123.901C123.801 18.0618 123.721 18.149 123.687 18.2353C123.669 18.2732 123.666 18.3164 123.678 18.3567C123.686 18.3742 123.699 18.3889 123.715 18.3988C123.732 18.4086 123.751 18.4132 123.77 18.4119L123.77 18.4117ZM124.654 18.2905C124.823 18.2428 124.984 18.1725 125.133 18.0815C125.355 17.945 125.626 17.7035 125.659 17.3283H125.658C125.642 17.3247 125.625 17.3226 125.607 17.3221C125.603 17.3221 125.599 17.3219 125.594 17.3219C125.528 17.3219 125.392 17.3405 125.228 17.4652C125.019 17.6244 124.826 17.902 124.654 18.2912L124.654 18.2905ZM124.077 18.2693C124.214 18.2069 124.342 18.1249 124.456 18.0259C124.75 17.7727 124.979 17.4527 125.124 17.0927C125.079 17.0713 125.029 17.0615 124.978 17.064C124.882 17.0667 124.735 17.1068 124.572 17.2825C124.385 17.4844 124.218 17.8161 124.076 18.2686L124.076 18.2698L124.077 18.2694L124.077 18.2693ZM125.573 18.2257C125.765 18.2257 125.831 18.1211 125.851 18.0761C125.87 18.0292 125.878 17.9783 125.873 17.9278V17.927C125.842 17.9192 125.809 17.915 125.777 17.9144H125.77C125.708 17.9129 125.647 17.926 125.59 17.9527C125.534 17.9794 125.485 18.0189 125.447 18.0681C125.437 18.0832 125.406 18.1358 125.431 18.1769C125.452 18.2093 125.499 18.2257 125.573 18.2257L125.573 18.2257ZM126 17.6868C126.149 17.6872 126.298 17.6745 126.445 17.6488C126.617 17.6175 126.715 17.4715 126.766 17.3545C126.801 17.2745 126.825 17.1905 126.838 17.1044H126.837C126.306 17.12 126.055 17.2752 125.938 17.4026C125.866 17.478 125.821 17.5755 125.81 17.6795H125.81C125.811 17.6795 125.886 17.6867 126 17.6867L126 17.6868ZM125.447 17.134C125.49 17.0797 125.53 17.0232 125.568 16.9649C125.631 16.8671 125.689 16.7649 125.689 16.6816C125.689 16.6009 125.708 16.4309 125.719 16.3368C125.734 16.2174 125.748 16.1152 125.749 16.1065H125.749C125.735 16.1114 125.416 16.2311 125.416 16.5302C125.416 16.8292 125.446 17.1307 125.446 17.1337V17.1342H125.447L125.447 17.134ZM125.86 17.1056C125.863 17.1056 125.866 17.1053 125.87 17.1048C125.964 17.0891 126.13 17.017 126.313 16.9121C126.516 16.7955 126.681 16.6706 126.778 16.5604C126.866 16.46 126.918 16.3022 126.933 16.0914C126.939 15.996 126.938 15.9001 126.929 15.8049C126.912 15.7994 126.894 15.7967 126.877 15.7969C126.806 15.798 126.731 15.8298 126.629 15.8998C126.536 15.9658 126.45 16.0396 126.369 16.1204C126.268 16.2214 126.172 16.3279 126.081 16.4392L126.08 16.4408C126.07 16.4598 125.979 16.6237 125.908 16.7832C125.873 16.8565 125.845 16.9336 125.827 17.013C125.82 17.0362 125.82 17.061 125.827 17.0842C125.83 17.0918 125.835 17.0981 125.842 17.1022C125.848 17.1046 125.854 17.1058 125.86 17.1058L125.86 17.1056Z" fill="#4E5B31"/>
<path d="M130.725 4.98806L130.631 5.02558L130.594 5.0403L130.48 5.03402L130.373 5.08534L130.183 5.2149L130.175 5.2209L130.104 5.23934L130.039 5.21102L130.001 5.22798L129.989 5.30478L129.953 5.35994L129.909 5.39062L129.758 5.4061L129.63 5.4719L129.464 5.42746L129.387 5.45766L129.223 5.60534L129.14 5.64502L129.11 5.64334L128.999 5.63762L128.952 5.65298L128.882 5.7207L128.75 5.73102L128.708 5.75962L128.644 5.89002L128.573 5.96234L128.533 5.97082L128.49 5.95482L128.457 5.96058L128.442 6.04402L128.411 6.07898L128.322 6.10954L128.251 6.16862L128.189 6.20062L128.105 6.19854H128.086L128.003 6.24438L127.847 6.25806L127.782 6.32002L127.768 6.33326L127.738 6.35158L127.688 6.38118L127.676 6.38854L127.616 6.37786L127.546 6.40558L127.518 6.36202L127.469 6.3911L127.405 6.39386L127.325 6.3583L127.264 6.33118L127.22 6.33762L127.204 6.41522L127.203 6.42346L127.156 6.48574L127.069 6.53866L127.057 6.55414L126.957 6.68246L126.768 6.8811L126.609 6.96222L126.443 7.01258L126.327 7.10778L126.023 7.25846L125.543 7.49738L125.445 7.52882L125.304 7.5513L125.053 7.64378L124.832 7.71062L124.819 7.71438L124.775 7.72766L124.463 7.82218L124.318 7.80682L124.231 7.8381L124.007 7.81322L123.851 7.8163L123.753 7.83682L123.567 7.92578L123.254 8.07626L123.151 8.1709L122.99 8.2549L122.801 8.31462L122.801 8.23538L122.8 8.23202L122.735 8.2527L122.688 8.26762L122.535 8.29122H122.449L122.397 8.27586L122.389 8.27862L122.076 8.38138L121.727 8.41506L121.553 8.47106L121.422 8.46898L121.341 8.49322L121.181 8.51278L121.124 8.49754L121.111 8.49402L120.641 8.51442L120.426 8.49014L120.323 8.51346L120.151 8.45562L119.9 8.42654L119.842 8.40898L119.71 8.36986L119.65 8.40422L119.606 8.40898L119.499 8.3703L119.461 8.36934L119.373 8.40134L119.322 8.38834L119.275 8.35082L119.164 8.33438L119.097 8.27782L118.721 8.32766L118.619 8.29766L118.277 8.19798L118.222 8.20074L118.154 8.25158L118.052 8.28874L117.964 8.31174L117.844 8.31574L117.704 8.27902L117.559 8.2091L117.506 8.19642L117.387 8.20842L117.351 8.2117L117.132 8.09442L116.85 7.91842L116.659 7.82642L116.587 7.81478L116.578 7.8489L116.613 7.9609L116.625 8.07186L116.622 8.17438L116.62 8.23786L116.638 8.29486L116.707 8.37134L116.735 8.44814L116.756 8.6595L116.756 8.87398L116.723 9.21602L116.711 9.26802L116.671 9.44522L116.635 9.60798L116.493 10.0413L116.454 10.095L116.358 10.1603L116.142 10.3078L115.982 10.3998L115.931 10.4207L115.802 10.4305L115.721 10.4265L115.621 10.3721L115.522 10.3467L115.393 10.2537L115.249 10.2239L115.091 10.1328L115.05 10.0835L114.964 10.0755L114.845 10.0398V10.0396L114.801 10.0265L114.771 10.0177L114.619 10.0137L114.478 9.94834L114.403 9.93034L114.301 9.92518L114.194 9.97474L114.14 9.9999L114.072 9.97278L114.023 9.97586L113.967 10.0605L113.96 10.0734L113.921 10.0938L113.873 10.0931L113.836 10.0921L113.795 10.1099L113.74 10.1336L113.692 10.1547L113.668 10.1649L113.668 10.1645L113.654 10.1674L113.628 10.1719L113.596 10.178L113.539 10.145L113.509 10.1273L113.459 10.1171L113.432 10.1367L113.427 10.2287L113.402 10.2838L113.324 10.3531L113.244 10.4233L113.188 10.5052L113.041 10.8408L112.949 10.9762L112.921 11.0078L112.824 11.1142L112.738 11.1805L112.542 11.3331L112.355 11.4027L112.195 11.4355L112.117 11.4358L111.969 11.4161L111.836 11.3753L111.69 11.2841L111.53 11.1554L111.298 10.9264L111.265 10.9067L111.258 10.9021L111.185 10.8555L111.131 10.8569L111.11 10.8918L111.098 10.9423L111.089 10.9871L111.062 11.2418L111.064 11.2566L111.078 11.3615L111.254 11.6075L111.308 11.7381L111.317 11.7531L111.353 11.8141L111.381 11.8606L111.384 11.8653L111.444 12.0448L111.402 12.1462L111.423 12.2142L111.37 12.2557L111.36 12.3143L111.518 12.5124L111.552 12.5998L111.514 12.7209L111.452 12.7878L111.435 12.8061L111.444 12.8573L111.516 12.9227L111.64 13.0327L111.706 13.1961L111.756 13.2401L111.814 13.2277L111.847 13.2524L111.896 13.2516L111.944 13.2999L111.975 13.3151L112.025 13.3397L112.064 13.3906L112.073 13.547L112.145 13.7414L112.147 13.8468L112.147 13.8618L112.192 13.9397L112.207 14.0012L112.183 14.164L112.24 14.2162L112.303 14.2034L112.344 14.2098L112.409 14.264L112.487 14.384L112.564 14.3727L112.613 14.3963L112.849 14.6096L112.903 14.6367L112.906 14.6383L112.944 14.6577L112.992 14.706L113.067 14.6567L113.075 14.6559L113.155 14.6487L113.191 14.6727L113.259 14.7187L113.348 14.7175L113.542 14.7769L113.627 14.7987L113.797 14.9046L113.87 14.9494L113.913 14.9842L113.97 15.0307L114.083 15.0796L114.181 15.103L114.234 15.1155L114.274 15.1309L114.275 15.1284H114.275L114.274 15.1309L114.486 15.2119L114.6 15.2386L114.706 15.2776L114.783 15.3056L114.84 15.3065L114.92 15.2392L114.997 15.2347L115.062 15.2507L115.124 15.2402L115.224 15.179L115.243 15.1502L115.314 15.1167L115.551 15.0871L115.621 15.1097L115.799 15.0321L115.919 15.0653L116.025 15.0278L116.256 15.0792L116.317 15.1224L116.386 15.201L116.394 15.2014L116.471 15.2029L116.439 15.2561L116.54 15.362L116.631 15.4998L116.637 15.518L116.703 15.7125L116.753 15.7815L116.787 15.8777L116.789 15.9404L116.735 15.9813L116.726 16.0046L116.723 16.0132L116.734 16.0394L116.754 16.0284L116.793 16.0071L116.84 15.9998L116.923 16.0086L116.977 16.0143L117.063 15.9715L117.12 15.9431L117.212 15.9826L117.313 15.9815L117.355 16.0003L117.475 16.0547L117.536 16.0604L117.559 16.0456L117.573 16.0113L117.566 15.9713L117.52 15.9186L117.419 15.8011L117.377 15.7407L117.346 15.6532L117.336 15.5414L117.329 15.466L117.341 15.3669L117.369 15.3315L117.389 15.2528H117.389L117.394 15.2322L117.45 15.1576L117.599 15.0619L117.759 14.9186L117.886 14.8352L118.016 14.7787L118.02 14.7627L118.034 14.7685L118.366 14.6558L118.371 14.6551L118.519 14.6294L119.516 14.6996L119.553 14.6885V14.6882L119.586 14.595L119.604 14.5777L119.616 14.5665L119.726 14.5182L119.777 14.5109L119.919 14.546L119.977 14.5604L120.071 14.5081L120.137 14.5092L120.273 14.4346L120.358 14.4367L120.39 14.4239L120.554 14.3057L120.713 14.2603L120.754 14.2383L120.768 14.2303L120.931 14.1446L121.034 14.0653L121.123 14.018L121.221 13.9929L121.476 13.9749L121.527 13.8894L121.637 13.8747L121.703 13.7999L121.779 13.7691L121.834 13.6908L121.879 13.6251L121.943 13.5883L122.147 13.5755L122.389 13.6055L122.421 13.5861L122.475 13.3911L122.532 13.3545L122.686 13.13L122.687 13.0482V12.9799L122.712 12.8826L122.695 12.7069L122.715 12.5291L122.811 12.3031L122.896 12.2119L123.032 12.1199L123.101 12.0898L123.199 12.0733V12.0734L123.213 12.0709L123.238 12.0667L123.575 12.062C123.58 12.0585 123.698 12.0603 123.698 12.0603L123.811 12.0588L124.095 12.1094L124.115 12.1129L124.211 12.1441L124.322 12.2303L124.44 12.3451L124.462 12.3665L124.538 12.3985L124.561 12.4085L124.624 12.3985L124.713 12.3519L124.781 12.2948L124.873 12.2445L124.875 12.2413L124.927 12.1634L124.928 12.1618L124.929 12.1621V12.1617H124.929L124.949 12.1307L125.127 12.0613L125.336 12.0493L125.36 12.0366L125.373 12.0296L125.428 11.9647L125.48 11.9643L125.605 12.0097L125.693 11.9921L125.763 12.0201L125.818 12.0137L125.92 12.0017L126.03 12.0792L126.095 12.0872L126.321 12.2196L126.333 12.2215L126.339 12.2226L126.352 12.2248L126.379 12.2168L126.419 12.2052L126.424 12.2037L126.429 12.2107L126.455 12.2469L126.49 12.252L126.532 12.1963L126.515 12.171L126.509 12.1618L126.428 12.1453L126.355 12.0213L126.424 11.9469L126.316 11.8139L126.298 11.7918L126.292 11.7825L126.254 11.7255L126.065 11.4361L125.817 11.2387L125.731 11.1695L125.73 11.1691L125.7 11.1451L125.568 11.0107L125.473 10.8855L125.461 10.8586L125.442 10.8161L125.385 10.693L125.287 10.617L125.206 10.5293L125.202 10.5242L125.037 10.2991L125.01 10.2614L124.97 10.2388L124.888 10.2383L124.88 10.2303L124.875 10.2254L124.878 10.2225L124.918 10.1831L124.962 10.1719L124.981 10.1284L124.897 9.88438L124.896 9.87586L124.89 9.79786L124.958 9.44366L124.967 9.4005L125.084 9.16218L125.157 9.10274L125.236 8.94706L125.304 8.84754L125.369 8.78426L125.38 8.77754L125.498 8.7065L125.596 8.69262L125.69 8.67938L125.854 8.72994L126.01 8.7269L126.041 8.72366L126.112 8.71566L126.228 8.67898L126.283 8.64506L126.311 8.60134L126.371 8.40186L126.39 8.33838L126.427 8.26942L126.639 8.0251L126.799 7.8767L127.16 7.61218L127.337 7.50662L127.427 7.45274L128.232 7.0949L128.441 6.8829L128.55 6.77258L128.743 6.64318L128.969 6.55074L129.163 6.39706L129.205 6.3437L129.259 6.1717L129.303 6.16094L129.343 6.07398L129.355 6.04926L129.513 5.93758L129.531 5.92866L130.147 5.62026L130.236 5.63254L130.284 5.56082L130.463 5.53078L130.496 5.52518L130.54 5.50314L130.578 5.43914V5.4265L130.583 5.25558L130.621 5.20938L130.642 5.09674L130.661 5.07074L130.682 5.0437L130.733 5.00806L130.724 4.98682L130.725 4.98806Z" fill="#D57800"/>
</g>
</g>
</g>
<g clip-path="url(#clip3_17_5392)">
<g clip-path="url(#clip4_17_5392)">
<g clip-path="url(#clip5_17_5392)">
<path d="M120.64 0.82959H156.64V24.8296H120.64V0.82959Z" fill="#ED2939"/>
<path d="M120.64 0.82959H144.64V24.8296H120.64V0.82959Z" fill="white"/>
<path d="M120.64 0.82959H132.64V24.8296H120.64V0.82959Z" fill="#002395"/>
</g>
</g>
</g>
<g clip-path="url(#clip6_17_5392)">
<g clip-path="url(#clip7_17_5392)">
<g clip-path="url(#clip8_17_5392)">
<path d="M139.64 0.82959H175.64V24.8296H139.64V0.82959Z" fill="#E30A17"/>
<path d="M156.34 12.8296L161.767 11.0664L158.413 15.6828V9.97639L161.767 14.5928L156.34 12.8296ZM156.71 16.038C156.015 17.1365 154.982 17.9795 153.766 18.4402C152.55 18.9009 151.218 18.9543 149.969 18.5924C148.721 18.2306 147.624 17.473 146.843 16.4337C146.062 15.3944 145.64 14.1296 145.64 12.8296C145.64 11.5296 146.062 10.2648 146.843 9.22552C147.624 8.18621 148.721 7.42862 149.969 7.06675C151.218 6.70488 152.55 6.7583 153.766 7.21899C154.982 7.67967 156.015 8.52269 156.71 9.62119C156.061 8.89886 155.208 8.39042 154.263 8.16302C153.319 7.93563 152.328 7.99998 151.422 8.34758C150.515 8.69518 149.735 9.30967 149.184 10.1099C148.634 10.9101 148.34 11.8584 148.34 12.8296C148.34 13.8007 148.634 14.7491 149.184 15.5493C149.735 16.3495 150.515 16.964 151.422 17.3116C152.328 17.6592 153.319 17.7236 154.263 17.4962C155.208 17.2688 156.061 16.7603 156.71 16.038Z" fill="white"/>
</g>
</g>
</g>
<defs>
<clipPath id="clip0_17_5392">
<rect x="107.64" y="0.82959" width="24" height="24" rx="12" fill="white"/>
</clipPath>
<clipPath id="clip1_17_5392">
<rect width="24" height="24" fill="white" transform="translate(107.64 0.82959)"/>
</clipPath>
<clipPath id="clip2_17_5392">
<rect width="36" height="24" fill="white" transform="translate(101.64 0.82959)"/>
</clipPath>
<clipPath id="clip3_17_5392">
<rect x="126.64" y="0.82959" width="24" height="24" rx="12" fill="white"/>
</clipPath>
<clipPath id="clip4_17_5392">
<rect width="24" height="24" fill="white" transform="translate(126.64 0.82959)"/>
</clipPath>
<clipPath id="clip5_17_5392">
<rect width="36" height="24" fill="white" transform="translate(120.64 0.82959)"/>
</clipPath>
<clipPath id="clip6_17_5392">
<rect x="145.64" y="0.82959" width="24" height="24" rx="12" fill="white"/>
</clipPath>
<clipPath id="clip7_17_5392">
<rect width="24" height="24" fill="white" transform="translate(145.64 0.82959)"/>
</clipPath>
<clipPath id="clip8_17_5392">
<rect width="36" height="24" fill="white" transform="translate(139.64 0.82959)"/>
</clipPath>
</defs>
</svg>
