<svg width="49" height="49" viewBox="0 0 49 49" fill="none" xmlns="http://www.w3.org/2000/svg">
<rect x="0.659912" y="0.830078" width="48" height="48" rx="24" fill="white"/>
<g clip-path="url(#clip0_17_5487)">
<g clip-path="url(#clip1_17_5487)">
<g clip-path="url(#clip2_17_5487)">
<path d="M21.6983 22.2555C22.2678 23.4416 23.0441 24.5532 24.0271 25.5363C25.0103 26.5194 26.1219 27.2957 27.308 27.8652C27.41 27.9141 27.461 27.9386 27.5255 27.9575C27.7549 28.0243 28.0366 27.9763 28.2308 27.8372C28.2855 27.798 28.3323 27.7513 28.4258 27.6578C28.7118 27.3716 28.8548 27.2286 28.9987 27.1352C29.541 26.7825 30.2403 26.7825 30.7826 27.1352C30.9265 27.2286 31.0695 27.3716 31.3555 27.6578L31.5149 27.8171C31.9498 28.252 32.1672 28.4694 32.2852 28.7029C32.5201 29.1672 32.5201 29.7156 32.2852 30.18C32.1672 30.4135 31.9498 30.6309 31.5149 31.0657L31.386 31.1947C30.9526 31.6281 30.736 31.8447 30.4414 32.0102C30.1145 32.1938 29.6068 32.3258 29.2319 32.3247C28.8941 32.3237 28.6631 32.2581 28.2013 32.1271C25.7195 31.4226 23.3775 30.0936 21.4237 28.1397C19.4699 26.1859 18.1408 23.844 17.4364 21.3621C17.3053 20.9003 17.2398 20.6694 17.2388 20.3315C17.2377 19.9566 17.3697 19.4489 17.5533 19.1221C17.7188 18.8275 17.9354 18.6108 18.3688 18.1775L18.4977 18.0485C18.9326 17.6137 19.15 17.3963 19.3835 17.2782C19.8478 17.0433 20.3962 17.0433 20.8606 17.2782C21.0941 17.3963 21.3115 17.6137 21.7463 18.0485L21.9058 18.208C22.1918 18.494 22.3348 18.637 22.4283 18.7808C22.781 19.3232 22.781 20.0224 22.4283 20.5648C22.3348 20.7086 22.1918 20.8516 21.9058 21.1377C21.8122 21.2312 21.7655 21.278 21.7263 21.3326C21.5872 21.5269 21.5392 21.8085 21.6061 22.0379C21.6249 22.1025 21.6494 22.1535 21.6983 22.2555Z" stroke="#122644" stroke-width="1.63636" stroke-linecap="round" stroke-linejoin="round"/>
</g>
</g>
</g>
<defs>
<clipPath id="clip0_17_5487">
<rect width="18" height="18" fill="white" transform="translate(15.6599 15.8301)"/>
</clipPath>
<clipPath id="clip1_17_5487">
<rect width="18" height="18" fill="white" transform="translate(15.6599 15.8301)"/>
</clipPath>
<clipPath id="clip2_17_5487">
<rect width="18" height="18" fill="white" transform="translate(15.6599 15.8301)"/>
</clipPath>
</defs>
</svg>
