<svg width="49" height="49" viewBox="0 0 49 49" fill="none" xmlns="http://www.w3.org/2000/svg">
<rect x="0.310059" y="0.830078" width="48" height="48" rx="24" fill="white"/>
<g clip-path="url(#clip0_17_5503)">
<g clip-path="url(#clip1_17_5503)">
<g clip-path="url(#clip2_17_5503)">
<path d="M24.3101 25.2051C25.5527 25.2051 26.5601 24.1978 26.5601 22.9551C26.5601 21.7124 25.5527 20.7051 24.3101 20.7051C23.0674 20.7051 22.0601 21.7124 22.0601 22.9551C22.0601 24.1978 23.0674 25.2051 24.3101 25.2051Z" stroke="#122644" stroke-width="1.5" stroke-linecap="round" stroke-linejoin="round"/>
<path d="M24.3101 32.3301C25.8101 29.3301 30.3101 27.3938 30.3101 23.3301C30.3101 20.0164 27.6238 17.3301 24.3101 17.3301C20.9963 17.3301 18.3101 20.0164 18.3101 23.3301C18.3101 27.3938 22.8101 29.3301 24.3101 32.3301Z" stroke="#122644" stroke-width="1.5" stroke-linecap="round" stroke-linejoin="round"/>
</g>
</g>
</g>
<defs>
<clipPath id="clip0_17_5503">
<rect width="18" height="18" fill="white" transform="translate(15.3101 15.8301)"/>
</clipPath>
<clipPath id="clip1_17_5503">
<rect width="18" height="18" fill="white" transform="translate(15.3101 15.8301)"/>
</clipPath>
<clipPath id="clip2_17_5503">
<rect width="18" height="18" fill="white" transform="translate(15.3101 15.8301)"/>
</clipPath>
</defs>
</svg>
