<svg width="49" height="48" viewBox="0 0 49 48" fill="none" xmlns="http://www.w3.org/2000/svg">
<rect x="0.310059" width="48" height="48" rx="24" fill="white"/>
<g clip-path="url(#clip0_17_1763)">
<g clip-path="url(#clip1_17_1763)">
<path d="M24.3101 24.375C25.5527 24.375 26.5601 23.3677 26.5601 22.125C26.5601 20.8824 25.5527 19.875 24.3101 19.875C23.0674 19.875 22.0601 20.8824 22.0601 22.125C22.0601 23.3677 23.0674 24.375 24.3101 24.375Z" stroke="#122644" stroke-width="1.5" stroke-linecap="round" stroke-linejoin="round"/>
<path d="M24.3101 31.5C25.8101 28.5 30.3101 26.5637 30.3101 22.5C30.3101 19.1863 27.6238 16.5 24.3101 16.5C20.9963 16.5 18.3101 19.1863 18.3101 22.5C18.3101 26.5637 22.8101 28.5 24.3101 31.5Z" stroke="#122644" stroke-width="1.5" stroke-linecap="round" stroke-linejoin="round"/>
</g>
</g>
<defs>
<clipPath id="clip0_17_1763">
<rect width="18" height="18" fill="white" transform="translate(15.3101 15)"/>
</clipPath>
<clipPath id="clip1_17_1763">
<rect width="18" height="18" fill="white" transform="translate(15.3101 15)"/>
</clipPath>
</defs>
</svg>
