<svg width="49" height="48" viewBox="0 0 49 48" fill="none" xmlns="http://www.w3.org/2000/svg">
<rect x="0.659912" width="48" height="48" rx="24" fill="white"/>
<g clip-path="url(#clip0_17_1747)">
<g clip-path="url(#clip1_17_1747)">
<g clip-path="url(#clip2_17_1747)">
<path d="M21.6983 21.4254C22.2678 22.6115 23.0441 23.7231 24.0271 24.7062C25.0103 25.6893 26.1219 26.4656 27.308 27.0351C27.41 27.084 27.461 27.1086 27.5255 27.1274C27.7549 27.1942 28.0366 27.1462 28.2308 27.0071C28.2855 26.9679 28.3323 26.9212 28.4258 26.8277C28.7118 26.5416 28.8548 26.3985 28.9987 26.3051C29.541 25.9525 30.2403 25.9525 30.7826 26.3051C30.9265 26.3985 31.0695 26.5416 31.3555 26.8277L31.5149 26.9871C31.9498 27.4219 32.1672 27.6393 32.2852 27.8728C32.5201 28.3371 32.5201 28.8856 32.2852 29.35C32.1672 29.5834 31.9498 29.8009 31.5149 30.2356L31.386 30.3646C30.9526 30.798 30.736 31.0146 30.4414 31.1801C30.1145 31.3637 29.6068 31.4957 29.2319 31.4946C28.8941 31.4936 28.6631 31.4281 28.2013 31.297C25.7195 30.5925 23.3775 29.2635 21.4237 27.3097C19.4699 25.3558 18.1408 23.0139 17.4364 20.532C17.3053 20.0702 17.2398 19.8393 17.2388 19.5014C17.2377 19.1265 17.3697 18.6189 17.5533 18.292C17.7188 17.9974 17.9354 17.7808 18.3688 17.3474L18.4977 17.2185C18.9326 16.7836 19.15 16.5662 19.3835 16.4481C19.8478 16.2133 20.3962 16.2133 20.8606 16.4481C21.0941 16.5662 21.3115 16.7836 21.7463 17.2185L21.9058 17.3779C22.1918 17.6639 22.3348 17.807 22.4283 17.9508C22.781 18.4931 22.781 19.1923 22.4283 19.7347C22.3348 19.8785 22.1918 20.0215 21.9058 20.3076C21.8122 20.4011 21.7655 20.4479 21.7263 20.5025C21.5872 20.6968 21.5392 20.9785 21.6061 21.2079C21.6249 21.2724 21.6494 21.3234 21.6983 21.4254Z" stroke="#122644" stroke-width="1.63636" stroke-linecap="round" stroke-linejoin="round"/>
</g>
</g>
</g>
<defs>
<clipPath id="clip0_17_1747">
<rect width="18" height="18" fill="white" transform="translate(15.6599 15)"/>
</clipPath>
<clipPath id="clip1_17_1747">
<rect width="18" height="18" fill="white" transform="translate(15.6599 15)"/>
</clipPath>
<clipPath id="clip2_17_1747">
<rect width="18" height="18" fill="white" transform="translate(15.6599 15)"/>
</clipPath>
</defs>
</svg>
