<svg width="49" height="49" viewBox="0 0 49 49" fill="none" xmlns="http://www.w3.org/2000/svg">
<rect x="0.97998" y="0.830078" width="48" height="48" rx="24" fill="white"/>
<g clip-path="url(#clip0_17_5495)">
<g clip-path="url(#clip1_17_5495)">
<g clip-path="url(#clip2_17_5495)">
<path d="M14.98 19.8301L23.1449 25.5455C23.8061 26.0084 24.1367 26.2398 24.4963 26.3294C24.8139 26.4086 25.1461 26.4086 25.4637 26.3294C25.8233 26.2398 26.1539 26.0084 26.8151 25.5455L34.98 19.8301M19.78 32.8301H30.18C31.8602 32.8301 32.7002 32.8301 33.342 32.5031C33.9065 32.2155 34.3654 31.7566 34.653 31.1921C34.98 30.5503 34.98 29.7103 34.98 28.0301V21.6301C34.98 19.9499 34.98 19.1098 34.653 18.4681C34.3654 17.9036 33.9065 17.4447 33.342 17.1571C32.7002 16.8301 31.8602 16.8301 30.18 16.8301H19.78C18.0998 16.8301 17.2597 16.8301 16.618 17.1571C16.0535 17.4447 15.5946 17.9036 15.307 18.4681C14.98 19.1098 14.98 19.9499 14.98 21.6301V28.0301C14.98 29.7103 14.98 30.5503 15.307 31.1921C15.5946 31.7566 16.0535 32.2155 16.618 32.5031C17.2597 32.8301 18.0998 32.8301 19.78 32.8301Z" stroke="#122644" stroke-width="2" stroke-linecap="round" stroke-linejoin="round"/>
</g>
</g>
</g>
<defs>
<clipPath id="clip0_17_5495">
<rect width="22" height="18" fill="white" transform="translate(13.98 15.8301)"/>
</clipPath>
<clipPath id="clip1_17_5495">
<rect width="22" height="18" fill="white" transform="translate(13.98 15.8301)"/>
</clipPath>
<clipPath id="clip2_17_5495">
<rect width="22" height="18" fill="white" transform="translate(13.98 15.8301)"/>
</clipPath>
</defs>
</svg>
