<svg width="49" height="48" viewBox="0 0 49 48" fill="none" xmlns="http://www.w3.org/2000/svg">
<rect x="0.660034" width="48" height="48" rx="24" fill="white"/>
<g clip-path="url(#clip0_17_1973)">
<g clip-path="url(#clip1_17_1973)">
<g clip-path="url(#clip2_17_1973)">
<path d="M21.6984 21.4254C22.2679 22.6115 23.0442 23.7231 24.0272 24.7062C25.0104 25.6893 26.122 26.4656 27.3081 27.0351C27.4101 27.084 27.4611 27.1086 27.5256 27.1274C27.755 27.1942 28.0367 27.1462 28.2309 27.0071C28.2856 26.9679 28.3324 26.9212 28.4259 26.8277C28.7119 26.5416 28.8549 26.3985 28.9988 26.3051C29.5411 25.9525 30.2403 25.9525 30.7827 26.3051C30.9266 26.3985 31.0696 26.5416 31.3556 26.8277L31.515 26.9871C31.9499 27.4219 32.1672 27.6393 32.2853 27.8728C32.5202 28.3371 32.5202 28.8856 32.2853 29.35C32.1672 29.5834 31.9499 29.8009 31.515 30.2356L31.386 30.3646C30.9527 30.798 30.7361 31.0146 30.4415 31.1801C30.1146 31.3637 29.6069 31.4957 29.232 31.4946C28.8942 31.4936 28.6632 31.4281 28.2014 31.297C25.7196 30.5925 23.3776 29.2635 21.4238 27.3097C19.47 25.3558 18.1409 23.0139 17.4365 20.532C17.3054 20.0702 17.2399 19.8393 17.2389 19.5014C17.2377 19.1265 17.3698 18.6189 17.5534 18.292C17.7189 17.9974 17.9355 17.7808 18.3689 17.3474L18.4978 17.2185C18.9326 16.7836 19.1501 16.5662 19.3836 16.4481C19.8479 16.2133 20.3963 16.2133 20.8607 16.4481C21.0942 16.5662 21.3116 16.7836 21.7464 17.2185L21.9058 17.3779C22.1919 17.6639 22.3349 17.807 22.4284 17.9508C22.781 18.4931 22.781 19.1923 22.4284 19.7347C22.3349 19.8785 22.1919 20.0215 21.9058 20.3076C21.8123 20.4011 21.7655 20.4479 21.7264 20.5025C21.5873 20.6968 21.5393 20.9785 21.6061 21.2079C21.625 21.2724 21.6494 21.3234 21.6984 21.4254Z" stroke="#122644" stroke-width="1.63636" stroke-linecap="round" stroke-linejoin="round"/>
</g>
</g>
</g>
<defs>
<clipPath id="clip0_17_1973">
<rect width="18" height="18" fill="white" transform="translate(15.66 15)"/>
</clipPath>
<clipPath id="clip1_17_1973">
<rect width="18" height="18" fill="white" transform="translate(15.66 15)"/>
</clipPath>
<clipPath id="clip2_17_1973">
<rect width="18" height="18" fill="white" transform="translate(15.66 15)"/>
</clipPath>
</defs>
</svg>
