<svg width="11" height="22" viewBox="0 0 11 22" fill="none" xmlns="http://www.w3.org/2000/svg">
<g clip-path="url(#clip0_2_926)">
<g clip-path="url(#clip1_2_926)">
<path d="M0.695745 8.92855C0.738816 8.96467 0.784665 8.99802 0.824263 9.03692L5.56966 13.7677C5.60926 13.8073 5.65094 13.8455 5.69123 13.8837L10.6992 8.8438L9.69957 7.89764H9.66831C9.64424 7.93043 9.6185 7.96197 9.5912 7.99211C8.32409 9.25783 7.05675 10.5229 5.78918 11.7872C5.76139 11.815 5.72874 11.84 5.69609 11.8678C5.66622 11.8407 5.6426 11.8205 5.62107 11.7983L1.79682 7.97753C1.77306 7.95118 1.75102 7.92333 1.73083 7.89416H1.69957L0.699219 8.89451L0.695745 8.92855Z" fill="#464343"/>
</g>
</g>
<defs>
<clipPath id="clip0_2_926">
<rect width="10" height="21" fill="white" transform="translate(0.699951 0.389999)"/>
</clipPath>
<clipPath id="clip1_2_926">
<rect width="10" height="5.98611" fill="white" transform="translate(0.699951 7.89695)"/>
</clipPath>
</defs>
</svg>
