<svg width="10" height="7" viewBox="0 0 10 7" fill="none" xmlns="http://www.w3.org/2000/svg">
<g clip-path="url(#clip0_56_242)">
<path d="M-0.00420534 1.42835C0.0388652 1.46448 0.084714 1.49782 0.124311 1.53672L4.86971 6.26753C4.90931 6.30713 4.95099 6.34534 4.99128 6.38354L9.99927 1.3436L8.99961 0.397439H8.96835C8.94429 0.430235 8.91855 0.461769 8.89124 0.491916C7.62414 1.75763 6.3568 3.02266 5.08923 4.28698C5.06144 4.31477 5.02879 4.33978 4.99614 4.36757C4.96627 4.34047 4.94265 4.32033 4.92112 4.2981L1.09687 0.477328C1.07311 0.45098 1.05107 0.423136 1.03088 0.393966H0.999615L-0.000732498 1.39431L-0.00420534 1.42835Z" fill="#464343"/>
</g>
<defs>
<clipPath id="clip0_56_242">
<rect width="10" height="5.98611" fill="white" transform="translate(0 0.396729)"/>
</clipPath>
</defs>
</svg>
