<svg width="23" height="18" viewBox="0 0 23 18" fill="none" xmlns="http://www.w3.org/2000/svg">
<g clip-path="url(#clip0_56_115)">
<path d="M1.97998 4L10.1449 9.71544C10.8061 10.1783 11.1367 10.4097 11.4963 10.4993C11.8139 10.5785 12.1461 10.5785 12.4637 10.4993C12.8233 10.4097 13.1539 10.1783 13.8151 9.71544L21.98 4M6.77998 17H17.18C18.8602 17 19.7002 17 20.342 16.673C20.9065 16.3854 21.3654 15.9265 21.653 15.362C21.98 14.7202 21.98 13.8802 21.98 12.2V5.8C21.98 4.11984 21.98 3.27976 21.653 2.63803C21.3654 2.07354 20.9065 1.6146 20.342 1.32698C19.7002 1 18.8602 1 17.18 1H6.77998C5.09982 1 4.25974 1 3.61801 1.32698C3.05352 1.6146 2.59458 2.07354 2.30696 2.63803C1.97998 3.27976 1.97998 4.11984 1.97998 5.8V12.2C1.97998 13.8802 1.97998 14.7202 2.30696 15.362C2.59458 15.9265 3.05352 16.3854 3.61801 16.673C4.25974 17 5.09982 17 6.77998 17Z" stroke="#122644" stroke-width="2" stroke-linecap="round" stroke-linejoin="round"/>
</g>
<defs>
<clipPath id="clip0_56_115">
<rect width="22" height="18" fill="white" transform="translate(0.97998)"/>
</clipPath>
</defs>
</svg>
