<svg width="1139" height="690" viewBox="0 0 1139 690" fill="none" xmlns="http://www.w3.org/2000/svg">
<g clip-path="url(#clip0_17_3263)">
<g clip-path="url(#clip1_17_3263)">
<g clip-path="url(#clip2_17_3263)">
<g opacity="0.2">
<path opacity="0.5" fill-rule="evenodd" clip-rule="evenodd" d="M143.469 -72.1797C120.076 -151.944 80.9973 -214.044 -50.5502 -215.976C-174.667 -217.908 -297.959 -103.092 -277.593 61.1286C-256.128 234.457 -126.782 204.373 -20.8282 276.685C113.746 368.593 18.2507 511.286 48.248 666.674C97.5096 920.594 513.893 860.15 497.381 583.046C497.381 588.014 497.656 578.354 497.381 583.046C497.381 502.73 447.294 434.557 376.841 407.509C375.19 406.681 259.605 350.653 244.468 341.545C147.046 282.205 153.926 144.205 152 24.9725C152 24.9725 155.853 -28.5716 143.193 -71.9037" fill="#952850"/>
<path opacity="0.5" fill-rule="evenodd" clip-rule="evenodd" d="M783.611 -72.1797C760.219 -151.944 721.14 -214.044 589.592 -215.976C465.475 -217.908 342.184 -103.092 362.549 61.1286C384.015 234.457 513.361 204.373 619.314 276.685C753.889 368.593 658.393 511.286 688.39 666.674C737.652 920.594 1154.04 860.15 1137.52 583.046C1137.52 588.014 1137.8 578.354 1137.52 583.046C1137.52 502.73 1087.44 434.557 1016.98 407.509C1015.33 406.681 899.747 350.653 884.611 341.545C787.189 282.205 794.069 144.205 792.142 24.9725C792.142 24.9725 795.995 -28.5716 783.336 -71.9037" fill="#952850"/>
</g>
</g>
</g>
</g>
<defs>
<clipPath id="clip0_17_3263">
<rect width="1139" height="690" fill="white"/>
</clipPath>
<clipPath id="clip1_17_3263">
<rect width="1139" height="690" fill="white"/>
</clipPath>
<clipPath id="clip2_17_3263">
<rect width="1139" height="690" fill="white"/>
</clipPath>
</defs>
</svg>
