<svg width="19" height="18" viewBox="0 0 19 18" fill="none" xmlns="http://www.w3.org/2000/svg">
<g clip-path="url(#clip0_56_104)">
<path d="M6.69834 6.42542C7.26779 7.61148 8.04407 8.72308 9.02715 9.70621C10.0103 10.6893 11.1219 11.4656 12.308 12.0351C12.41 12.084 12.461 12.1086 12.5255 12.1274C12.7549 12.1942 13.0366 12.1462 13.2308 12.0071C13.2855 11.9679 13.3323 11.9212 13.4258 11.8277C13.7118 11.5416 13.8548 11.3985 13.9987 11.3051C14.541 10.9525 15.2403 10.9525 15.7826 11.3051C15.9265 11.3985 16.0695 11.5416 16.3555 11.8277L16.5149 11.9871C16.9498 12.4219 17.1672 12.6393 17.2852 12.8728C17.5201 13.3371 17.5201 13.8856 17.2852 14.35C17.1672 14.5834 16.9498 14.8009 16.5149 15.2356L16.386 15.3646C15.9526 15.798 15.736 16.0146 15.4414 16.1801C15.1145 16.3637 14.6068 16.4957 14.2319 16.4946C13.8941 16.4936 13.6631 16.4281 13.2013 16.297C10.7195 15.5925 8.37755 14.2635 6.42374 12.3097C4.46994 10.3558 3.14083 8.01391 2.4364 5.53204C2.30532 5.07022 2.23977 4.83931 2.23878 4.50144C2.23766 4.12654 2.36968 3.61886 2.55329 3.29199C2.71877 2.99742 2.93543 2.78076 3.36877 2.34743L3.49774 2.21846C3.93255 1.78364 4.14997 1.56623 4.38346 1.44813C4.84783 1.21325 5.39622 1.21325 5.86059 1.44813C6.09408 1.56623 6.3115 1.78364 6.74631 2.21846L6.90575 2.37789C7.19179 2.66393 7.33481 2.80696 7.42832 2.95077C7.78095 3.49314 7.78095 4.19234 7.42832 4.73471C7.33481 4.87852 7.19179 5.02155 6.90575 5.30758C6.81222 5.40112 6.76546 5.44788 6.72632 5.50254C6.58722 5.6968 6.53919 5.97847 6.60605 6.20785C6.62487 6.2724 6.64936 6.3234 6.69834 6.42542Z" stroke="#122644" stroke-width="1.63636" stroke-linecap="round" stroke-linejoin="round"/>
</g>
<defs>
<clipPath id="clip0_56_104">
<rect width="18" height="18" fill="white" transform="translate(0.659912)"/>
</clipPath>
</defs>
</svg>
