<svg width="48" height="49" viewBox="0 0 48 49" fill="none" xmlns="http://www.w3.org/2000/svg">
<g clip-path="url(#clip0_2_727)">
<path d="M34.3296 0.449951H13.3296C6.14989 0.449951 0.32959 6.27025 0.32959 13.45V35.45C0.32959 42.6297 6.14989 48.45 13.3296 48.45H34.3296C41.5093 48.45 47.3296 42.6297 47.3296 35.45V13.45C47.3296 6.27025 41.5093 0.449951 34.3296 0.449951Z" fill="#122644"/>
<path fill-rule="evenodd" clip-rule="evenodd" d="M23.5547 14.4875C17.9321 14.4875 13.3672 19.0524 13.3672 24.675C13.3672 30.2976 17.9321 34.8626 23.5547 34.8626C29.1773 34.8626 33.7422 30.2976 33.7422 24.675C33.7422 19.0524 29.1773 14.4875 23.5547 14.4875ZM16.1003 19.181C14.9648 20.7188 14.2935 22.6187 14.2935 24.6747C14.2935 26.4023 14.7676 28.0203 15.5927 29.405C16.0733 29.4073 16.556 29.4425 17.0408 29.523C17.6933 29.6313 18.3962 29.7698 18.9564 30.1437C19.2274 30.3242 19.4705 30.5501 19.6738 30.804C20.0456 31.2669 20.3336 31.8925 20.2914 32.5007C20.2725 32.7702 20.1951 33.022 20.0882 33.2642C21.1597 33.6975 22.3293 33.936 23.5546 33.936C23.6644 33.936 23.7737 33.9341 23.8821 33.9304C23.55 33.3628 23.1866 32.8076 23.0258 32.1657C22.8407 31.4239 22.9652 30.7506 23.299 30.0742C23.4351 29.799 23.6153 29.5134 23.7593 29.2165C23.8705 28.9873 23.963 28.7521 23.9551 28.5044C23.9413 28.0581 23.6467 27.7499 23.3661 27.431C22.9568 26.9656 22.5503 26.4924 22.4503 25.8636C22.3132 25.0005 22.5706 24.2872 22.9615 23.6171C23.2943 23.0476 23.7315 22.5132 24.0237 21.9172C24.1358 21.6895 24.2224 21.406 24.2285 21.1292C24.2334 20.9129 24.1905 20.6977 24.0325 20.5429C23.9437 20.4553 23.8306 20.4697 23.7209 20.4938C23.4861 20.5448 23.2505 20.6685 23.0486 20.7547C22.0752 21.1686 21.0597 21.4986 19.9886 21.4732C19.0482 21.451 18.2207 21.0124 17.5408 20.3868C17.0945 19.9761 16.6819 19.4075 16.1003 19.181ZM24.8923 33.8398C28.5279 33.3132 31.483 30.6704 32.4661 27.2021C31.8286 27.1401 31.372 26.7122 30.9664 26.1742C30.7635 25.9057 30.5737 25.6106 30.3635 25.3536C30.1987 25.1517 30.025 24.9715 29.8045 24.8771C29.6337 24.8045 29.4461 24.8428 29.2549 24.8902C28.9589 24.9642 28.6571 25.0822 28.3694 25.1489C27.817 25.2768 27.31 25.2346 26.8974 24.765C25.9115 23.6445 25.987 21.8496 26.2903 20.4911C26.4145 19.9349 26.6376 19.3678 26.5863 18.7888C26.5826 18.7519 26.5802 18.7212 26.5663 18.6986C26.5585 18.6865 26.5413 18.693 26.5274 18.6898C26.4922 18.6811 26.4551 18.6769 26.4163 18.6736C26.2115 18.6569 25.9852 18.6736 25.7893 18.6528C25.3337 18.6038 24.9605 18.356 24.7223 17.966C24.3741 17.3956 24.4436 16.6542 24.5904 16.0412C24.6349 15.8564 24.6803 15.6715 24.7265 15.4874C24.3431 15.4387 23.9519 15.4137 23.5546 15.4137C20.84 15.4137 18.3967 16.5843 16.7015 18.4481C17.259 18.7606 17.7114 19.2853 18.1676 19.7053C18.682 20.1785 19.299 20.5304 20.0101 20.5477C20.9483 20.5694 21.8333 20.2647 22.6857 19.9021C22.9988 19.7692 23.3808 19.5865 23.7392 19.5557C24.0782 19.5265 24.4024 19.6087 24.6811 19.8818C25.3266 20.5153 25.2121 21.5979 24.8552 22.3254C24.5527 22.9412 24.105 23.4955 23.7609 24.0845C23.4757 24.573 23.2645 25.0884 23.3645 25.7181C23.4363 26.1696 23.7674 26.4855 24.0614 26.8193C24.4847 27.3004 24.8593 27.8015 24.8807 28.4757C24.8931 28.8716 24.77 29.254 24.5926 29.6209C24.4477 29.9195 24.2663 30.2071 24.1295 30.484C23.8966 30.9558 23.7948 31.4236 23.9244 31.9413C24.0985 32.6382 24.5473 33.2174 24.8923 33.8398ZM16.244 30.3583C17.0529 31.3965 18.0777 32.2584 19.2511 32.8762C19.3122 32.7362 19.3567 32.5917 19.3678 32.4362C19.3942 32.055 19.1844 31.674 18.952 31.3836C18.807 31.2036 18.6352 31.0424 18.443 30.914C17.9906 30.6126 17.416 30.5243 16.889 30.4366C16.6737 30.401 16.4588 30.3751 16.244 30.3583ZM25.6405 15.6496C25.5899 15.8519 25.54 16.0543 25.4913 16.2571C25.3978 16.6466 25.2918 17.1208 25.5132 17.4833C25.5974 17.6213 25.7265 17.7139 25.8887 17.7316C26.1416 17.7584 26.4435 17.7283 26.6907 17.7775C26.9038 17.8195 27.088 17.9085 27.231 18.0544C27.3714 18.1975 27.4816 18.4008 27.5089 18.7069C27.5686 19.3805 27.339 20.0455 27.1945 20.6929C26.9495 21.7889 26.7977 23.2494 27.5932 24.1533C27.6951 24.2696 27.8187 24.2913 27.9497 24.2815C28.1002 24.2701 28.2577 24.2246 28.4184 24.1755C28.7379 24.0774 29.0671 23.9622 29.3815 23.9261C29.6547 23.8949 29.9197 23.9192 30.1688 24.0257C30.811 24.3003 31.2446 25.0048 31.7056 25.6166C31.9688 25.9648 32.2387 26.2917 32.6772 26.2788C32.7685 25.7574 32.8161 25.2216 32.8161 24.6748C32.8161 20.2806 29.7495 16.597 25.6405 15.6496Z" fill="#FDFDFD" stroke="#FDFDFD" stroke-width="0.4"/>
</g>
<defs>
<clipPath id="clip0_2_727">
<rect width="47" height="48" fill="white" transform="translate(0.330078 0.449951)"/>
</clipPath>
</defs>
</svg>
