<svg width="40" height="30" viewBox="0 0 40 30" fill="none" xmlns="http://www.w3.org/2000/svg">
<g clip-path="url(#clip0_2_760)">
<path d="M33.5806 8.67628L34.0667 8.08958L34.0116 8.04393L33.949 8.00933L33.5806 8.67628ZM17.2333 23.6612L16.7732 24.2685L16.7974 24.2868L16.8229 24.3032L17.2333 23.6612ZM24.385 10.4541L23.6266 10.5279L23.629 10.5516L23.6327 10.5751L24.385 10.4541ZM2.71849 8.92088C2.85358 9.31942 3.28617 9.53299 3.68471 9.3979L10.1793 7.19652C10.5778 7.06143 10.7914 6.62884 10.6563 6.2303C10.5212 5.83176 10.0886 5.61819 9.6901 5.75328L3.91713 7.71006L1.96034 1.9371C1.82526 1.53856 1.39266 1.32499 0.99412 1.46007C0.595579 1.59516 0.382009 2.02775 0.517097 2.42629L2.71849 8.92088ZM32.9493 29.3952C35.0558 28.1385 37.7248 24.8477 38.6948 20.8901C39.6843 16.8527 38.9077 12.1009 34.0667 8.08958L33.0944 9.26298C37.4488 12.8711 38.077 17.0087 37.2147 20.5273C36.3328 24.1257 33.8933 27.0575 32.1685 28.0865L32.9493 29.3952ZM33.949 8.00933C31.3733 6.58646 24.9211 5.54509 18.7395 11.6917L19.814 12.7723C25.4842 7.13419 31.1902 8.22628 33.2121 9.34323L33.949 8.00933ZM18.7395 11.6917C15.6854 14.7285 14.5931 17.4311 14.6004 19.6508C14.6076 21.864 15.7099 23.4629 16.7732 24.2685L17.6934 23.0538C16.9688 22.5048 16.1298 21.3354 16.1243 19.6458C16.1188 17.9626 16.9422 15.6279 19.814 12.7723L18.7395 11.6917ZM16.8229 24.3032C18.0484 25.0866 19.3457 24.836 20.4364 24.0815C21.4961 23.3485 22.4447 22.1018 23.2076 20.6505C24.7345 17.746 25.68 13.706 25.1373 10.333L23.6327 10.5751C24.1117 13.5518 23.2693 17.2582 21.8588 19.9414C21.1531 21.2838 20.3457 22.2913 19.5695 22.8282C18.8244 23.3436 18.2061 23.3787 17.6437 23.0192L16.8229 24.3032ZM25.1434 10.3803C24.7258 6.08926 20.9561 1.92056 16.4182 0.640959C14.1185 -0.00750154 11.5911 0.0746394 9.17622 1.27094C6.76538 2.46525 4.53619 4.73496 2.75689 8.33898L4.12333 9.01359C5.79228 5.6331 7.80955 3.64862 9.85268 2.63646C11.8918 1.6263 14.0259 1.54971 16.0046 2.10766C20.0234 3.24088 23.278 6.94559 23.6266 10.5279L25.1434 10.3803Z" fill="white"/>
</g>
<defs>
<clipPath id="clip0_2_760">
<rect width="39" height="30" fill="white" transform="translate(0.439941)"/>
</clipPath>
</defs>
</svg>
