<svg width="286" height="291" viewBox="0 0 286 291" fill="none" xmlns="http://www.w3.org/2000/svg">
<g clip-path="url(#clip0_2_743)">
<g opacity="0.2">
<path d="M107.986 286.84C57.5603 286.84 16.6825 245.963 16.6825 195.537C16.6825 145.112 57.5603 104.234 107.986 104.234C158.411 104.234 199.289 145.112 199.289 195.537C199.289 245.963 158.411 286.84 107.986 286.84Z" stroke="white" stroke-width="2"/>
<path d="M115.271 288.055C58.8086 288.055 13.0369 242.283 13.0369 185.821C13.0369 129.359 58.8086 83.5869 115.271 83.5869C171.733 83.5869 217.505 129.359 217.505 185.821C217.505 242.283 171.733 288.055 115.271 288.055Z" stroke="white" stroke-width="2"/>
<path d="M121.344 289.877C59.5157 289.877 9.39395 239.755 9.39395 177.927C9.39395 116.098 59.5157 65.9766 121.344 65.9766C183.172 65.9766 233.294 116.098 233.294 177.927C233.294 239.755 183.172 289.877 121.344 289.877Z" stroke="white" stroke-width="2"/>
<path d="M127.417 286.841C60.8933 286.841 6.96513 232.913 6.96513 166.389C6.96513 99.8652 60.8933 45.937 127.417 45.937C193.941 45.937 247.869 99.8652 247.869 166.389C247.869 232.913 193.941 286.841 127.417 286.841Z" stroke="white" stroke-width="2"/>
<path d="M133.185 283.805C62.1335 283.805 4.53497 226.206 4.53497 155.155C4.53497 84.1034 62.1335 26.5049 133.185 26.5049C204.236 26.5049 261.835 84.1034 261.835 155.155C261.835 226.206 204.236 283.805 133.185 283.805Z" stroke="white" stroke-width="2"/>
<path d="M142.902 283.804C64.808 283.804 1.50021 220.496 1.50021 142.402C1.50021 64.3078 64.808 1 142.902 1C220.996 1 284.304 64.3078 284.304 142.402C284.304 220.496 220.996 283.804 142.902 283.804Z" stroke="white" stroke-width="2"/>
</g>
</g>
<defs>
<clipPath id="clip0_2_743">
<rect width="285" height="291" fill="white" transform="translate(0.5)"/>
</clipPath>
</defs>
</svg>
