<svg width="100" height="254" viewBox="0 0 100 254" fill="none" xmlns="http://www.w3.org/2000/svg">
<path opacity="0.5" d="M90.0435 14.2344C82.9768 5.71795 65.1081 -7.37604 50.167 8.37933C35.2259 24.1347 55.3829 53.6228 67.329 66.3974C73.218 69.9459 85.5006 75.9784 87.5197 71.7202C90.0435 66.3974 91.5578 55.2196 70.8624 45.6387C57.5702 39.961 28.8658 33.9286 20.3858 55.2196C16.5159 64.4457 15.8429 85.8787 44.1098 97.8017L79.4434 113.238M79.4434 113.238C92.9038 113.774 112.253 107.392 81.9672 77.5752C72.3767 72.9621 49.1574 63.6296 33.0049 63.2038C23.7508 65.1554 5.94941 74.8074 8.7761 97.8017C8.43959 102.415 14.7323 113.876 42.5954 122.819C48.9891 124.238 63.2908 127.183 69.348 127.609L91.053 130.803L79.4434 113.238ZM79.4434 113.238C70.611 110.754 49.7656 106.531 37.043 109.512C21.1397 113.238 14.8333 110.044 2.21414 130.803C0.0268275 141.448 1.60842 163.272 25.4334 165.401C49.2583 167.53 64.6369 163.449 69.348 161.143V141.448M69.348 141.448C52.0177 143.045 14.8333 141.874 4.73798 124.415C-0.141429 111.996 -0.511589 86.6239 37.043 84.4948C46.1288 84.8496 65.5118 85.9852 70.3576 87.6884L69.348 125.48C51.6812 127.077 14.5304 134.635 7.26181 152.094C3.39193 162.207 2.11319 183.498 27.9572 187.756C37.5477 188.111 59.2527 186.798 69.348 178.708M69.348 141.448V178.708M69.348 141.448C58.4114 144.11 34.3173 151.455 25.4334 159.546C14.665 168.417 -1.11731 190.418 21.9 207.45C29.135 210.112 48.3499 212.241 67.329 199.466M69.348 178.708L67.329 199.466M69.348 178.708C57.2336 187.224 32.5001 207.876 30.481 222.354C29.6397 231.225 31.8943 249.713 47.6431 252.694C51.6812 253.404 61.6756 253.333 69.348 247.371L67.329 199.466" stroke="white"/>
</svg>
