<svg width="56" height="55" viewBox="0 0 56 55" fill="none" xmlns="http://www.w3.org/2000/svg">
<g clip-path="url(#clip0_17_4509)">
<g clip-path="url(#clip1_17_4509)">
<g clip-path="url(#clip2_17_4509)">
<path d="M-13.0898 55H69.4102V0H-13.0898V55Z" fill="#005430"/>
<path d="M48.7851 21.8463C48.7793 20.8801 48.4045 18.2776 48.3093 17.4046C48.2144 16.5315 48.1187 15.7395 48.1418 15.5539C48.1644 15.375 48.4399 15.8028 48.5854 15.8374C48.6608 15.8223 48.6271 15.5521 48.4903 15.3213C48.3977 15.1646 48.0818 14.5788 47.8902 14.2354C47.8001 14.0729 47.7799 13.9787 47.7366 13.9587C47.6934 13.9388 47.3446 14.6423 47.3828 14.7204C47.4779 14.8634 47.5432 14.9316 47.558 15.1842C47.5731 15.4367 47.7037 17.24 47.8701 18.6068C47.9955 19.638 48.2704 21.8595 48.2802 23.2407C48.2829 23.6913 48.233 24.1207 48.1729 24.3002C48.019 24.582 47.7785 24.8362 46.8826 25.3603C45.8756 25.9498 44.532 26.4403 43.9545 26.7685C43.5955 26.9733 43.7144 27.0006 44.0271 26.9111C44.3389 26.8214 45.9514 26.5343 46.7348 26.2033C47.4701 25.8917 47.9475 25.3706 48.3098 24.6103C48.7572 23.6704 48.7913 22.8728 48.7851 21.8463ZM45.6672 14.5072C45.7451 14.477 46.3895 14.4439 46.5632 14.4796C46.4491 14.6426 45.6763 15.0033 45.6731 15.0695C45.6942 15.114 46.2069 14.987 46.3686 14.9164C46.4742 14.8529 46.5448 14.7544 46.6231 14.6727C46.8079 14.4601 47.0271 14.0657 46.9719 14.0162C46.8823 13.9364 46.0037 13.9861 45.8879 14.0025C45.8104 14.0137 45.6135 14.3666 45.5774 14.4571C45.542 14.5476 45.5894 14.5374 45.6672 14.5072Z" fill="white"/>
<path d="M46.9839 20.234C47.1375 19.7149 47.1321 19.1618 46.9686 18.6459C46.7808 18.0476 46.3143 17.683 45.9779 17.4961L45.9178 18.072C45.9178 18.072 46.3896 18.3065 46.7122 18.8968C46.9166 19.2713 47.0017 19.8008 46.8403 20.391C46.8134 20.5376 46.9182 20.4568 46.9839 20.2339M41.9927 23.1221C42.1308 22.6548 42.1261 22.1568 41.9791 21.6921C41.8099 21.1534 41.3898 20.825 41.0867 20.6572L41.0326 21.1757C41.0326 21.1757 41.4573 21.3869 41.7478 21.918C41.9321 22.2549 42.0085 22.7324 41.8636 23.2637C41.8395 23.3951 41.9336 23.3227 41.9927 23.1221ZM24.6642 15.2801C24.8585 15.6355 24.9392 16.1389 24.7863 16.6994C24.7606 16.8385 24.8596 16.7621 24.9226 16.5504C25.0681 16.0573 25.0628 15.5319 24.9076 15.0417C24.729 14.4733 24.2859 14.1271 23.9661 13.95L23.9098 14.4969C23.9098 14.4969 24.3579 14.7195 24.6642 15.2801ZM12.9664 15.464C13.1296 15.8466 13.1406 16.3632 12.877 16.9073C12.8258 17.044 12.9506 16.9793 13.0553 16.7748C13.2692 16.3567 13.3893 15.8333 13.2808 15.2554C13.1696 14.6611 12.7231 14.256 12.3889 14.0367L12.2373 14.5796C12.2373 14.5796 12.709 14.861 12.9664 15.464Z" fill="white"/>
<path d="M16.2001 24.0151C16.4076 23.6301 16.4939 23.3712 16.586 22.9151C16.6667 22.5141 16.6719 22.0507 16.6429 21.579C17.2635 21.326 18.0032 20.9061 18.2517 20.8752C18.0818 21.4588 18.4875 22.0886 19.3071 22.0063C19.3698 22.6663 19.4235 23.246 19.4562 23.5898C19.523 24.2946 19.513 25.1828 19.5109 25.3371C19.5082 25.4922 19.6204 25.4629 19.7356 25.1175C19.8893 24.6551 19.9367 23.4475 19.881 22.6489C19.8677 22.4493 19.8451 22.1798 19.8178 21.8727C20.3491 21.6268 20.4374 21.1524 20.636 20.9502C20.8153 21.5781 21.802 21.6633 22.1066 21.5289C22.4842 21.362 22.608 21.0618 22.7052 20.3651C22.8026 19.6688 22.5189 19.3883 22.4174 19.3124C22.4073 19.3968 22.1603 20.2152 22.1603 20.2152C22.1603 20.2152 22.3946 20.4627 22.4064 20.5843C22.2156 20.757 21.8131 20.7677 21.4751 20.6577C21.1368 20.5477 21.0333 20.3453 21.0533 20.2094C21.0729 20.0732 21.2002 19.9492 21.2045 19.7832C21.2082 19.6172 21.1287 19.6653 20.9933 19.8122C20.858 19.9594 20.7705 20.0918 20.5833 20.4077C20.4302 20.666 20.1816 20.9812 19.7431 21.0713C19.6708 20.3127 19.5882 19.5056 19.533 18.9986C19.5042 18.7309 19.2157 16.4179 19.1951 16.1591C19.1772 15.9336 19.1438 15.6679 19.1493 15.543C19.1548 15.4437 19.2172 15.4831 19.3136 15.587C19.4102 15.6909 19.5792 15.8719 19.6083 15.8578C19.7067 15.8095 19.6061 15.5088 19.4772 15.2396C19.3487 14.9696 18.9098 13.9046 18.8177 13.8607C18.7702 13.8384 18.4739 14.494 18.4564 14.6231C18.5022 14.7037 18.6223 14.8308 18.6266 15.192C18.6281 15.2928 18.6929 16.2426 18.7827 17.1409C18.8614 17.934 18.9655 18.6866 18.9756 18.7741C19.0471 19.3795 19.134 20.2329 19.2167 21.0718C18.7409 20.9812 18.6143 20.6675 18.6248 20.4884C18.6369 20.2865 18.728 20.0585 18.6844 20.007C18.5927 19.952 18.0473 20.2568 17.2868 20.5843C17.053 20.6853 16.8164 20.7801 16.5775 20.8685C16.5112 20.2967 16.4239 19.753 16.3887 19.3373L16.3845 19.2911C16.8846 19.2588 17.2941 19.0063 17.4804 18.7658C17.7132 18.4652 17.8759 17.8464 17.8917 17.3725C17.9075 16.8979 17.5246 16.0305 17.4335 15.7547C17.3416 15.4788 17.2942 15.2874 17.2861 15.192C17.2779 15.0966 17.493 15.3025 17.6283 15.3429C17.72 15.3612 17.6883 15.1627 17.5763 15.0265C17.4651 14.8906 16.8635 13.9777 16.8214 14.0417C16.7955 14.0793 16.5544 14.7509 16.5387 14.8538C16.6335 14.9165 16.7445 15.0892 16.7522 15.2546C16.7603 15.4202 16.8929 16.1479 17.0398 16.5524C17.1872 16.9567 17.501 17.7325 17.5209 17.9459C17.2966 18.1039 16.7862 18.3716 16.2813 18.3556C16.1949 17.648 16.0854 16.8263 16.0269 16.2443C16.0043 16.0193 16.0028 15.7793 16.0063 15.6539C16.0091 15.5546 16.0806 15.5683 16.179 15.6704C16.278 15.7726 16.4297 15.9211 16.4607 15.9104C16.5286 15.888 16.4698 15.6626 16.3355 15.3949C16.2012 15.1272 15.6673 13.9951 15.5738 13.9529C15.5263 13.9312 15.2872 14.567 15.2722 14.6968C15.3199 14.7771 15.4421 14.9014 15.4541 15.2625C15.4638 15.5502 15.6038 16.9597 15.7238 18.2012C15.2242 17.9429 15.0537 17.5735 14.992 16.9535C14.9488 16.5212 14.9445 15.725 14.7903 15.0589C14.7035 14.6825 14.5204 14.2999 14.3035 14.0968C14.2518 14.2219 14.0208 14.99 14.0208 14.99C14.0961 15.2105 14.3303 15.9531 14.3223 16.5966C14.3145 17.2401 14.2639 17.8692 13.5427 18.3026C12.8221 18.7362 11.7412 18.5638 11.4743 17.8873C11.2074 17.2104 11.8007 15.5132 11.7929 15.1126C11.7849 14.712 11.7133 14.6567 11.5458 14.7229C11.3786 14.789 11.0364 15.1753 10.7417 15.8036C10.4469 16.4325 10.3158 17.2114 10.1483 17.7408C9.98137 18.2704 9.71398 18.8069 9.30019 18.7771C8.88641 18.7479 8.66366 18.3692 8.53634 17.8217C8.40883 17.2735 8.48683 16.5518 8.52158 16.3669C8.60793 15.9035 8.40791 15.9984 8.28526 16.726C8.20945 17.1747 8.1341 17.8912 8.40104 18.6414C8.66742 19.3914 9.12163 19.671 9.51964 19.5753C9.91784 19.4798 10.2678 18.5458 10.3914 18.1265C10.5147 17.7076 11.0662 15.8476 11.3786 15.7561C11.4223 15.9657 11.1358 16.6415 11.0442 17.4319C10.9528 18.2223 11.166 19.2841 12.1693 19.4678C13.1726 19.6516 13.8533 19.0009 14.1001 18.5491C14.3472 18.0968 14.4624 17.6224 14.4903 17.3836C14.5224 17.99 14.9362 18.9368 15.74 19.2068L15.8227 19.2307C15.8722 19.7271 15.9529 20.375 16.0269 21.0553C15.8711 21.1035 15.7139 21.1467 15.5553 21.1848C15.5353 21.1197 15.5132 21.0558 15.4863 20.9971C15.241 20.4694 14.835 19.9831 14.2724 20.0167C13.6976 20.0508 13.0709 20.8179 13.0983 21.378C13.1164 21.7547 13.3238 22.064 14.078 22.1431C14.4225 22.1796 14.7883 22.1413 15.1661 22.0588C15.2194 22.2146 15.253 22.3695 15.2569 22.5106C15.0178 22.7901 13.04 24.2818 11.5591 24.4252C10.0783 24.5685 9.62662 23.7922 9.61177 23.0129C9.60077 22.42 9.95726 21.8283 10.2078 21.4189C10.5664 21.1565 10.8606 20.8285 11.0464 20.5755C11.0969 20.6067 11.1449 20.6354 11.1905 20.6621C11.3676 20.7649 11.4381 20.9186 11.4381 20.9186C11.4708 20.8685 11.6229 20.5945 11.5634 20.4606C11.536 20.4276 11.4022 20.3453 11.2413 20.2474C11.4103 19.8264 11.408 19.4059 11.1891 19.3124C10.9443 19.2082 10.6246 19.4979 10.4868 19.6745C10.4235 19.7556 10.3885 19.8553 10.3874 19.9582C10.3864 20.0708 10.4393 20.1725 10.5704 20.263C10.701 20.3522 10.8222 20.433 10.9362 20.5059C10.6126 20.8457 9.84781 21.3437 9.37976 21.6361C9.36243 21.5932 9.29387 21.6385 9.20174 21.747L9.07497 21.8253C8.70161 22.0537 7.8063 22.5554 7.6303 22.6782C7.45394 22.8013 7.56449 22.779 7.6303 22.7515C7.75451 22.6845 7.91768 22.6032 8.10101 22.5136C8.36061 22.3867 8.66265 22.2429 8.95791 22.0987C8.8609 22.263 8.77476 22.4335 8.70005 22.6091C8.34778 23.4407 7.77834 25.1646 9.01016 26.2018C10.1887 27.1947 12.2145 26.8169 13.8944 25.7851C15.5747 24.753 15.9375 24.3902 16.2001 24.015M10.7226 19.9146C10.6643 19.8716 10.6562 19.8143 10.7037 19.7744C10.7642 19.7228 10.8416 19.6741 10.9295 19.6577C11.1157 19.623 11.1901 19.8371 11.1153 20.1704C10.9737 20.0838 10.828 19.9928 10.7226 19.9146ZM14.5762 21.3207C13.7207 21.3246 13.6813 21.1693 13.6974 21.07C13.7132 20.9711 13.9796 20.6996 14.3176 20.8787C14.4604 20.9546 14.6214 21.1133 14.7702 21.3128C14.7045 21.3177 14.6397 21.3201 14.5762 21.3207ZM11.9561 25.8192C10.3399 26.2603 8.76339 25.5769 8.66797 24.2238C8.59491 23.1905 8.97175 22.412 9.21476 21.9732C9.44659 21.8586 9.66549 21.7471 9.84653 21.6473C9.42349 22.3286 9.17589 23.2411 9.34135 24.0141C9.52863 24.8898 10.2905 25.4207 11.5802 25.2493C12.8572 25.0801 14.584 23.8656 15.0735 23.4076C15.2227 23.2423 15.321 23.0932 15.4552 22.7896C15.5104 22.665 15.5881 22.5004 15.6169 22.3144C15.6357 22.1933 15.6457 22.0637 15.648 21.9319C15.8 21.8861 15.9508 21.8365 16.1002 21.783C16.1517 22.3374 16.1896 22.884 16.1919 23.3565C15.3962 24.2897 13.5723 25.3779 11.9561 25.8192ZM40.2259 22.2709C40.1711 21.3656 40.0391 19.7269 39.9653 18.8956C39.9 18.1558 39.7717 17.1418 39.6778 16.2492C39.6588 16.0615 39.6509 15.8728 39.6541 15.6842C39.6569 15.5854 39.7559 15.6234 39.8548 15.7251C39.9537 15.8267 40.1084 15.9544 40.1375 15.9388C40.2341 15.8887 40.1184 15.6408 39.9826 15.3741C39.8467 15.1069 39.3082 14.0016 39.2145 13.9597C39.1668 13.9383 38.9145 14.6004 38.8999 14.7301C38.9481 14.81 39.0713 14.9337 39.0847 15.2949C39.0983 15.6563 39.2809 17.318 39.4126 18.6618C39.504 19.596 39.6221 21.1202 39.7079 22.2695C39.7036 22.2714 39.789 23.3622 39.7982 23.4847C39.851 24.1905 39.8236 25.0784 39.8184 25.2326C39.8125 25.3874 39.9258 25.3604 40.0474 25.0169C40.1711 24.6661 40.2417 23.8829 40.2513 23.1757L40.2259 22.2709ZM35.6369 19.1015C35.4711 19.1521 35.211 18.9769 35.2308 18.6094C35.2489 18.2774 35.391 17.9666 35.4457 17.7704C35.5211 17.4997 35.5215 17.2388 35.4578 17.3867C35.3142 17.7173 35.0468 18.3564 34.9915 18.79C34.9361 19.2236 35.0767 19.5032 35.2677 19.5985C35.5058 19.7181 35.6772 19.5284 35.7932 19.2489C35.9047 18.9813 35.8836 18.6689 35.8063 18.7424C35.7415 18.8193 35.7173 19.0767 35.6369 19.1015ZM33.2546 20.4373C33.3425 20.2038 33.3631 19.9749 33.2955 20.1005C33.1432 20.3819 32.8577 20.9255 32.774 21.3032C32.6907 21.6808 32.7919 21.9365 32.9526 22.0333C33.153 22.1545 33.3179 21.9992 33.4427 21.7612C33.5619 21.5335 33.5679 21.2571 33.4947 21.3169C33.4314 21.3801 33.3895 21.6045 33.3171 21.621C33.1668 21.6542 32.9523 21.4824 32.9988 21.1602C33.0409 20.87 33.1908 20.6061 33.2546 20.4373ZM26.3177 25.3639C26.4646 25.1256 26.5377 24.8784 26.4357 25.0032C26.2083 25.2822 25.7776 25.8238 25.6039 26.221C25.4307 26.6182 25.4859 26.9165 25.6403 27.0523C25.8328 27.2217 26.0476 27.0825 26.2352 26.8459C26.4152 26.6191 26.4825 26.3183 26.3882 26.3696C26.3057 26.4273 26.2113 26.6648 26.1282 26.6693C25.9572 26.6776 25.7599 26.4499 25.8809 26.1068C25.9903 25.7971 26.2115 25.5366 26.3177 25.364M38.4796 18.4065C38.3111 18.4487 38.0621 18.26 38.1038 17.8939C38.1416 17.5635 38.3026 17.2607 38.3687 17.068C38.4606 16.8012 38.4763 16.541 38.4038 16.6849C38.2411 17.008 37.9358 17.632 37.8542 18.0624C37.7726 18.4926 37.8959 18.7788 38.0811 18.884C38.3121 19.0149 38.4939 18.8348 38.627 18.5613C38.7543 18.2999 38.7523 17.9869 38.6702 18.0566C38.6012 18.1304 38.5618 18.3861 38.4796 18.4065ZM38.4281 22.8975C38.6586 23.0285 38.8413 22.8483 38.9739 22.5749C39.1009 22.3135 39.0992 22.0006 39.0176 22.0702C38.948 22.1436 38.9086 22.3996 38.8265 22.42C38.658 22.462 38.4085 22.2736 38.4506 21.9075C38.4886 21.5772 38.6493 21.274 38.7156 21.0816C38.8072 20.8149 38.823 20.5542 38.7507 20.6984C38.5875 21.0217 38.2827 21.6456 38.201 22.0756C38.1195 22.5062 38.2428 22.7924 38.4281 22.8975ZM41.374 17.1608C41.4849 16.8381 41.5041 16.523 41.4162 16.6974C41.2188 17.0882 40.8497 17.8432 40.7508 18.3643C40.6524 18.885 40.8018 19.2311 41.026 19.3586C41.305 19.5169 41.5256 19.299 41.6866 18.9683C41.84 18.652 41.8378 18.2729 41.7388 18.3576C41.6552 18.4466 41.6073 18.7558 41.5078 18.7806C41.3044 18.8317 41.0024 18.6034 41.0533 18.1606C41.0993 17.7608 41.2939 17.3942 41.374 17.1608Z" fill="white"/>
<path d="M17.8309 22.7419C18.0124 22.3487 18.0782 21.955 17.9446 22.1645C17.6457 22.6337 17.0825 23.5421 16.8902 24.1856C16.6976 24.8293 16.8402 25.2815 17.105 25.4669C17.4355 25.6973 17.7416 25.4475 17.9869 25.0503C18.2216 24.6693 18.2683 24.1923 18.133 24.2876C18.0162 24.3898 17.9153 24.7738 17.7872 24.794C17.5241 24.8352 17.1746 24.5145 17.2966 23.9632C17.4071 23.4657 17.6999 23.0265 17.8309 22.7419ZM43.2506 26.6407C43.3896 26.5267 44.5993 25.8751 44.8221 25.7428C44.8221 25.7428 45.0498 25.3714 44.9816 25.3319C44.9129 25.2925 44.4713 25.694 44.1966 25.7051C43.9216 25.7163 43.5454 25.5144 43.5333 25.3488C43.569 25.224 43.8996 25.0363 44.0191 25.0287C44.1386 25.0218 44.1193 25.2938 44.1593 25.327C44.1991 25.3597 44.3582 25.1392 44.3782 25.0473C44.3978 24.9557 44.3814 24.5716 44.1627 24.6266C43.8165 24.7142 43.2943 25.3563 43.2347 25.5582C43.1748 25.7607 43.4974 25.9368 43.7329 26.0328C43.7127 26.0401 43.537 26.1246 43.4258 26.2347C43.4258 26.2347 43.3063 26.3686 43.2506 26.6407ZM39.1256 27.4478C39.2646 27.3339 40.4743 26.6827 40.6971 26.5499C40.6971 26.5499 40.9253 26.1785 40.8566 26.139C40.7879 26.0996 40.3463 26.5011 40.0716 26.5123C39.7966 26.5234 39.4204 26.3215 39.4083 26.156C39.444 26.0311 39.7746 25.8435 39.8941 25.8363C40.0136 25.8289 39.9943 26.1007 40.0343 26.1337C40.0741 26.1669 40.2332 25.9463 40.2532 25.8545C40.2728 25.7628 40.2559 25.3787 40.0377 25.4337C39.6915 25.5217 39.1693 26.1634 39.1097 26.3658C39.0498 26.5678 39.3724 26.744 39.6075 26.8399C39.5878 26.8472 39.412 26.9315 39.3008 27.0418C39.3008 27.0418 39.1813 27.1757 39.1256 27.4478ZM29.834 15.7686C29.9425 15.8946 30.653 16.7974 31.2097 17.3649C31.7661 17.933 32.7199 18.8523 33.4207 19.4823C33.564 19.6115 33.706 19.7422 33.8466 19.8744C34.0233 21.2314 34.2277 22.9583 34.3135 23.6724C34.3981 24.3755 34.4107 25.2635 34.4125 25.418C34.414 25.573 34.5254 25.5413 34.6314 25.1938C34.7735 24.7274 34.7898 23.5199 34.7146 22.7222C34.6678 22.2297 34.5576 21.3069 34.4509 20.4561C34.8647 20.865 35.2556 21.2705 35.519 21.5741C36.0033 22.1314 36.4108 22.5519 36.6592 23.151C36.8349 23.5749 36.8171 23.9122 36.8892 23.9788C36.9515 24.0363 37.0202 23.5292 36.9433 23.0373C36.8189 22.2385 36.6482 21.8998 35.6227 20.7594C35.2315 20.3233 34.771 19.8676 34.3209 19.4416C34.3034 19.3103 34.2877 19.1886 34.2734 19.0807C34.2377 18.8139 33.8902 16.5079 33.8629 16.2495C33.8395 16.0246 33.7985 15.7598 33.8018 15.6346C33.8043 15.535 33.8676 15.5738 33.967 15.6755C34.066 15.7769 34.2393 15.9545 34.2686 15.939C34.3655 15.8888 34.2576 15.591 34.1217 15.3238C33.9864 15.057 33.5201 14.0018 33.4265 13.96C33.379 13.9386 33.0996 14.6005 33.0853 14.73C33.1337 14.8098 33.2567 14.9343 33.2701 15.295C33.2737 15.3958 33.3632 16.3442 33.4754 17.2398C33.5749 18.0312 33.6979 18.7816 33.7107 18.8685L33.7112 18.8752C33.247 18.4518 32.838 18.0922 32.5899 17.8664C32.0098 17.3393 30.7289 16.0882 30.6774 15.9008C30.6658 15.8417 30.7653 15.8781 30.9481 15.9073C31.1316 15.9369 31.2947 15.9993 31.2654 15.9092C31.2521 15.8667 31.1818 15.7619 31.0068 15.6536C30.8316 15.5453 30.3826 15.2644 30.0486 15.0657C29.714 14.8672 29.5482 14.7007 29.4792 14.7483C29.4451 14.7718 29.4755 15.4517 29.4955 15.5365C29.5791 15.5436 29.7261 15.6421 29.8339 15.7686" fill="white"/>
<path d="M30.7485 14.5458C30.8859 14.5156 31.5367 14.532 31.773 14.5818C31.674 14.6506 31.0082 14.9869 30.8766 15.067C30.7458 15.1473 30.7127 15.1937 30.7785 15.1858C30.9693 15.1329 31.3994 15.067 31.6055 14.9595C31.7999 14.8685 32.1311 14.4246 32.2598 14.2592C32.3879 14.0936 32.3879 14.011 32.3552 13.9666C32.2237 13.8951 31.3755 13.8234 30.9665 13.9248C30.8533 14.0017 30.6318 14.411 30.5992 14.4961C30.5666 14.5818 30.6112 14.576 30.7486 14.5458M34.3683 14.4925C34.4792 14.4682 35.0038 14.4814 35.1938 14.5213C35.1143 14.5768 34.5779 14.8479 34.4719 14.9129C34.3658 14.9773 34.3394 15.0149 34.3924 15.0083C34.5463 14.9662 34.8931 14.913 35.059 14.8259C35.2155 14.7526 35.4823 14.3948 35.5861 14.2618C35.6892 14.1281 35.6892 14.0617 35.6629 14.0262C35.5575 13.9679 34.8736 13.9104 34.544 13.9923C34.4526 14.054 34.2746 14.3839 34.2483 14.4526C34.2214 14.5213 34.2578 14.5169 34.3683 14.4925ZM37.3108 14.4548C37.4212 14.4304 37.9457 14.4436 38.1358 14.4836C38.0568 14.539 37.5201 14.8102 37.414 14.8747C37.3083 14.9394 37.2819 14.977 37.3349 14.9706C37.4888 14.9283 37.8624 14.8747 38.0283 14.7881C38.1851 14.7147 38.3706 14.357 38.4743 14.2235C38.578 14.0903 38.578 14.0234 38.5511 13.9884C38.4457 13.9301 37.8157 13.8725 37.4865 13.954C37.3951 14.0162 37.2166 14.3461 37.1902 14.4148C37.1638 14.4836 37.1998 14.4791 37.3108 14.4547M35.4751 15.8878C35.301 16.1622 35.5193 16.3837 35.5989 16.6054C35.4915 16.7035 35.3263 16.614 35.271 16.5278C35.1535 16.3512 35.1929 15.9911 35.0546 15.9356C35.0192 16.0329 34.9961 16.1409 34.9961 16.1409C34.9961 16.1409 35.1013 16.3871 35.0749 16.5501C35.0581 16.6485 34.9713 16.7635 34.8565 16.7658C34.5507 16.7731 34.7013 16.3206 34.5833 16.064C34.5592 16.1267 34.5419 16.1941 34.5137 16.2528C34.5354 16.3196 34.5471 16.4134 34.5507 16.4675C34.5577 16.5749 34.5491 16.6908 34.5675 16.7825C34.5929 16.9123 34.6649 16.9983 34.7749 17.0067C35.0033 17.0248 35.1076 16.8398 35.1419 16.688C35.1813 16.8429 35.4834 17.0134 35.6321 16.8233C35.8289 16.5726 35.6715 16.3579 35.5706 16.1221C35.4978 15.9477 35.5189 15.8333 35.4751 15.8878ZM26.8917 15.1601C26.9075 15.2729 26.9655 15.35 27.0601 15.3616C27.2555 15.3864 27.3544 15.2311 27.3913 15.102C27.4172 15.237 27.6698 15.3957 27.8071 15.2383C27.9886 15.0301 27.8629 14.8389 27.7871 14.6315C27.7328 14.4779 27.7562 14.3803 27.716 14.4256C27.5529 14.6545 27.7308 14.8548 27.7888 15.0491C27.6914 15.129 27.5536 15.0452 27.5099 14.9693C27.417 14.8121 27.4677 14.5036 27.3516 14.45C27.3165 14.5326 27.2917 14.6244 27.2917 14.6244C27.2917 14.6244 27.3703 14.8409 27.3396 14.98C27.3208 15.0643 27.2406 15.1597 27.1413 15.1571C26.8779 15.1513 27.0291 14.7674 26.9391 14.5419C26.9158 14.5947 26.8974 14.6524 26.8701 14.7012C26.886 14.7601 26.8917 14.8409 26.8917 14.8881C26.8937 14.9808 26.8807 15.0798 26.8917 15.1601ZM33.1239 25.7916C33.1532 25.7449 33.218 25.6168 33.2018 25.5293C33.1856 25.4418 33.0782 25.0766 32.87 24.9852C32.6632 24.8937 32.5065 25.0854 32.4073 25.3522L32.3386 25.3505C32.3222 25.39 32.3016 25.449 32.2852 25.5555C32.2621 25.7094 32.2185 25.8085 31.9546 26.0481C31.7327 26.2487 31.0135 26.7304 30.5475 26.9567C30.081 27.1835 29.7453 27.3792 29.6216 27.4386C29.4983 27.4971 29.5341 27.5189 29.6574 27.4821C29.7804 27.4454 30.3996 27.2459 30.6465 27.1443C30.8928 27.0419 31.194 26.8736 31.5571 26.638C31.9609 26.3761 32.2022 26.1143 32.2833 25.8821C32.3411 25.7167 32.3558 25.6505 32.3558 25.6505C32.3558 25.6505 32.5075 25.74 32.7648 25.7988C33.0212 25.8577 33.094 25.8388 33.1239 25.7916M32.7759 25.2728C32.8901 25.3162 32.9597 25.4406 32.9803 25.5161C32.8493 25.519 32.6079 25.4525 32.5052 25.4061C32.567 25.2865 32.6745 25.2347 32.7759 25.2728Z" fill="white"/>
<path d="M30.391 26.0485C30.033 25.9988 29.1308 25.8616 28.9101 25.3379C29.0954 25.0676 29.9488 24.7255 31.018 24.4053C32.0871 24.086 33.2042 23.6714 33.5044 23.4713C33.5702 23.449 33.6975 23.4557 33.6975 23.4557C33.7513 23.3009 34.0197 22.7572 34.0364 22.6435C33.7376 22.6604 31.896 22.7957 31.078 22.8397C30.2594 22.8837 28.6831 22.873 28.1579 22.8672C28.48 22.6355 29.2446 22.1833 30.3372 21.7975C30.4789 21.7474 30.6099 21.7022 30.7322 21.6613C30.8231 21.8233 30.8906 21.9835 30.9047 22.123C30.9742 22.0515 31.0265 21.8145 31.0089 21.5712C31.646 21.3679 31.9741 21.3005 32.1157 21.2623C32.205 21.1464 32.3635 20.6779 32.3871 20.3374C32.2919 20.164 31.9938 19.9481 31.7287 19.7626C31.3634 19.5075 30.9695 19.285 30.5763 19.3824C30.0388 19.5142 29.931 20.5017 30.0563 20.7112C30.0962 20.7773 30.1908 20.8945 30.3026 21.0392C29.9099 21.1935 29.4991 21.375 29.1371 21.5659C28.3307 21.9907 27.4303 22.4554 27.1676 22.9023L27.0923 22.939C27.0712 22.9812 26.905 23.6727 26.8809 23.7473C27.0486 23.7415 28.301 23.7438 29.1733 23.7167C30.045 23.6888 30.8073 23.6611 31.1059 23.6611C30.6637 23.7659 29.5049 24.1964 29.1717 24.4497C28.8386 24.7036 28.6291 25.0897 28.6236 25.7516C28.3131 25.6299 27.7358 25.3521 27.2439 24.6868C26.6956 23.9453 26.8091 23.1827 26.5896 22.182C26.2707 20.7297 25.5898 19.5035 25.1658 19.1285C25.0229 19.641 25.0045 20.0273 25.0045 20.0273C25.0045 20.0273 25.5358 21.2019 25.8048 21.9517C26.0736 22.7017 26.3034 23.4406 26.2921 23.6061C26.0706 24.0918 24.7598 25.109 23.6673 25.7044C22.6313 26.269 21.7186 26.3298 21.3952 25.9277C21.3317 25.8493 21.2885 25.7564 21.2642 25.6513C21.4048 25.5856 21.5459 25.5194 21.6905 25.4533C22.622 25.0289 24.2764 24.1357 24.6641 23.667C25.0824 23.0989 25.0766 22.2992 24.8313 21.8414C24.587 21.3838 24.2038 20.8542 24.174 20.6668C24.1507 20.5784 24.4228 20.7027 24.5835 20.7112C24.6613 20.7053 24.6224 20.6006 24.4554 20.4351C24.3219 20.3033 23.8053 19.8755 23.608 19.7085C23.5585 19.6661 23.5216 19.6832 23.5116 19.7281C23.4731 19.8989 23.3946 20.2648 23.3642 20.4453L23.3853 20.5364C23.4421 20.57 23.5073 20.6079 23.539 20.7023C23.5837 20.8362 23.7401 21.21 23.9964 21.6817C24.2533 22.1532 24.6244 22.6736 24.6608 22.9364C24.359 23.3213 22.8372 24.1409 21.3548 24.8165C21.4465 24.5323 21.591 24.2111 21.7829 23.8542C21.8374 23.7939 21.8871 23.7195 21.9332 23.6353C22.0812 23.3652 22.0955 23.0348 22.0058 23.1047C21.929 23.1788 21.8738 23.4469 21.7858 23.4649C21.6059 23.5019 21.3533 23.2918 21.4168 22.9076C21.4744 22.5611 21.6597 22.2482 21.7397 22.0478C21.8506 21.7706 21.8811 21.4967 21.7969 21.6457C21.6079 21.9786 21.2532 22.6235 21.1442 23.0741C21.0357 23.524 21.151 23.8315 21.341 23.9506C21.412 23.9959 21.4801 24.0101 21.5448 24.0012C21.4149 24.2487 21.2542 24.5523 21.1369 24.9145C20.5408 25.1812 19.9608 25.4195 19.4807 25.5913C17.7551 26.2092 16.5253 26.5731 15.6651 26.8433L15.6314 26.8583C15.6947 26.6539 15.6862 26.4793 15.6183 26.5317C15.5415 26.6063 15.4865 26.8744 15.3987 26.892C15.2187 26.9289 14.966 26.7191 15.0293 26.3347C15.087 25.9882 15.2724 25.6756 15.3525 25.4751C15.4629 25.1982 15.4936 24.9237 15.4097 25.073C15.2204 25.4059 14.8658 26.0508 14.7569 26.5011C14.6481 26.9512 14.7633 27.2588 14.9532 27.3781C15.1897 27.5267 15.3914 27.3445 15.546 27.0627L15.6003 26.9468C15.654 26.9468 15.7446 26.9342 15.8799 26.9041C16.2741 26.8154 17.2597 26.6724 18.6147 26.4958C19.6181 26.3653 20.3108 26.0897 20.9805 25.7831C20.9771 25.8588 20.9769 25.9347 20.9799 26.0104C21.0164 26.9298 21.6189 27.1894 22.443 27.0174C23.2379 26.8506 24.3465 26.1215 25.0109 25.6299C25.7036 25.1173 26.1032 24.6594 26.2053 24.4997C26.39 24.108 26.4408 23.6753 26.4533 23.4712C26.5138 24.0335 26.5628 24.8116 27.0945 25.479C27.5841 26.0932 28.5875 26.9503 30.4746 26.9738C30.4809 26.7493 30.391 26.0485 30.391 26.0485M30.2663 20.3508C30.5363 20.0477 31.1128 20.246 31.5455 20.6304C31.3238 20.6824 31.0227 20.775 30.6905 20.8936C30.4932 20.6556 30.273 20.4263 30.2662 20.3509M19.6567 16.1942C19.7793 16.1383 20.1541 15.9696 20.5581 15.7343C20.9613 15.5006 21.3402 15.2173 21.5255 15.029C21.5965 14.9569 21.6599 14.9004 21.7003 14.8333C21.8213 14.8835 21.9047 14.9355 21.9566 14.956C22.0347 14.9861 22.1389 15.0295 22.2067 14.8071C22.2742 14.585 22.1847 14.4415 22.0526 14.2702C21.9408 14.1265 21.7636 13.9106 21.6196 13.857C21.4977 13.8112 21.4396 14.0838 21.4583 14.077H21.5399L21.5557 14.0847C21.3876 14.1695 21.2577 14.4332 21.2445 14.5258C21.2313 14.6266 21.2503 14.7009 21.4914 14.7628L21.5883 14.7913C21.3872 15.0295 21.0124 15.2758 20.7569 15.4504C20.3946 15.6988 19.8805 16.0091 19.7341 16.0988C19.5877 16.1879 19.6 16.2161 19.6567 16.1942ZM21.8341 14.4443L21.8472 14.3252C22.0167 14.5184 22.1424 14.7482 22.1299 14.7807C22.052 14.7869 21.9551 14.715 21.7857 14.6426C21.8064 14.5777 21.8226 14.5114 21.8341 14.4443ZM21.3475 14.4446C21.3466 14.4084 21.4117 14.3076 21.5499 14.2525C21.6878 14.1971 21.7488 14.3519 21.7607 14.5404L21.7198 14.6159L21.5955 14.5729C21.464 14.5344 21.3751 14.5126 21.3475 14.4446Z" fill="white"/>
<path d="M28.6929 19.8299C28.8917 19.6986 29.4383 19.3039 29.7484 19.0453C29.964 18.8656 30.2174 18.601 30.3894 18.3772C30.4881 18.4412 30.5882 18.5032 30.6897 18.5629C30.8665 18.6662 30.9375 18.8195 30.9375 18.8195C30.9701 18.7693 31.1223 18.495 31.0628 18.3614C31.0271 18.3178 30.8097 18.1908 30.5875 18.0548C30.7003 17.8018 30.8554 17.3642 30.6332 17.211C30.4432 17.0809 30.1225 17.2962 29.9741 17.5754C29.8515 17.8067 29.8357 18.0028 30.0694 18.1634C30.1352 18.2087 30.1983 18.2514 30.2601 18.292C30.0243 18.55 29.59 18.9316 29.2808 19.1913C28.8969 19.5126 28.5339 19.8276 28.4706 19.9028L28.4522 19.9321C28.3685 19.6986 28.3913 19.5545 28.329 19.6319C28.0601 20.0537 28.3971 20.3955 28.5196 20.7367C28.3539 20.887 28.1001 20.749 28.0149 20.6173C27.8336 20.3448 27.8942 19.7914 27.682 19.7057C27.6272 19.8552 27.5916 20.0217 27.5916 20.0217C27.5916 20.0217 27.753 20.4007 27.7121 20.651C27.6867 20.8024 27.5526 20.9795 27.3766 20.9825C26.9057 20.9945 27.1378 20.2978 26.9561 19.9031C26.9192 19.9999 26.8928 20.1034 26.8486 20.193C26.882 20.2968 26.9003 20.4407 26.9051 20.524C26.9172 20.6896 26.9036 20.8671 26.9315 21.0092C26.9704 21.2089 27.0814 21.3416 27.2509 21.3539C27.6021 21.3825 27.7625 21.0969 27.8158 20.8641C27.8763 21.1023 28.3416 21.3641 28.5702 21.0722C28.8734 20.6861 28.6307 20.3555 28.4758 19.9924L28.4576 19.9453C28.4792 19.9529 28.5602 19.9175 28.6929 19.8299ZM30.0668 17.6562C30.1832 17.4401 30.4286 17.4217 30.5022 17.535C30.5606 17.6251 30.5654 17.8009 30.4774 17.9863C30.2611 17.8505 30.068 17.7175 30.0668 17.6562Z" fill="white"/>
<path d="M21.0251 18.4557C20.6113 18.4264 20.3887 18.0473 20.2613 17.4997C20.1338 16.9521 20.2118 16.23 20.2465 16.045C20.2811 15.8602 20.0861 15.9556 20.0103 16.4043C19.9349 16.8526 19.8591 17.5694 20.126 18.3199C20.3924 19.0694 20.8465 19.3492 21.2445 19.2533C21.6426 19.158 21.9928 18.224 22.1163 17.805C22.2396 17.3858 22.7912 15.6761 23.1035 15.5842C23.1473 15.7938 22.8608 16.3195 22.7692 17.11C22.678 17.9004 22.8367 18.9371 23.84 19.121C24.8433 19.3051 25.524 18.6542 25.7709 18.2017C26.0179 17.75 26.1331 17.275 26.161 17.0364C26.1931 17.643 26.607 18.5901 27.4106 18.86C28.1872 19.121 28.7806 18.8821 29.0426 18.5439C29.2755 18.2435 29.465 17.6248 29.4814 17.1504C29.4971 16.6764 29.0874 15.8088 28.9957 15.5326C28.9039 15.2571 28.8564 15.0658 28.8483 14.9704C28.8405 14.875 29.0557 15.0809 29.1911 15.1212C29.2827 15.1396 29.2505 14.9411 29.1391 14.8048C29.0279 14.6691 28.4257 13.7561 28.3836 13.8197C28.3577 13.8577 28.1167 14.5294 28.1009 14.6321C28.1963 14.6948 28.3067 14.8675 28.3151 15.0331C28.3226 15.1985 28.482 15.9263 28.6294 16.3307C28.7768 16.735 29.0633 17.5109 29.0833 17.7242C28.7969 17.9262 28.1515 18.1832 27.5387 17.9227C26.9258 17.6613 26.7302 17.2827 26.6627 16.6062C26.6195 16.174 26.6152 15.3777 26.461 14.712C26.3742 14.3357 26.1912 13.9531 25.9737 13.75C25.9224 13.8747 25.6915 14.6433 25.6915 14.6433C25.7668 14.8638 26.001 15.6064 25.9935 16.2499C25.9853 16.893 25.9345 17.5223 25.2134 17.9559C24.4928 18.3895 23.4662 18.2168 23.1993 17.5401C22.9323 16.8636 23.5256 15.3418 23.5179 14.9411C23.5098 14.5405 23.4378 14.485 23.2708 14.5514C23.1036 14.6175 22.7608 15.0038 22.4666 15.6322C22.1718 16.261 22.041 16.8895 21.8733 17.419C21.7063 17.9484 21.4389 18.485 21.0251 18.4557ZM9.01072 16.1103C9.51993 16.0734 9.9503 15.6873 10.0615 15.5847C10.173 15.4814 10.2329 15.3275 10.1532 15.386C9.56411 15.9118 8.77596 15.9266 8.73178 15.8383C8.75185 15.75 8.9592 15.6065 9.26179 15.4046C9.44559 15.2818 9.6093 15.1666 9.73186 15.0035L9.76523 15.0092C9.98944 15.0584 10.2483 15.1564 10.3274 15.078C10.4562 14.951 10.4733 14.743 10.3337 14.5188C10.2157 14.3284 9.9404 14.1512 9.70143 14.0234C9.46291 13.8961 9.41671 14.0993 9.38609 14.1717C9.35676 14.2392 9.36868 14.2968 9.41918 14.2982C9.34237 14.4029 9.28764 14.5378 9.26757 14.6493C9.25455 14.7212 9.26509 14.7802 9.29443 14.8286C9.30295 14.8424 9.34714 14.8965 9.43074 14.9285L9.5345 14.9607C9.35594 15.1256 9.15033 15.2546 9.04234 15.3199C8.84755 15.4376 8.61655 15.6435 8.54496 15.8563C8.47319 16.0699 8.50096 16.1472 9.01072 16.1102M9.91088 14.6084L9.93041 14.4997V14.4301C10.0918 14.5475 10.35 14.7699 10.3342 14.9032C10.232 14.88 10.0372 14.8388 9.85203 14.7913C9.87568 14.7358 9.89503 14.6749 9.91088 14.6084ZM9.43229 14.6423C9.31349 14.5475 9.42927 14.4531 9.5345 14.3922C9.67035 14.3138 9.74992 14.3785 9.81949 14.5844C9.7935 14.6453 9.76036 14.7028 9.72077 14.7558C9.61508 14.723 9.46621 14.6705 9.43229 14.6423ZM10.5383 21.8609C10.392 21.9878 10.3352 22.401 10.3651 22.4259C10.3947 22.4507 10.8522 22.6051 10.9237 22.6385L10.9564 22.5141C11.1743 22.7098 11.4159 23.6862 11.4696 23.689C11.5233 23.6915 11.6012 23.5785 11.6522 23.3192C11.6991 23.0786 11.7461 22.7189 11.795 22.4259C11.8407 22.1578 11.9118 22.0043 12.0729 21.9737C12.2344 21.9434 12.3539 22.1503 12.3956 22.291C12.3956 22.291 12.5088 22.0206 12.5329 21.8525C12.5061 21.7641 12.255 21.4308 12.0491 21.541C11.8429 21.6515 11.7139 22.1193 11.6723 22.4118C11.6303 22.7037 11.5982 23.0659 11.5474 23.124C11.4942 22.8747 11.3237 22.4285 11.1179 22.1777C10.8863 21.8969 10.6157 21.7938 10.5383 21.8609ZM8.58685 21.3617C8.77798 21.3093 9.20808 21.2434 9.41396 21.1359C9.60802 21.0449 9.93921 20.6011 10.0677 20.4355C10.1961 20.27 10.1963 20.1869 10.1637 20.1431C10.0323 20.0711 9.18397 19.9998 8.77468 20.1012C8.66165 20.1776 8.44046 20.5869 8.40783 20.6726C8.37474 20.7577 8.41993 20.7523 8.55697 20.7222C8.69438 20.6916 9.34539 20.7081 9.58089 20.7577C9.4828 20.8269 8.81684 21.1633 8.6853 21.2434C8.55422 21.3231 8.52113 21.3701 8.58685 21.3617ZM48.0325 23.7312C48.013 23.2351 47.7699 22.4735 46.846 21.3049C46.527 20.9015 46.0783 20.3763 45.6051 19.8385C45.592 19.6552 45.5789 19.4875 45.5672 19.3435C45.5051 18.6033 45.295 17.0931 45.2046 16.2003C45.1826 15.975 45.1807 15.7355 45.184 15.6104C45.1872 15.511 45.2588 15.5242 45.3573 15.6263C45.4556 15.7283 45.6074 15.877 45.639 15.8669C45.7063 15.8437 45.6478 15.6183 45.5134 15.3511C45.3794 15.0834 44.8725 14.0009 44.7792 13.9589C44.7313 13.9376 44.4923 14.5731 44.4775 14.7032C44.525 14.783 44.6474 14.9072 44.6592 15.2686C44.6718 15.6298 44.8897 17.7632 45.015 19.1075L45.0218 19.1824C44.3143 18.3925 43.6479 17.6722 43.3737 17.3802C43.3262 17.3296 43.2741 17.272 43.2178 17.2102C43.173 16.8506 43.1319 16.5081 43.1036 16.225C43.0847 16.029 43.0778 15.832 43.0829 15.6352C43.0852 15.536 43.1572 15.5495 43.2557 15.6517C43.3546 15.7536 43.5058 15.9023 43.5374 15.8917C43.6047 15.869 43.5462 15.6436 43.4117 15.3759C43.2778 15.1082 42.7493 14.0009 42.6556 13.9589C42.6082 13.9376 42.358 14.6238 42.3433 14.7527C42.3912 14.8331 42.5135 14.9573 42.5255 15.3188C42.5303 15.4722 42.5703 15.9374 42.6235 16.5245C42.1545 15.9671 41.6952 15.3835 41.6626 15.265C41.651 15.2064 41.7502 15.2424 41.9337 15.2721C42.1165 15.3014 42.288 15.3565 42.2587 15.2659C42.2449 15.2238 42.1751 15.1189 42 15.0102C41.8248 14.9019 41.3758 14.6209 41.0419 14.4227C40.7072 14.2243 40.5415 14.0574 40.4725 14.1049C40.4383 14.1284 40.4687 14.8088 40.4883 14.893C40.5724 14.9007 40.7278 14.9631 40.8268 15.0955C40.9267 15.2278 41.5665 16.1247 42.0723 16.7314C42.2844 16.9851 42.498 17.2376 42.7129 17.489C42.7651 18.0478 42.8199 18.6251 42.865 19.1075C42.9677 20.2078 43.3368 23.1098 43.3403 24.0529C43.0679 24.3086 42.5108 24.6651 41.9375 24.6725C41.3643 24.6797 41.05 24.5288 40.819 24.1027C40.7476 23.9706 40.6814 23.8377 40.6156 23.7176C40.4594 23.4317 40.1109 23.2713 39.775 23.35L39.7237 23.3637L39.6323 23.4076C39.4048 23.5267 39.1696 23.7264 38.9396 24.036C38.5419 24.5732 38.2879 25.1558 37.9936 25.6605C37.687 26.1861 37.4517 26.5387 36.9139 26.4544C36.5353 26.395 36.2477 26.0703 36.0705 25.6707C36.5684 25.3262 36.9299 24.8769 37.1944 24.254C37.5386 23.4446 37.6613 22.532 37.6307 21.5059C37.6014 20.5402 37.1612 18.2683 37.0449 17.3976C36.9289 16.5264 36.7623 15.8114 36.7816 15.6254C36.7997 15.446 37.0854 15.8685 37.2317 15.9C37.3066 15.8834 37.2664 15.6139 37.1242 15.3861C37.0279 15.2312 36.7226 14.527 36.5227 14.1873C36.4288 14.0267 36.4062 13.9336 36.3625 13.9145C36.3193 13.8948 35.9867 14.6054 36.0268 14.6827C36.1253 14.8234 36.1925 14.8905 36.2131 15.1426C36.2342 15.3947 36.4621 17.2452 36.6615 18.6082C36.8117 19.6366 37.1434 21.5045 37.186 22.8853C37.2001 23.3359 37.1358 23.6593 37.0801 23.8398C36.937 24.1166 36.7037 24.4239 35.8842 25.0073C35.7577 24.183 35.8952 23.5132 35.7752 23.4513C35.6399 23.4659 35.6183 23.85 35.6029 24.3241C35.5954 24.543 35.605 24.8462 35.6461 25.1719C34.6396 25.8447 33.3098 26.4572 32.6854 26.7843C32.3191 26.9765 32.4512 27.0213 32.7612 26.9254C33.0713 26.8291 34.7754 26.3822 35.6851 25.9038L35.783 25.8495C35.8292 26.0099 35.8852 26.1651 35.954 26.3084C36.26 26.9445 36.6974 27.3222 37.1713 27.2852C37.5697 27.2546 37.8588 26.8282 38.1109 26.3195C38.3657 25.8047 38.7962 24.8269 39.2186 24.4632C39.3808 24.3229 39.5486 24.212 39.7117 24.1454C39.7117 24.1454 40.0002 24.049 40.2656 24.2224C40.3607 24.2851 40.4318 24.3743 40.4768 24.4741C40.5815 24.7033 40.7052 24.9948 40.9583 25.239C41.4043 25.6684 42.1213 25.5798 42.6592 25.33C43.1962 25.0799 43.4704 24.69 43.5899 24.2266C43.7937 23.4339 43.7611 22.6216 43.7222 21.9001C43.6773 21.0767 43.5457 20.2352 43.4709 19.3435C43.4468 19.0569 43.3998 18.6581 43.3458 18.2256C43.8696 18.8301 44.4134 19.4436 44.7434 19.7791C44.8571 19.8949 44.9771 20.0235 45.1004 20.1593C45.1988 21.5089 45.2935 23.1978 45.3434 23.9065C45.3929 24.6127 45.361 25.5004 45.3553 25.6547C45.3492 25.8091 45.435 25.7826 45.5584 25.44C45.7236 24.9801 45.8273 23.7741 45.7911 22.9744C45.7695 22.4992 45.7221 21.633 45.6709 20.8135C46.0284 21.2389 46.3763 21.6723 46.7143 22.1135C47.1607 22.698 47.5708 23.393 47.7141 23.8266C47.8573 24.2607 47.8731 24.3893 47.9009 24.4667C47.9288 24.544 48.0522 24.2273 48.0326 23.7312M40.4941 40.2429C40.4538 40.1275 40.3303 40.0429 40.1826 40.0429C40.0349 40.0429 39.9117 40.1275 39.8711 40.2429H38.4728C38.4583 40.0873 38.4731 39.9303 38.5165 39.78L41.4033 39.7783L41.4837 39.9138C41.5571 40.0363 41.6483 40.1472 41.7543 40.2429L40.4941 40.2429ZM42.4052 38.9014H38.936C39.2027 38.7089 39.3425 38.4282 39.305 38.1441C39.2811 37.9651 39.1037 37.8314 38.8875 37.8132H38.7788C38.5157 37.8389 38.325 38.0286 38.3528 38.2367L38.3633 38.3169L38.3761 38.4401C38.3907 38.5952 38.376 38.7517 38.333 38.9014H12.6903C13.0711 39.4554 13.7654 39.7952 14.515 39.7946L37.9144 39.7802C37.6467 39.9729 37.5065 40.2541 37.5443 40.5388C37.5719 40.747 37.8073 40.8953 38.0704 40.8697C38.3332 40.844 38.524 40.6544 38.4966 40.4458L38.486 40.3661H39.8611C39.8853 40.5003 40.0193 40.6032 40.1826 40.6032C40.3459 40.6032 40.48 40.5003 40.5044 40.366H41.9032V40.3628C42.1953 40.5699 42.5665 40.6891 42.9592 40.6891C43.3286 40.6891 43.6279 40.4324 43.6279 40.1157V39.95C43.6279 39.371 43.0807 38.9013 42.4053 38.9013" fill="white"/>
</g>
</g>
</g>
<rect x="1.16016" y="0.5" width="54" height="54" rx="27" stroke="#EBEBEB"/>
<defs>
<clipPath id="clip0_17_4509">
<rect x="0.660156" width="55" height="55" rx="27.5" fill="white"/>
</clipPath>
<clipPath id="clip1_17_4509">
<rect width="55" height="55" fill="white" transform="translate(0.660156)"/>
</clipPath>
<clipPath id="clip2_17_4509">
<rect width="82.5" height="55" fill="white" transform="translate(-13.0898)"/>
</clipPath>
</defs>
</svg>
