<svg width="54" height="53" viewBox="0 0 54 53" fill="none" xmlns="http://www.w3.org/2000/svg">
<g clip-path="url(#clip0_17_5122)">
<rect width="54" height="53" rx="26.5" fill="white"/>
<g clip-path="url(#clip1_17_5122)">
<g clip-path="url(#clip2_17_5122)">
<path d="M50.3729 45.6494L39.5589 34.8353C42.8283 30.8269 44.4723 25.7298 44.154 20.5573C43.8273 15.2533 41.4624 10.281 37.5539 6.68061C33.6456 3.08018 28.4962 1.13051 23.1833 1.23944C17.8704 1.34837 12.8054 3.50745 9.04777 7.26505C5.29018 11.0226 3.13107 16.0877 3.02215 21.4006C2.91323 26.7135 4.8629 31.8629 8.46333 35.7711C12.0638 39.6797 17.036 42.0446 22.34 42.3713C27.5126 42.6896 32.6096 41.0456 36.618 37.7762L47.4323 48.5907C47.4321 48.5905 47.4326 48.591 47.4323 48.5907C47.6203 48.78 47.8449 48.9312 48.0914 49.0341C48.3382 49.1369 48.6028 49.1899 48.8701 49.1899C49.1374 49.1899 49.4023 49.1369 49.649 49.0341C49.8923 48.9326 50.1137 48.7846 50.3003 48.5986C50.5041 48.416 50.6688 48.1941 50.7847 47.9463C50.9018 47.6949 50.9664 47.4222 50.9739 47.1452C50.9815 46.8679 50.9321 46.5922 50.8287 46.3349C50.7255 46.0779 50.57 45.8443 50.3729 45.6494ZM23.6252 38.3124C20.3544 38.3124 17.157 37.3425 14.4375 35.5254C11.7179 33.7083 9.59822 31.1255 8.34653 28.1037C7.09486 25.0818 6.76735 21.7566 7.40544 18.5487C8.04356 15.3407 9.6186 12.394 11.9314 10.0812C14.2442 7.76838 17.1909 6.19334 20.3989 5.55525C23.6068 4.91713 26.932 5.24464 29.9539 6.49631C32.9757 7.748 35.5586 9.86766 37.3757 12.5872C39.1928 15.3068 40.1626 18.5042 40.1626 21.775C40.1626 23.9467 39.7349 26.0972 38.9039 28.1037C38.0728 30.11 36.8546 31.9331 35.3191 33.4688C33.7833 35.0043 31.9603 36.2226 29.9539 37.0536C27.9475 37.8847 25.7969 38.3124 23.6252 38.3124Z" fill="#122644"/>
<path d="M47.4323 48.5907L36.618 37.7762C32.6096 41.0456 27.5126 42.6896 22.34 42.3713C17.036 42.0446 12.0638 39.6797 8.46333 35.7711C4.8629 31.8629 2.91323 26.7135 3.02215 21.4006C3.13107 16.0877 5.29018 11.0226 9.04777 7.26505C12.8054 3.50745 17.8704 1.34837 23.1833 1.23944C28.4962 1.13051 33.6456 3.08018 37.5539 6.68061C41.4624 10.281 43.8273 15.2533 44.154 20.5573C44.4723 25.7298 42.8283 30.8269 39.5589 34.8353L50.3729 45.6494C50.57 45.8443 50.7255 46.0778 50.8287 46.3349C50.9321 46.5922 50.9815 46.8679 50.9739 47.1452C50.9664 47.4222 50.9018 47.6949 50.7847 47.9462C50.6688 48.1941 50.5041 48.416 50.3003 48.5986C50.1137 48.7846 49.8923 48.9326 49.649 49.0341C49.4023 49.1369 49.1374 49.1899 48.8701 49.1899C48.6028 49.1899 48.3382 49.1369 48.0914 49.0341C47.8449 48.9312 47.6203 48.78 47.4323 48.5907ZM47.4323 48.5907C47.4326 48.591 47.4321 48.5905 47.4323 48.5907ZM23.6252 38.3124C20.3544 38.3124 17.157 37.3425 14.4375 35.5254C11.7179 33.7083 9.59822 31.1255 8.34653 28.1037C7.09486 25.0818 6.76735 21.7566 7.40544 18.5487C8.04356 15.3407 9.6186 12.394 11.9314 10.0812C14.2442 7.76838 17.1909 6.19334 20.3989 5.55525C23.6068 4.91713 26.932 5.24464 29.9539 6.49631C32.9757 7.748 35.5586 9.86766 37.3757 12.5872C39.1928 15.3068 40.1626 18.5042 40.1626 21.775C40.1626 23.9467 39.7349 26.0972 38.9039 28.1037C38.0728 30.11 36.8546 31.9331 35.3191 33.4688C33.7833 35.0043 31.9603 36.2226 29.9539 37.0536C27.9475 37.8847 25.7969 38.3124 23.6252 38.3124Z" stroke="#122644" stroke-width="0.675"/>
</g>
</g>
</g>
<defs>
<clipPath id="clip0_17_5122">
<rect width="54" height="53" rx="26.5" fill="white"/>
</clipPath>
<clipPath id="clip1_17_5122">
<rect width="54" height="53" fill="white"/>
</clipPath>
<clipPath id="clip2_17_5122">
<rect width="54" height="51.3" fill="white" transform="translate(0 0.850098)"/>
</clipPath>
</defs>
</svg>
