<svg width="54" height="53" viewBox="0 0 54 53" fill="none" xmlns="http://www.w3.org/2000/svg">
<g clip-path="url(#clip0_17_4292)">
<rect width="54" height="53" rx="26.5" fill="white"/>
<g clip-path="url(#clip1_17_4292)">
<g clip-path="url(#clip2_17_4292)">
<path d="M50.3727 45.6494L39.5586 34.8353C42.8281 30.8269 44.4721 25.7298 44.1538 20.5573C43.8271 15.2533 41.4621 10.281 37.5536 6.68061C33.6454 3.08018 28.4959 1.13051 23.1831 1.23944C17.8702 1.34837 12.8051 3.50745 9.04752 7.26505C5.28993 11.0226 3.13083 16.0877 3.02191 21.4006C2.91299 26.7135 4.86266 31.8629 8.46308 35.7711C12.0635 39.6797 17.0358 42.0446 22.3398 42.3713C27.5123 42.6896 32.6094 41.0456 36.6178 37.7762L47.4321 48.5907C47.4318 48.5905 47.4324 48.591 47.4321 48.5907C47.62 48.78 47.8447 48.9312 48.0912 49.0341C48.338 49.1369 48.6026 49.1899 48.8699 49.1899C49.1372 49.1899 49.402 49.1369 49.6488 49.0341C49.8921 48.9326 50.1135 48.7846 50.3 48.5986C50.5039 48.416 50.6686 48.1941 50.7844 47.9463C50.9016 47.6949 50.9661 47.4222 50.9737 47.1452C50.9813 46.8679 50.9318 46.5922 50.8284 46.3349C50.7253 46.0779 50.5698 45.8443 50.3727 45.6494ZM23.6249 38.3124C20.3541 38.3124 17.1568 37.3425 14.4372 35.5254C11.7176 33.7083 9.59797 31.1255 8.34628 28.1037C7.09461 25.0818 6.7671 21.7566 7.4052 18.5487C8.04331 15.3407 9.61836 12.394 11.9312 10.0812C14.244 7.76838 17.1907 6.19334 20.3986 5.55525C23.6066 4.91713 26.9317 5.24464 29.9537 6.49631C32.9755 7.748 35.5583 9.86766 37.3754 12.5872C39.1925 15.3068 40.1623 18.5042 40.1623 21.775C40.1623 23.9467 39.7347 26.0972 38.9036 28.1037C38.0726 30.11 36.8543 31.9331 35.3188 33.4688C33.7831 35.0043 31.96 36.2226 29.9537 37.0536C27.9473 37.8847 25.7967 38.3124 23.6249 38.3124Z" fill="#122644"/>
<path d="M47.4321 48.5907L36.6178 37.7762C32.6094 41.0456 27.5123 42.6896 22.3398 42.3713C17.0358 42.0446 12.0635 39.6797 8.46308 35.7711C4.86266 31.8629 2.91299 26.7135 3.02191 21.4006C3.13083 16.0877 5.28993 11.0226 9.04752 7.26505C12.8051 3.50745 17.8702 1.34837 23.1831 1.23944C28.4959 1.13051 33.6454 3.08018 37.5536 6.68061C41.4621 10.281 43.8271 15.2533 44.1538 20.5573C44.4721 25.7298 42.8281 30.8269 39.5586 34.8353L50.3727 45.6494C50.5698 45.8443 50.7253 46.0778 50.8284 46.3349C50.9318 46.5922 50.9813 46.8679 50.9737 47.1452C50.9661 47.4222 50.9016 47.6949 50.7844 47.9462C50.6686 48.1941 50.5039 48.416 50.3 48.5986C50.1135 48.7846 49.8921 48.9326 49.6488 49.0341C49.402 49.1369 49.1372 49.1899 48.8699 49.1899C48.6026 49.1899 48.338 49.1369 48.0912 49.0341C47.8447 48.9312 47.62 48.78 47.4321 48.5907ZM47.4321 48.5907C47.4324 48.591 47.4318 48.5905 47.4321 48.5907ZM23.6249 38.3124C20.3541 38.3124 17.1568 37.3425 14.4372 35.5254C11.7176 33.7083 9.59797 31.1255 8.34628 28.1037C7.09461 25.0818 6.7671 21.7566 7.4052 18.5487C8.04331 15.3407 9.61836 12.394 11.9312 10.0812C14.244 7.76838 17.1907 6.19334 20.3986 5.55525C23.6066 4.91713 26.9317 5.24464 29.9537 6.49631C32.9755 7.748 35.5583 9.86766 37.3754 12.5872C39.1925 15.3068 40.1624 18.5042 40.1624 21.775C40.1624 23.9467 39.7347 26.0972 38.9036 28.1037C38.0726 30.11 36.8543 31.9331 35.3188 33.4688C33.7831 35.0043 31.96 36.2226 29.9537 37.0536C27.9473 37.8847 25.7967 38.3124 23.6249 38.3124Z" stroke="#122644" stroke-width="0.675"/>
</g>
</g>
</g>
<defs>
<clipPath id="clip0_17_4292">
<rect width="54" height="53" rx="26.5" fill="white"/>
</clipPath>
<clipPath id="clip1_17_4292">
<rect width="54" height="53" fill="white"/>
</clipPath>
<clipPath id="clip2_17_4292">
<rect width="54" height="51.3" fill="white" transform="translate(0 0.850098)"/>
</clipPath>
</defs>
</svg>
