<svg width="51" height="31" viewBox="0 0 51 31" fill="none" xmlns="http://www.w3.org/2000/svg">
<g clip-path="url(#clip0_17_1700)">
<g clip-path="url(#clip1_17_1700)">
<g clip-path="url(#clip2_17_1700)">
<path d="M38.8751 30.1103C38.206 30.5989 37.2676 30.4526 36.779 29.7836L28.8173 18.8812C28.3287 18.2122 28.475 17.2738 29.144 16.7852C29.8131 16.2966 30.7515 16.4429 31.24 17.112L38.3172 26.8029L48.0081 19.7258C48.6771 19.2372 49.6155 19.3835 50.1041 20.0525C50.5927 20.7216 50.4464 21.66 49.7774 22.1485L38.8751 30.1103ZM1.26025 7.26997C6.77297 0.823312 17.525 -1.66901 26.2526 1.36595C30.6757 2.90404 34.6387 5.87738 37.1614 10.5216C39.6794 15.1572 40.6897 21.3215 39.4725 29.13L36.5083 28.6679C37.6503 21.3417 36.6566 15.8775 34.5252 11.9535C32.3984 8.03809 29.0665 5.52067 25.2673 4.19952C17.5503 1.516 8.14806 3.83129 3.54029 9.21969L1.26025 7.26997Z" fill="black"/>
</g>
</g>
</g>
<defs>
<clipPath id="clip0_17_1700">
<rect width="50" height="31" fill="white" transform="translate(0.659912)"/>
</clipPath>
<clipPath id="clip1_17_1700">
<rect width="50" height="31" fill="white" transform="translate(0.659912)"/>
</clipPath>
<clipPath id="clip2_17_1700">
<rect width="50" height="31" fill="white" transform="translate(0.659912)"/>
</clipPath>
</defs>
</svg>
