<svg width="21" height="30" viewBox="0 0 21 30" fill="none" xmlns="http://www.w3.org/2000/svg">
<path d="M13.0375 8.57901L13.2406 8.27488L13.44 7.97484L13.8891 7.30159C13.944 7.21878 13.9217 7.10738 13.8396 7.05205C13.7561 6.99671 13.6446 7.019 13.5894 7.10218L13.1084 7.82407L12.9061 8.12746L12.7007 8.43494C12.0501 8.18279 11.3249 8.0413 10.5588 8.0413C9.79345 8.0413 9.06822 8.18279 8.41762 8.43494L8.21339 8.12746L8.011 7.82407L7.52937 7.10181C7.47441 7.019 7.36263 6.99671 7.27945 7.05167C7.19702 7.10663 7.17474 7.21841 7.22969 7.30122L7.67828 7.97446L7.87843 8.27452L8.08156 8.57864C6.55347 9.29014 5.52002 10.6381 5.52002 12.1811H15.5991C15.5991 10.6385 14.5656 9.2905 13.0375 8.57901ZM8.3998 10.7414C8.10087 10.7414 7.85949 10.4996 7.85949 10.2014C7.85949 9.90323 8.10087 9.66185 8.3998 9.66185C8.69799 9.66185 8.93937 9.90323 8.93937 10.2014C8.93937 10.4996 8.69799 10.7414 8.3998 10.7414ZM12.719 10.7414C12.4207 10.7414 12.1793 10.4996 12.1793 10.2014C12.1793 9.90323 12.4207 9.66185 12.719 9.66185C13.0178 9.66185 13.2592 9.90323 13.2592 10.2014C13.2592 10.4996 13.0178 10.7414 12.719 10.7414Z" fill="#122644"/>
<path d="M5.59763 12.9015H5.52002V13.7994V14.5321V20.8212C5.52002 21.4498 6.031 21.9612 6.65968 21.9612H7.48258C7.4551 22.0562 7.4395 22.1568 7.4395 22.2608V22.3211V22.6808V24.5413C7.4395 25.1373 7.92337 25.6212 8.51975 25.6212C9.11612 25.6212 9.59961 25.1373 9.59961 24.5413V22.6808V22.3211V22.2608C9.59961 22.1573 9.58365 22.0562 9.55691 21.9612H11.5622C11.5347 22.0562 11.5195 22.1568 11.5195 22.2608V22.3211V22.6808V24.5413C11.5195 25.1373 12.0033 25.6212 12.5993 25.6212C13.1954 25.6212 13.6792 25.1373 13.6792 24.5413V22.6808V22.3211V22.2608C13.6792 22.1573 13.664 22.0562 13.6365 21.9612H14.4591C15.0877 21.9612 15.5991 21.4498 15.5991 20.8212V14.5321V13.7994V12.9015H15.5215H5.59763Z" fill="#122644"/>
<path d="M3.7205 12.9015C3.12412 12.9015 2.64062 13.3846 2.64062 13.9817V18.6008C2.64062 19.1968 3.12412 19.6807 3.7205 19.6807C4.31651 19.6807 4.80036 19.1968 4.80036 18.6008V13.9814C4.80036 13.3846 4.31688 12.9015 3.7205 12.9015Z" fill="#122644"/>
<path d="M17.4006 12.9015C16.8039 12.9015 16.3208 13.3846 16.3208 13.9817V18.6008C16.3208 19.1968 16.8039 19.6807 17.4006 19.6807C17.9966 19.6807 18.4797 19.1968 18.4797 18.6008V13.9814C18.4797 13.3846 17.9966 12.9015 17.4006 12.9015Z" fill="#122644"/>
</svg>
