<svg xmlns="http://www.w3.org/2000/svg" width="21" height="20" viewBox="0 0 21 20" fill="none">
<path d="M15.8747 10.8507C15.8503 8.40795 17.8667 7.23633 17.9569 7.17714C16.8237 5.52026 15.0582 5.29291 14.4299 5.26705C12.9286 5.11457 11.4991 6.15135 10.7375 6.15135C9.97743 6.15135 8.80072 5.28939 7.55581 5.31134C5.91814 5.33565 4.40864 6.26384 3.5659 7.72983C1.86512 10.6802 3.13081 15.0527 4.78807 17.4472C5.59829 18.6177 6.56451 19.9348 7.83215 19.8866C9.05394 19.8383 9.5149 19.0963 10.9919 19.0963C12.4688 19.0963 12.8836 19.8866 14.1759 19.8618C15.4898 19.8379 16.3227 18.669 17.1262 17.4939C18.0564 16.1341 18.4393 14.8176 18.4621 14.7509C18.4336 14.7376 15.901 13.7674 15.8747 10.8507Z" fill="#14183e"/>
<path d="M13.4469 3.68226C14.1191 2.86617 14.5746 1.73219 14.4507 0.603302C13.4806 0.642499 12.3062 1.2481 11.6097 2.0634C10.9856 2.78699 10.44 3.939 10.5862 5.04751C11.6685 5.13139 12.7723 4.49679 13.4469 3.68226Z" fill="#14183e"/>
</svg>