<svg width="17" height="17" viewBox="0 0 17 17" fill="none" xmlns="http://www.w3.org/2000/svg">
<g clip-path="url(#clip0_17_5344)">
<g clip-path="url(#clip1_17_5344)">
<g clip-path="url(#clip2_17_5344)">
<path d="M-3.02002 0.77002H20.98V16.77H-3.02002V0.77002Z" fill="#E30A17"/>
<path d="M8.1134 8.77002L11.7315 7.59455L9.49526 10.6722V6.86789L11.7315 9.94549L8.1134 8.77002ZM8.36006 10.909C7.89664 11.6413 7.20791 12.2033 6.39751 12.5104C5.58711 12.8175 4.69889 12.8532 3.8665 12.6119C3.03411 12.3707 2.30259 11.8656 1.78202 11.1727C1.26144 10.4799 0.97998 9.63666 0.97998 8.77002C0.97998 7.90338 1.26144 7.06018 1.78202 6.3673C2.30259 5.67443 3.03411 5.16937 3.8665 4.92812C4.69889 4.68688 5.58711 4.7225 6.39751 5.02962C7.20791 5.33674 7.89664 5.89876 8.36006 6.63109C7.9273 6.14953 7.35865 5.81057 6.72921 5.65898C6.09977 5.50738 5.43915 5.55028 4.8346 5.78201C4.23005 6.01374 3.71002 6.4234 3.34318 6.95689C2.97634 7.49037 2.77995 8.12258 2.77995 8.77002C2.77995 9.41746 2.97634 10.0497 3.34318 10.5832C3.71002 11.1166 4.23005 11.5263 4.8346 11.758C5.43915 11.9898 6.09977 12.0327 6.72921 11.8811C7.35865 11.7295 7.9273 11.3905 8.36006 10.909Z" fill="white"/>
</g>
</g>
</g>
<defs>
<clipPath id="clip0_17_5344">
<rect x="0.97998" y="0.77002" width="16" height="16" rx="8" fill="white"/>
</clipPath>
<clipPath id="clip1_17_5344">
<rect width="16" height="16" fill="white" transform="translate(0.97998 0.77002)"/>
</clipPath>
<clipPath id="clip2_17_5344">
<rect width="24" height="16" fill="white" transform="translate(-3.02002 0.77002)"/>
</clipPath>
</defs>
</svg>
