<svg width="56" height="56" viewBox="0 0 56 56" fill="none" xmlns="http://www.w3.org/2000/svg">
<g clip-path="url(#clip0_17_5330)">
<g clip-path="url(#clip1_17_5330)">
<g clip-path="url(#clip2_17_5330)">
<path d="M-13.4199 0.609863H69.0801V55.6099H-13.4199V0.609863Z" fill="#E30A17"/>
<path d="M24.8507 28.1099L37.288 24.0692L29.6009 34.6484V21.5713L37.288 32.1505L24.8507 28.1099ZM25.6986 35.4625C24.1056 37.9798 21.7381 39.9118 18.9524 40.9675C16.1666 42.0232 13.1133 42.1457 10.252 41.3164C7.39068 40.4871 4.87607 38.751 3.0866 36.3692C1.29712 33.9875 0.32959 31.0889 0.32959 28.1099C0.32959 25.1308 1.29712 22.2323 3.0866 19.8505C4.87607 17.4688 7.39068 15.7326 10.252 14.9033C13.1133 14.0741 16.1666 14.1965 18.9524 15.2522C21.7381 16.308 24.1056 18.2399 25.6986 20.7573C24.211 19.1019 22.2563 17.9368 20.0926 17.4156C17.9289 16.8945 15.658 17.042 13.5799 17.8386C11.5017 18.6352 9.7141 20.0434 8.45308 21.8772C7.19206 23.7111 6.51697 25.8843 6.51697 28.1099C6.51697 30.3354 7.19206 32.5087 8.45308 34.3425C9.7141 36.1764 11.5017 37.5846 13.5799 38.3811C15.658 39.1777 17.9289 39.3252 20.0926 38.8041C22.2563 38.283 24.211 37.1178 25.6986 35.4625Z" fill="white"/>
</g>
</g>
</g>
<rect x="0.830078" y="1.10986" width="54" height="54" rx="27" stroke="#EBEBEB"/>
<defs>
<clipPath id="clip0_17_5330">
<rect x="0.330078" y="0.609863" width="55" height="55" rx="27.5" fill="white"/>
</clipPath>
<clipPath id="clip1_17_5330">
<rect width="55" height="55" fill="white" transform="translate(0.330078 0.609863)"/>
</clipPath>
<clipPath id="clip2_17_5330">
<rect width="82.5" height="55" fill="white" transform="translate(-13.4199 0.609863)"/>
</clipPath>
</defs>
</svg>
