<svg width="56" height="56" viewBox="0 0 56 56" fill="none" xmlns="http://www.w3.org/2000/svg">
<g clip-path="url(#clip0_17_5419)">
<g clip-path="url(#clip1_17_5419)">
<g clip-path="url(#clip2_17_5419)">
<path d="M-13.0901 0.219727H69.4099V55.2197H-13.0901V0.219727Z" fill="#E30A17"/>
<path d="M25.1808 27.7197L37.6181 23.6791L29.931 34.2583V21.1811L37.6181 31.7604L25.1808 27.7197ZM26.0287 35.0723C24.4357 37.5897 22.0682 39.5216 19.2824 40.5774C16.4967 41.6331 13.4434 41.7555 10.5821 40.9262C7.72075 40.097 5.20615 38.3608 3.41668 35.9791C1.6272 33.5973 0.659668 30.6988 0.659668 27.7197C0.659668 24.7406 1.6272 21.8421 3.41668 19.4604C5.20615 17.0786 7.72075 15.3425 10.5821 14.5132C13.4434 13.6839 16.4967 13.8064 19.2824 14.8621C22.0682 15.9178 24.4357 17.8498 26.0287 20.3671C24.5411 18.7118 22.5864 17.5466 20.4227 17.0255C18.2589 16.5044 15.9881 16.6519 13.9099 17.4485C11.8318 18.245 10.0442 19.6532 8.78316 21.4871C7.52214 23.3209 6.84705 25.4942 6.84705 27.7197C6.84705 29.9453 7.52214 32.1185 8.78316 33.9524C10.0442 35.7862 11.8318 37.1944 13.9099 37.991C15.9881 38.7876 18.2589 38.9351 20.4227 38.4139C22.5864 37.8928 24.5411 36.7277 26.0287 35.0723Z" fill="white"/>
</g>
</g>
</g>
<rect x="1.15991" y="0.719727" width="54" height="54" rx="27" stroke="#EBEBEB"/>
<defs>
<clipPath id="clip0_17_5419">
<rect x="0.659912" y="0.219727" width="55" height="55" rx="27.5" fill="white"/>
</clipPath>
<clipPath id="clip1_17_5419">
<rect width="55" height="55" fill="white" transform="translate(0.659912 0.219727)"/>
</clipPath>
<clipPath id="clip2_17_5419">
<rect width="82.5" height="55" fill="white" transform="translate(-13.0901 0.219727)"/>
</clipPath>
</defs>
</svg>
