<svg width="56" height="56" viewBox="0 0 56 56" fill="none" xmlns="http://www.w3.org/2000/svg">
<g clip-path="url(#clip0_17_5455)">
<g clip-path="url(#clip1_17_5455)">
<g clip-path="url(#clip2_17_5455)">
<path d="M-13.4199 0.219727H69.0801V55.2197H-13.4199V0.219727Z" fill="#E30A17"/>
<path d="M24.8507 27.7197L37.288 23.6791L29.6009 34.2583V21.1811L37.288 31.7604L24.8507 27.7197ZM25.6986 35.0723C24.1056 37.5897 21.7381 39.5216 18.9524 40.5774C16.1666 41.6331 13.1133 41.7555 10.252 40.9262C7.39068 40.097 4.87607 38.3608 3.0866 35.9791C1.29712 33.5973 0.32959 30.6988 0.32959 27.7197C0.32959 24.7406 1.29712 21.8421 3.0866 19.4604C4.87607 17.0786 7.39068 15.3425 10.252 14.5132C13.1133 13.6839 16.1666 13.8064 18.9524 14.8621C21.7381 15.9178 24.1056 17.8498 25.6986 20.3671C24.211 18.7118 22.2563 17.5466 20.0926 17.0255C17.9289 16.5044 15.658 16.6519 13.5799 17.4485C11.5017 18.245 9.7141 19.6532 8.45308 21.4871C7.19206 23.3209 6.51697 25.4942 6.51697 27.7197C6.51697 29.9453 7.19206 32.1185 8.45308 33.9524C9.7141 35.7862 11.5017 37.1944 13.5799 37.991C15.658 38.7876 17.9289 38.9351 20.0926 38.4139C22.2563 37.8928 24.211 36.7277 25.6986 35.0723Z" fill="white"/>
</g>
</g>
</g>
<rect x="0.830078" y="0.719727" width="54" height="54" rx="27" stroke="#EBEBEB"/>
<defs>
<clipPath id="clip0_17_5455">
<rect x="0.330078" y="0.219727" width="55" height="55" rx="27.5" fill="white"/>
</clipPath>
<clipPath id="clip1_17_5455">
<rect width="55" height="55" fill="white" transform="translate(0.330078 0.219727)"/>
</clipPath>
<clipPath id="clip2_17_5455">
<rect width="82.5" height="55" fill="white" transform="translate(-13.4199 0.219727)"/>
</clipPath>
</defs>
</svg>
