<svg width="17" height="17" viewBox="0 0 17 17" fill="none" xmlns="http://www.w3.org/2000/svg">
<g clip-path="url(#clip0_17_5308)">
<g clip-path="url(#clip1_17_5308)">
<g clip-path="url(#clip2_17_5308)">
<path d="M-3.68994 0.77002H20.3101V16.77H-3.68994V0.77002Z" fill="#E30A17"/>
<path d="M7.44348 8.77002L11.0616 7.59455L8.82534 10.6722V6.86789L11.0616 9.94549L7.44348 8.77002ZM7.69014 10.909C7.22672 11.6413 6.53799 12.2033 5.72759 12.5104C4.91719 12.8175 4.02897 12.8532 3.19658 12.6119C2.36419 12.3707 1.63267 11.8656 1.1121 11.1727C0.591523 10.4799 0.310059 9.63666 0.310059 8.77002C0.310059 7.90338 0.591523 7.06018 1.1121 6.3673C1.63267 5.67443 2.36419 5.16937 3.19658 4.92812C4.02897 4.68688 4.91719 4.7225 5.72759 5.02962C6.53799 5.33674 7.22672 5.89876 7.69014 6.63109C7.25738 6.14953 6.68873 5.81057 6.05929 5.65898C5.42985 5.50738 4.76923 5.55028 4.16468 5.78201C3.56013 6.01374 3.0401 6.4234 2.67325 6.95689C2.30641 7.49037 2.11002 8.12258 2.11002 8.77002C2.11002 9.41746 2.30641 10.0497 2.67325 10.5832C3.0401 11.1166 3.56013 11.5263 4.16468 11.758C4.76923 11.9898 5.42985 12.0327 6.05929 11.8811C6.68873 11.7295 7.25738 11.3905 7.69014 10.909Z" fill="white"/>
</g>
</g>
</g>
<defs>
<clipPath id="clip0_17_5308">
<rect x="0.310059" y="0.77002" width="16" height="16" rx="8" fill="white"/>
</clipPath>
<clipPath id="clip1_17_5308">
<rect width="16" height="16" fill="white" transform="translate(0.310059 0.77002)"/>
</clipPath>
<clipPath id="clip2_17_5308">
<rect width="24" height="16" fill="white" transform="translate(-3.68994 0.77002)"/>
</clipPath>
</defs>
</svg>
