<svg width="17" height="17" viewBox="0 0 17 17" fill="none" xmlns="http://www.w3.org/2000/svg">
<g clip-path="url(#clip0_17_5384)">
<g clip-path="url(#clip1_17_5384)">
<g clip-path="url(#clip2_17_5384)">
<path d="M-3.35986 0.379883H20.6401V16.3799H-3.35986V0.379883Z" fill="#E30A17"/>
<path d="M7.77355 8.37988L11.3917 7.20442L9.15542 10.282V6.47775L11.3917 9.55535L7.77355 8.37988ZM8.02022 10.5188C7.5568 11.2511 6.86807 11.8132 6.05767 12.1203C5.24727 12.4274 4.35905 12.463 3.52666 12.2218C2.69427 11.9805 1.96275 11.4755 1.44218 10.7826C0.921601 10.0897 0.640137 9.24653 0.640137 8.37988C0.640137 7.51324 0.921601 6.67004 1.44218 5.97717C1.96275 5.2843 2.69427 4.77923 3.52666 4.53799C4.35905 4.29674 5.24727 4.33236 6.05767 4.63948C6.86807 4.94661 7.5568 5.50862 8.02022 6.24095C7.58746 5.75939 7.01881 5.42043 6.38937 5.26884C5.75993 5.11724 5.09931 5.16014 4.49476 5.39188C3.89021 5.62361 3.37017 6.03327 3.00333 6.56675C2.63649 7.10023 2.4401 7.73244 2.4401 8.37988C2.4401 9.02732 2.63649 9.65953 3.00333 10.193C3.37017 10.7265 3.89021 11.1362 4.49476 11.3679C5.09931 11.5996 5.75993 11.6425 6.38937 11.4909C7.01881 11.3393 7.58746 11.0004 8.02022 10.5188Z" fill="white"/>
</g>
</g>
</g>
<defs>
<clipPath id="clip0_17_5384">
<rect x="0.640137" y="0.379883" width="16" height="16" rx="8" fill="white"/>
</clipPath>
<clipPath id="clip1_17_5384">
<rect width="16" height="16" fill="white" transform="translate(0.640137 0.379883)"/>
</clipPath>
<clipPath id="clip2_17_5384">
<rect width="24" height="16" fill="white" transform="translate(-3.35986 0.379883)"/>
</clipPath>
</defs>
</svg>
