<svg width="17" height="17" viewBox="0 0 17 17" fill="none" xmlns="http://www.w3.org/2000/svg">
<g clip-path="url(#clip0_17_5433)">
<g clip-path="url(#clip1_17_5433)">
<g clip-path="url(#clip2_17_5433)">
<path d="M-3.68994 0.379883H20.3101V16.3799H-3.68994V0.379883Z" fill="#E30A17"/>
<path d="M7.44348 8.37988L11.0616 7.20442L8.82534 10.282V6.47775L11.0616 9.55535L7.44348 8.37988ZM7.69014 10.5188C7.22672 11.2511 6.53799 11.8132 5.72759 12.1203C4.91719 12.4274 4.02897 12.463 3.19658 12.2218C2.36419 11.9805 1.63267 11.4755 1.1121 10.7826C0.591523 10.0897 0.310059 9.24653 0.310059 8.37988C0.310059 7.51324 0.591523 6.67004 1.1121 5.97717C1.63267 5.2843 2.36419 4.77923 3.19658 4.53799C4.02897 4.29674 4.91719 4.33236 5.72759 4.63948C6.53799 4.94661 7.22672 5.50862 7.69014 6.24095C7.25738 5.75939 6.68873 5.42043 6.05929 5.26884C5.42985 5.11724 4.76923 5.16014 4.16468 5.39188C3.56013 5.62361 3.0401 6.03327 2.67325 6.56675C2.30641 7.10023 2.11002 7.73244 2.11002 8.37988C2.11002 9.02732 2.30641 9.65953 2.67325 10.193C3.0401 10.7265 3.56013 11.1362 4.16468 11.3679C4.76923 11.5996 5.42985 11.6425 6.05929 11.4909C6.68873 11.3393 7.25738 11.0004 7.69014 10.5188Z" fill="white"/>
</g>
</g>
</g>
<defs>
<clipPath id="clip0_17_5433">
<rect x="0.310059" y="0.379883" width="16" height="16" rx="8" fill="white"/>
</clipPath>
<clipPath id="clip1_17_5433">
<rect width="16" height="16" fill="white" transform="translate(0.310059 0.379883)"/>
</clipPath>
<clipPath id="clip2_17_5433">
<rect width="24" height="16" fill="white" transform="translate(-3.68994 0.379883)"/>
</clipPath>
</defs>
</svg>
