<svg width="55" height="55" viewBox="0 0 55 55" fill="none" xmlns="http://www.w3.org/2000/svg">
<g clip-path="url(#clip0_17_5133)">
<g clip-path="url(#clip1_17_5133)">
<g clip-path="url(#clip2_17_5133)">
<path d="M-13.75 0H68.75V55H-13.75V0Z" fill="#E30A17"/>
<path d="M24.5209 27.5L36.9582 23.4593L29.271 34.0386V20.9614L36.9582 31.5407L24.5209 27.5ZM25.3688 34.8526C23.7758 37.37 21.4083 39.3019 18.6225 40.3576C15.8368 41.4134 12.7835 41.5358 9.92218 40.7065C7.06084 39.8772 4.54624 38.1411 2.75676 35.7593C0.96729 33.3776 -0.000244141 30.4791 -0.000244141 27.5C-0.000244141 24.5209 0.96729 21.6224 2.75676 19.2407C4.54624 16.8589 7.06084 15.1228 9.92218 14.2935C12.7835 13.4642 15.8368 13.5866 18.6225 14.6424C21.4083 15.6981 23.7758 17.63 25.3688 20.1474C23.8812 18.4921 21.9264 17.3269 19.7627 16.8058C17.599 16.2847 15.3282 16.4322 13.25 17.2287C11.1719 18.0253 9.38426 19.4335 8.12324 21.2674C6.86223 23.1012 6.18713 25.2744 6.18713 27.5C6.18713 29.7256 6.86223 31.8988 8.12324 33.7326C9.38426 35.5665 11.1719 36.9747 13.25 37.7713C15.3282 38.5679 17.599 38.7153 19.7627 38.1942C21.9264 37.6731 23.8812 36.5079 25.3688 34.8526Z" fill="white"/>
</g>
</g>
</g>
<rect x="0.5" y="0.5" width="54" height="54" rx="27" stroke="#EBEBEB"/>
<defs>
<clipPath id="clip0_17_5133">
<rect width="55" height="55" rx="27.5" fill="white"/>
</clipPath>
<clipPath id="clip1_17_5133">
<rect width="55" height="55" fill="white"/>
</clipPath>
<clipPath id="clip2_17_5133">
<rect width="82.5" height="55" fill="white" transform="translate(-13.75)"/>
</clipPath>
</defs>
</svg>
