<svg width="17" height="17" viewBox="0 0 17 17" fill="none" xmlns="http://www.w3.org/2000/svg">
<g clip-path="url(#clip0_17_5259)">
<g clip-path="url(#clip1_17_5259)">
<g clip-path="url(#clip2_17_5259)">
<path d="M-3.35986 0.77002H20.6401V16.77H-3.35986V0.77002Z" fill="#E30A17"/>
<path d="M7.77355 8.77002L11.3917 7.59455L9.15542 10.6722V6.86789L11.3917 9.94549L7.77355 8.77002ZM8.02022 10.909C7.5568 11.6413 6.86807 12.2033 6.05767 12.5104C5.24727 12.8175 4.35905 12.8532 3.52666 12.6119C2.69427 12.3707 1.96275 11.8656 1.44218 11.1727C0.921601 10.4799 0.640137 9.63666 0.640137 8.77002C0.640137 7.90338 0.921601 7.06018 1.44218 6.3673C1.96275 5.67443 2.69427 5.16937 3.52666 4.92812C4.35905 4.68688 5.24727 4.7225 6.05767 5.02962C6.86807 5.33674 7.5568 5.89876 8.02022 6.63109C7.58746 6.14953 7.01881 5.81057 6.38937 5.65898C5.75993 5.50738 5.09931 5.55028 4.49476 5.78201C3.89021 6.01374 3.37017 6.4234 3.00333 6.95689C2.63649 7.49037 2.4401 8.12258 2.4401 8.77002C2.4401 9.41746 2.63649 10.0497 3.00333 10.5832C3.37017 11.1166 3.89021 11.5263 4.49476 11.758C5.09931 11.9898 5.75993 12.0327 6.38937 11.8811C7.01881 11.7295 7.58746 11.3905 8.02022 10.909Z" fill="white"/>
</g>
</g>
</g>
<defs>
<clipPath id="clip0_17_5259">
<rect x="0.640137" y="0.77002" width="16" height="16" rx="8" fill="white"/>
</clipPath>
<clipPath id="clip1_17_5259">
<rect width="16" height="16" fill="white" transform="translate(0.640137 0.77002)"/>
</clipPath>
<clipPath id="clip2_17_5259">
<rect width="24" height="16" fill="white" transform="translate(-3.35986 0.77002)"/>
</clipPath>
</defs>
</svg>
