<svg width="17" height="17" viewBox="0 0 17 17" fill="none" xmlns="http://www.w3.org/2000/svg">
<g clip-path="url(#clip0_17_5219)">
<g clip-path="url(#clip1_17_5219)">
<g clip-path="url(#clip2_17_5219)">
<path d="M-3.02002 0.159912H20.98V16.1599H-3.02002V0.159912Z" fill="#E30A17"/>
<path d="M8.1134 8.15991L11.7315 6.98445L9.49526 10.062V6.25778L11.7315 9.33538L8.1134 8.15991ZM8.36006 10.2988C7.89664 11.0312 7.20791 11.5932 6.39751 11.9003C5.58711 12.2074 4.69889 12.2431 3.8665 12.0018C3.03411 11.7606 2.30259 11.2555 1.78202 10.5626C1.26144 9.86976 0.97998 9.02656 0.97998 8.15991C0.97998 7.29327 1.26144 6.45007 1.78202 5.7572C2.30259 5.06432 3.03411 4.55926 3.8665 4.31802C4.69889 4.07677 5.58711 4.11239 6.39751 4.41951C7.20791 4.72663 7.89664 5.28865 8.36006 6.02098C7.9273 5.53942 7.35865 5.20046 6.72921 5.04887C6.09977 4.89727 5.43915 4.94017 4.8346 5.17191C4.23005 5.40364 3.71002 5.8133 3.34318 6.34678C2.97634 6.88026 2.77995 7.51247 2.77995 8.15991C2.77995 8.80735 2.97634 9.43956 3.34318 9.97305C3.71002 10.5065 4.23005 10.9162 4.8346 11.1479C5.43915 11.3797 6.09977 11.4226 6.72921 11.271C7.35865 11.1194 7.9273 10.7804 8.36006 10.2988Z" fill="white"/>
</g>
</g>
</g>
<defs>
<clipPath id="clip0_17_5219">
<rect x="0.97998" y="0.159912" width="16" height="16" rx="8" fill="white"/>
</clipPath>
<clipPath id="clip1_17_5219">
<rect width="16" height="16" fill="white" transform="translate(0.97998 0.159912)"/>
</clipPath>
<clipPath id="clip2_17_5219">
<rect width="24" height="16" fill="white" transform="translate(-3.02002 0.159912)"/>
</clipPath>
</defs>
</svg>
