<svg width="56" height="55" viewBox="0 0 56 55" fill="none" xmlns="http://www.w3.org/2000/svg">
<g clip-path="url(#clip0_17_5169)">
<g clip-path="url(#clip1_17_5169)">
<g clip-path="url(#clip2_17_5169)">
<path d="M-13.0901 0H69.4099V55H-13.0901V0Z" fill="#E30A17"/>
<path d="M25.1808 27.5L37.6181 23.4593L29.931 34.0386V20.9614L37.6181 31.5407L25.1808 27.5ZM26.0287 34.8526C24.4357 37.37 22.0682 39.3019 19.2824 40.3576C16.4967 41.4134 13.4434 41.5358 10.5821 40.7065C7.72075 39.8772 5.20615 38.1411 3.41668 35.7593C1.6272 33.3776 0.659668 30.4791 0.659668 27.5C0.659668 24.5209 1.6272 21.6224 3.41668 19.2407C5.20615 16.8589 7.72075 15.1228 10.5821 14.2935C13.4434 13.4642 16.4967 13.5866 19.2824 14.6424C22.0682 15.6981 24.4357 17.63 26.0287 20.1474C24.5411 18.4921 22.5864 17.3269 20.4227 16.8058C18.2589 16.2847 15.9881 16.4322 13.9099 17.2287C11.8318 18.0253 10.0442 19.4335 8.78316 21.2674C7.52214 23.1012 6.84705 25.2744 6.84705 27.5C6.84705 29.7256 7.52214 31.8988 8.78316 33.7326C10.0442 35.5665 11.8318 36.9747 13.9099 37.7713C15.9881 38.5679 18.2589 38.7153 20.4227 38.1942C22.5864 37.6731 24.5411 36.5079 26.0287 34.8526Z" fill="white"/>
</g>
</g>
</g>
<rect x="1.15991" y="0.5" width="54" height="54" rx="27" stroke="#EBEBEB"/>
<defs>
<clipPath id="clip0_17_5169">
<rect x="0.659912" width="55" height="55" rx="27.5" fill="white"/>
</clipPath>
<clipPath id="clip1_17_5169">
<rect width="55" height="55" fill="white" transform="translate(0.659912)"/>
</clipPath>
<clipPath id="clip2_17_5169">
<rect width="82.5" height="55" fill="white" transform="translate(-13.0901)"/>
</clipPath>
</defs>
</svg>
