<svg width="17" height="17" viewBox="0 0 17 17" fill="none" xmlns="http://www.w3.org/2000/svg">
<g clip-path="url(#clip0_17_5469)">
<g clip-path="url(#clip1_17_5469)">
<g clip-path="url(#clip2_17_5469)">
<path d="M-3.02002 0.379883H20.98V16.3799H-3.02002V0.379883Z" fill="#E30A17"/>
<path d="M8.1134 8.37988L11.7315 7.20442L9.49526 10.282V6.47775L11.7315 9.55535L8.1134 8.37988ZM8.36006 10.5188C7.89664 11.2511 7.20791 11.8132 6.39751 12.1203C5.58711 12.4274 4.69889 12.463 3.8665 12.2218C3.03411 11.9805 2.30259 11.4755 1.78202 10.7826C1.26144 10.0897 0.97998 9.24653 0.97998 8.37988C0.97998 7.51324 1.26144 6.67004 1.78202 5.97717C2.30259 5.2843 3.03411 4.77923 3.8665 4.53799C4.69889 4.29674 5.58711 4.33236 6.39751 4.63948C7.20791 4.94661 7.89664 5.50862 8.36006 6.24095C7.9273 5.75939 7.35865 5.42043 6.72921 5.26884C6.09977 5.11724 5.43915 5.16014 4.8346 5.39188C4.23005 5.62361 3.71002 6.03327 3.34318 6.56675C2.97634 7.10023 2.77995 7.73244 2.77995 8.37988C2.77995 9.02732 2.97634 9.65953 3.34318 10.193C3.71002 10.7265 4.23005 11.1362 4.8346 11.3679C5.43915 11.5996 6.09977 11.6425 6.72921 11.4909C7.35865 11.3393 7.9273 11.0004 8.36006 10.5188Z" fill="white"/>
</g>
</g>
</g>
<defs>
<clipPath id="clip0_17_5469">
<rect x="0.97998" y="0.379883" width="16" height="16" rx="8" fill="white"/>
</clipPath>
<clipPath id="clip1_17_5469">
<rect width="16" height="16" fill="white" transform="translate(0.97998 0.379883)"/>
</clipPath>
<clipPath id="clip2_17_5469">
<rect width="24" height="16" fill="white" transform="translate(-3.02002 0.379883)"/>
</clipPath>
</defs>
</svg>
