<svg width="56" height="56" viewBox="0 0 56 56" fill="none" xmlns="http://www.w3.org/2000/svg">
<g clip-path="url(#clip0_17_5294)">
<g clip-path="url(#clip1_17_5294)">
<g clip-path="url(#clip2_17_5294)">
<path d="M-13.0901 0.609863H69.4099V55.6099H-13.0901V0.609863Z" fill="#E30A17"/>
<path d="M25.1808 28.1099L37.6181 24.0692L29.931 34.6484V21.5713L37.6181 32.1505L25.1808 28.1099ZM26.0287 35.4625C24.4357 37.9798 22.0682 39.9118 19.2824 40.9675C16.4967 42.0232 13.4434 42.1457 10.5821 41.3164C7.72075 40.4871 5.20615 38.751 3.41668 36.3692C1.6272 33.9875 0.659668 31.0889 0.659668 28.1099C0.659668 25.1308 1.6272 22.2323 3.41668 19.8505C5.20615 17.4688 7.72075 15.7326 10.5821 14.9033C13.4434 14.0741 16.4967 14.1965 19.2824 15.2522C22.0682 16.308 24.4357 18.2399 26.0287 20.7573C24.5411 19.1019 22.5864 17.9368 20.4227 17.4156C18.2589 16.8945 15.9881 17.042 13.9099 17.8386C11.8318 18.6352 10.0442 20.0434 8.78316 21.8772C7.52214 23.7111 6.84705 25.8843 6.84705 28.1099C6.84705 30.3354 7.52214 32.5087 8.78316 34.3425C10.0442 36.1764 11.8318 37.5846 13.9099 38.3811C15.9881 39.1777 18.2589 39.3252 20.4227 38.8041C22.5864 38.283 24.5411 37.1178 26.0287 35.4625Z" fill="white"/>
</g>
</g>
</g>
<rect x="1.15991" y="1.10986" width="54" height="54" rx="27" stroke="#EBEBEB"/>
<defs>
<clipPath id="clip0_17_5294">
<rect x="0.659912" y="0.609863" width="55" height="55" rx="27.5" fill="white"/>
</clipPath>
<clipPath id="clip1_17_5294">
<rect width="55" height="55" fill="white" transform="translate(0.659912 0.609863)"/>
</clipPath>
<clipPath id="clip2_17_5294">
<rect width="82.5" height="55" fill="white" transform="translate(-13.0901 0.609863)"/>
</clipPath>
</defs>
</svg>
