<svg width="17" height="17" viewBox="0 0 17 17" fill="none" xmlns="http://www.w3.org/2000/svg">
<g clip-path="url(#clip0_17_5147)">
<g clip-path="url(#clip1_17_5147)">
<g clip-path="url(#clip2_17_5147)">
<path d="M-3.35986 0.159912H20.6401V16.1599H-3.35986V0.159912Z" fill="#E30A17"/>
<path d="M7.77355 8.15991L11.3917 6.98445L9.15542 10.062V6.25778L11.3917 9.33538L7.77355 8.15991ZM8.02022 10.2988C7.5568 11.0312 6.86807 11.5932 6.05767 11.9003C5.24727 12.2074 4.35905 12.2431 3.52666 12.0018C2.69427 11.7606 1.96275 11.2555 1.44218 10.5626C0.921601 9.86976 0.640137 9.02656 0.640137 8.15991C0.640137 7.29327 0.921601 6.45007 1.44218 5.7572C1.96275 5.06432 2.69427 4.55926 3.52666 4.31802C4.35905 4.07677 5.24727 4.11239 6.05767 4.41951C6.86807 4.72663 7.5568 5.28865 8.02022 6.02098C7.58746 5.53942 7.01881 5.20046 6.38937 5.04887C5.75993 4.89727 5.09931 4.94017 4.49476 5.17191C3.89021 5.40364 3.37017 5.8133 3.00333 6.34678C2.63649 6.88026 2.4401 7.51247 2.4401 8.15991C2.4401 8.80735 2.63649 9.43956 3.00333 9.97305C3.37017 10.5065 3.89021 10.9162 4.49476 11.1479C5.09931 11.3797 5.75993 11.4226 6.38937 11.271C7.01881 11.1194 7.58746 10.7804 8.02022 10.2988Z" fill="white"/>
</g>
</g>
</g>
<defs>
<clipPath id="clip0_17_5147">
<rect x="0.640137" y="0.159912" width="16" height="16" rx="8" fill="white"/>
</clipPath>
<clipPath id="clip1_17_5147">
<rect width="16" height="16" fill="white" transform="translate(0.640137 0.159912)"/>
</clipPath>
<clipPath id="clip2_17_5147">
<rect width="24" height="16" fill="white" transform="translate(-3.35986 0.159912)"/>
</clipPath>
</defs>
</svg>
