<svg width="17" height="17" viewBox="0 0 17 17" fill="none" xmlns="http://www.w3.org/2000/svg">
<g clip-path="url(#clip0_17_5183)">
<g clip-path="url(#clip1_17_5183)">
<g clip-path="url(#clip2_17_5183)">
<path d="M-3.68994 0.159912H20.3101V16.1599H-3.68994V0.159912Z" fill="#E30A17"/>
<path d="M7.44348 8.15991L11.0616 6.98445L8.82534 10.062V6.25778L11.0616 9.33538L7.44348 8.15991ZM7.69014 10.2988C7.22672 11.0312 6.53799 11.5932 5.72759 11.9003C4.91719 12.2074 4.02897 12.2431 3.19658 12.0018C2.36419 11.7606 1.63267 11.2555 1.1121 10.5626C0.591523 9.86976 0.310059 9.02656 0.310059 8.15991C0.310059 7.29327 0.591523 6.45007 1.1121 5.7572C1.63267 5.06432 2.36419 4.55926 3.19658 4.31802C4.02897 4.07677 4.91719 4.11239 5.72759 4.41951C6.53799 4.72663 7.22672 5.28865 7.69014 6.02098C7.25738 5.53942 6.68873 5.20046 6.05929 5.04887C5.42985 4.89727 4.76923 4.94017 4.16468 5.17191C3.56013 5.40364 3.0401 5.8133 2.67325 6.34678C2.30641 6.88026 2.11002 7.51247 2.11002 8.15991C2.11002 8.80735 2.30641 9.43956 2.67325 9.97305C3.0401 10.5065 3.56013 10.9162 4.16468 11.1479C4.76923 11.3797 5.42985 11.4226 6.05929 11.271C6.68873 11.1194 7.25738 10.7804 7.69014 10.2988Z" fill="white"/>
</g>
</g>
</g>
<defs>
<clipPath id="clip0_17_5183">
<rect x="0.310059" y="0.159912" width="16" height="16" rx="8" fill="white"/>
</clipPath>
<clipPath id="clip1_17_5183">
<rect width="16" height="16" fill="white" transform="translate(0.310059 0.159912)"/>
</clipPath>
<clipPath id="clip2_17_5183">
<rect width="24" height="16" fill="white" transform="translate(-3.68994 0.159912)"/>
</clipPath>
</defs>
</svg>
