<svg width="56" height="55" viewBox="0 0 56 55" fill="none" xmlns="http://www.w3.org/2000/svg">
<g clip-path="url(#clip0_17_5205)">
<g clip-path="url(#clip1_17_5205)">
<g clip-path="url(#clip2_17_5205)">
<path d="M-13.4199 0H69.0801V55H-13.4199V0Z" fill="#E30A17"/>
<path d="M24.8507 27.5L37.288 23.4593L29.6009 34.0386V20.9614L37.288 31.5407L24.8507 27.5ZM25.6986 34.8526C24.1056 37.37 21.7381 39.3019 18.9524 40.3576C16.1666 41.4134 13.1133 41.5358 10.252 40.7065C7.39068 39.8772 4.87607 38.1411 3.0866 35.7593C1.29712 33.3776 0.32959 30.4791 0.32959 27.5C0.32959 24.5209 1.29712 21.6224 3.0866 19.2407C4.87607 16.8589 7.39068 15.1228 10.252 14.2935C13.1133 13.4642 16.1666 13.5866 18.9524 14.6424C21.7381 15.6981 24.1056 17.63 25.6986 20.1474C24.211 18.4921 22.2563 17.3269 20.0926 16.8058C17.9289 16.2847 15.658 16.4322 13.5799 17.2287C11.5017 18.0253 9.7141 19.4335 8.45308 21.2674C7.19206 23.1012 6.51697 25.2744 6.51697 27.5C6.51697 29.7256 7.19206 31.8988 8.45308 33.7326C9.7141 35.5665 11.5017 36.9747 13.5799 37.7713C15.658 38.5679 17.9289 38.7153 20.0926 38.1942C22.2563 37.6731 24.211 36.5079 25.6986 34.8526Z" fill="white"/>
</g>
</g>
</g>
<rect x="0.830078" y="0.5" width="54" height="54" rx="27" stroke="#EBEBEB"/>
<defs>
<clipPath id="clip0_17_5205">
<rect x="0.330078" width="55" height="55" rx="27.5" fill="white"/>
</clipPath>
<clipPath id="clip1_17_5205">
<rect width="55" height="55" fill="white" transform="translate(0.330078)"/>
</clipPath>
<clipPath id="clip2_17_5205">
<rect width="82.5" height="55" fill="white" transform="translate(-13.4199)"/>
</clipPath>
</defs>
</svg>
