<svg width="55" height="55" viewBox="0 0 55 55" fill="none" xmlns="http://www.w3.org/2000/svg">
<g clip-path="url(#clip0_17_4354)">
<g clip-path="url(#clip1_17_4354)">
<g clip-path="url(#clip2_17_4354)">
<path d="M-12.375 0H92.125V55H-12.375V0Z" fill="#B22234"/>
<path d="M-12.375 6.34619H92.125H-12.375ZM92.125 14.8077H-12.375H92.125ZM-12.375 23.2693H92.125H-12.375ZM92.125 31.7308H-12.375H92.125ZM-12.375 40.1923H92.125H-12.375ZM92.125 48.6539H-12.375H92.125Z" fill="black"/>
<path d="M-12.375 6.34619H92.125M92.125 14.8077H-12.375M-12.375 23.2693H92.125M92.125 31.7308H-12.375M-12.375 40.1923H92.125M92.125 48.6539H-12.375" stroke="white" stroke-width="4.23077"/>
<path d="M-12.375 0H29.425V29.6154H-12.375V0Z" fill="#3C3B6E"/>
<path d="M1.55869 4.23071L2.5534 7.29213L-0.0507812 5.40007H3.16817L0.563978 7.29213L1.55869 4.23071Z" fill="white"/>
<path d="M1.55869 10.1538L2.5534 13.2152L-0.0507812 11.3232H3.16817L0.563978 13.2152L1.55869 10.1538Z" fill="white"/>
<path d="M1.55869 16.0769L2.5534 19.1383L-0.0507812 17.2463H3.16817L0.563978 19.1383L1.55869 16.0769Z" fill="white"/>
<path d="M1.55869 22L2.5534 25.0614L-0.0507812 23.1694H3.16817L0.563978 25.0614L1.55869 22Z" fill="white"/>
<path d="M5.0416 1.26929L6.03631 4.3307L3.43213 2.43864H6.65108L4.04689 4.3307L5.0416 1.26929Z" fill="white"/>
<path d="M5.0416 7.19238L6.03631 10.2538L3.43213 8.36174H6.65108L4.04689 10.2538L5.0416 7.19238Z" fill="white"/>
<path d="M5.0416 13.1155L6.03631 16.1769L3.43213 14.2848H6.65108L4.04689 16.1769L5.0416 13.1155Z" fill="white"/>
<path d="M5.0416 19.0386L6.03631 22.1L3.43213 20.2079H6.65108L4.04689 22.1L5.0416 19.0386Z" fill="white"/>
<path d="M5.0416 24.9617L6.03631 28.0231L3.43213 26.131H6.65108L4.04689 28.0231L5.0416 24.9617Z" fill="white"/>
<path d="M8.525 4.23071L9.51971 7.29213L6.91553 5.40007H10.1345L7.53029 7.29213L8.525 4.23071Z" fill="white"/>
<path d="M8.525 10.1538L9.51971 13.2152L6.91553 11.3232H10.1345L7.53029 13.2152L8.525 10.1538Z" fill="white"/>
<path d="M8.525 16.0769L9.51971 19.1383L6.91553 17.2463H10.1345L7.53029 19.1383L8.525 16.0769Z" fill="white"/>
<path d="M8.525 22L9.51971 25.0614L6.91553 23.1694H10.1345L7.53029 25.0614L8.525 22Z" fill="white"/>
<path d="M12.0084 1.26929L13.0031 4.3307L10.3989 2.43864H13.6179L11.0137 4.3307L12.0084 1.26929Z" fill="white"/>
<path d="M12.0084 7.19238L13.0031 10.2538L10.3989 8.36174H13.6179L11.0137 10.2538L12.0084 7.19238Z" fill="white"/>
<path d="M12.0084 13.1155L13.0031 16.1769L10.3989 14.2848H13.6179L11.0137 16.1769L12.0084 13.1155Z" fill="white"/>
<path d="M12.0084 19.0386L13.0031 22.1L10.3989 20.2079H13.6179L11.0137 22.1L12.0084 19.0386Z" fill="white"/>
<path d="M12.0084 24.9617L13.0031 28.0231L10.3989 26.131H13.6179L11.0137 28.0231L12.0084 24.9617Z" fill="white"/>
<path d="M15.4918 4.23071L16.4865 7.29213L13.8823 5.40007H17.1013L14.4971 7.29213L15.4918 4.23071Z" fill="white"/>
<path d="M15.4918 10.1538L16.4865 13.2152L13.8823 11.3232H17.1013L14.4971 13.2152L15.4918 10.1538Z" fill="white"/>
<path d="M15.4918 16.0769L16.4865 19.1383L13.8823 17.2463H17.1013L14.4971 19.1383L15.4918 16.0769Z" fill="white"/>
<path d="M15.4918 22L16.4865 25.0614L13.8823 23.1694H17.1013L14.4971 25.0614L15.4918 22Z" fill="white"/>
<path d="M18.9752 1.26929L19.9699 4.3307L17.3657 2.43864H20.5847L17.9805 4.3307L18.9752 1.26929Z" fill="white"/>
<path d="M18.9752 7.19238L19.9699 10.2538L17.3657 8.36174H20.5847L17.9805 10.2538L18.9752 7.19238Z" fill="white"/>
<path d="M18.9752 13.1155L19.9699 16.1769L17.3657 14.2848H20.5847L17.9805 16.1769L18.9752 13.1155Z" fill="white"/>
<path d="M18.9752 19.0386L19.9699 22.1L17.3657 20.2079H20.5847L17.9805 22.1L18.9752 19.0386Z" fill="white"/>
<path d="M18.9752 24.9617L19.9699 28.0231L17.3657 26.131H20.5847L17.9805 28.0231L18.9752 24.9617Z" fill="white"/>
<path d="M22.4586 4.23071L23.4533 7.29213L20.8491 5.40007H24.0681L21.4639 7.29213L22.4586 4.23071Z" fill="white"/>
<path d="M22.4586 10.1538L23.4533 13.2152L20.8491 11.3232H24.0681L21.4639 13.2152L22.4586 10.1538Z" fill="white"/>
<path d="M22.4586 16.0769L23.4533 19.1383L20.8491 17.2463H24.0681L21.4639 19.1383L22.4586 16.0769Z" fill="white"/>
<path d="M22.4586 22L23.4533 25.0614L20.8491 23.1694H24.0681L21.4639 25.0614L22.4586 22Z" fill="white"/>
<path d="M25.942 1.26929L26.9367 4.3307L24.3325 2.43864H27.5515L24.9473 4.3307L25.942 1.26929Z" fill="white"/>
<path d="M25.942 7.19238L26.9367 10.2538L24.3325 8.36174H27.5515L24.9473 10.2538L25.942 7.19238Z" fill="white"/>
<path d="M25.942 13.1155L26.9367 16.1769L24.3325 14.2848H27.5515L24.9473 16.1769L25.942 13.1155Z" fill="white"/>
<path d="M25.942 19.0386L26.9367 22.1L24.3325 20.2079H27.5515L24.9473 22.1L25.942 19.0386Z" fill="white"/>
<path d="M25.942 24.9617L26.9367 28.0231L24.3325 26.131H27.5515L24.9473 28.0231L25.942 24.9617Z" fill="white"/>
</g>
</g>
</g>
<defs>
<clipPath id="clip0_17_4354">
<rect width="55" height="55" rx="27.5" fill="white"/>
</clipPath>
<clipPath id="clip1_17_4354">
<rect width="55" height="55" fill="white"/>
</clipPath>
<clipPath id="clip2_17_4354">
<rect width="104.5" height="55" fill="white" transform="translate(-12.375)"/>
</clipPath>
</defs>
</svg>
